<svg width="472" height="262" viewBox="0 0 472 262" fill="none" xmlns="http://www.w3.org/2000/svg">
<path d="M422.016 257.712C423.237 260.189 426.235 261.207 428.711 259.985L469.071 240.082C471.547 238.861 472.565 235.863 471.344 233.386C470.122 230.91 467.124 229.892 464.648 231.113L428.773 248.805L411.081 212.93C409.86 210.454 406.862 209.436 404.385 210.658C401.909 211.879 400.891 214.877 402.112 217.353L422.016 257.712ZM5 164.469L3.14388 159.827L0 161.084V164.469H5ZM31.625 182.039L27.2587 179.603L31.625 182.039ZM21.2065 190.367L23.0205 195.026L21.2065 190.367ZM31.625 164.83L27.4134 167.524L31.625 164.83ZM109.914 138.151C106.282 131.33 107.184 128.672 107.865 127.721C108.88 126.303 111.875 124.694 118.591 124.157C131.514 123.123 151.607 126.477 172.336 130.532C192.57 134.49 213.399 139.116 226.54 140.004C229.868 140.229 232.976 140.238 235.6 139.859C238.008 139.511 241.087 138.697 243.144 136.324C245.64 133.445 245.367 129.933 244.28 127.196C243.251 124.603 241.25 121.905 238.677 119.113L231.323 125.889C233.625 128.388 234.637 130.007 234.986 130.887C235.279 131.623 234.751 130.739 235.589 129.773C235.987 129.314 236.002 129.697 234.17 129.962C232.555 130.195 230.247 130.231 227.213 130.027C214.905 129.195 195.131 124.801 174.256 120.718C153.874 116.731 132.35 113.024 117.793 114.188C110.77 114.75 103.559 116.555 99.7326 121.902C95.5723 127.715 96.9987 135.172 101.086 142.851L109.914 138.151ZM238.677 119.113C236.335 116.571 234.751 114.583 233.746 113.051C233.247 112.291 232.929 111.702 232.735 111.263C232.64 111.047 232.582 110.885 232.547 110.771C232.513 110.657 232.506 110.605 232.506 110.608C232.537 110.843 232.434 111.598 231.868 112.13C231.611 112.371 231.678 112.156 232.806 111.911C235.055 111.421 238.588 111.362 243.529 111.35C248.205 111.339 253.792 111.355 259.322 110.788C270.141 109.679 282.827 106.127 288.316 93.4305C293.562 81.2956 291.249 62.7184 278.561 34.4533L269.439 38.5486C282.001 66.5331 282.563 81.5393 279.137 89.462C275.954 96.8234 268.421 99.8029 258.303 100.84C253.364 101.346 248.303 101.339 243.505 101.35C238.971 101.361 234.203 101.372 230.678 102.14C228.92 102.523 226.731 103.235 225.021 104.842C223.001 106.739 222.245 109.301 222.593 111.925C222.898 114.216 224.014 116.449 225.386 118.539C226.807 120.704 228.79 123.139 231.323 125.889L238.677 119.113ZM278.561 34.4533C275.478 27.5831 273.597 22.1953 272.673 18.1184C271.713 13.8819 271.944 11.7296 272.259 10.8791C272.374 10.5701 272.437 10.5964 272.335 10.6691C272.256 10.7251 272.341 10.6178 272.834 10.5839C273.996 10.5041 276.205 10.9123 279.656 12.4822C286.412 15.5557 295.715 22.0385 306.546 31.3986C317.3 40.6922 329.305 52.599 341.451 66.2608C365.766 93.612 390.419 127.742 406.671 161.639C423.032 195.762 430.363 228.565 421.765 253.894L431.235 257.108C441.137 227.936 432.343 192.053 415.688 157.316C398.925 122.354 373.671 87.4528 348.924 59.6166C336.539 45.6847 324.224 33.4588 313.085 23.8325C302.023 14.2727 291.861 7.04855 283.797 3.37984C279.838 1.57866 275.798 0.35688 272.149 0.607392C270.237 0.738679 268.276 1.28657 266.546 2.51515C264.792 3.76051 263.597 5.4768 262.883 7.40264C261.541 11.0218 261.83 15.5183 262.921 20.3289C264.047 25.299 266.21 31.3564 269.439 38.5486L278.561 34.4533ZM0 164.469V190.367H10V164.469H0ZM0 190.367V216.264H10V190.367H0ZM47.6274 190.367V203.316H57.6274V190.367H47.6274ZM52.6274 203.316C47.6274 203.316 47.6274 203.316 47.6274 203.316C47.6274 203.316 47.6274 203.316 47.6274 203.317C47.6274 203.317 47.6274 203.318 47.6274 203.319C47.6274 203.319 47.6274 203.32 47.6274 203.321C47.6274 203.322 47.6274 203.323 47.6274 203.324C47.6274 203.325 47.6274 203.326 47.6274 203.328C47.6274 203.329 47.6274 203.331 47.6274 203.332C47.6274 203.334 47.6274 203.335 47.6274 203.337C47.6274 203.339 47.6274 203.341 47.6274 203.343C47.6274 203.345 47.6274 203.347 47.6274 203.349C47.6274 203.352 47.6274 203.354 47.6274 203.356C47.6274 203.359 47.6274 203.361 47.6274 203.364C47.6274 203.367 47.6274 203.369 47.6274 203.372C47.6274 203.375 47.6274 203.378 47.6274 203.381C47.6274 203.384 47.6274 203.388 47.6274 203.391C47.6274 203.394 47.6274 203.398 47.6274 203.401C47.6274 203.405 47.6274 203.408 47.6274 203.412C47.6274 203.416 47.6274 203.419 47.6274 203.423C47.6274 203.427 47.6274 203.431 47.6274 203.436C47.6274 203.44 47.6274 203.444 47.6274 203.448C47.6274 203.453 47.6274 203.457 47.6274 203.462C47.6274 203.466 47.6274 203.471 47.6274 203.476C47.6274 203.48 47.6274 203.485 47.6274 203.49C47.6274 203.495 47.6274 203.5 47.6274 203.505C47.6274 203.51 47.6274 203.516 47.6274 203.521C47.6274 203.526 47.6274 203.532 47.6274 203.537C47.6274 203.543 47.6274 203.549 47.6274 203.554C47.6274 203.56 47.6274 203.566 47.6274 203.572C47.6274 203.578 47.6274 203.584 47.6274 203.59C47.6274 203.596 47.6274 203.603 47.6274 203.609C47.6274 203.615 47.6274 203.622 47.6274 203.628C47.6274 203.635 47.6274 203.641 47.6274 203.648C47.6274 203.655 47.6274 203.662 47.6274 203.669C47.6274 203.676 47.6274 203.683 47.6274 203.69C47.6274 203.697 47.6274 203.704 47.6274 203.711C47.6274 203.719 47.6274 203.726 47.6274 203.734C47.6274 203.741 47.6274 203.749 47.6274 203.756C47.6274 203.764 47.6274 203.772 47.6274 203.78C47.6274 203.788 47.6274 203.796 47.6274 203.804C47.6274 203.812 47.6274 203.82 47.6274 203.828C47.6274 203.836 47.6274 203.845 47.6274 203.853C47.6274 203.861 47.6274 203.87 47.6274 203.878C47.6274 203.887 47.6274 203.896 47.6274 203.905C47.6274 203.913 47.6274 203.922 47.6274 203.931C47.6274 203.94 47.6274 203.949 47.6274 203.958C47.6274 203.967 47.6274 203.977 47.6274 203.986C47.6274 203.995 47.6274 204.005 47.6274 204.014C47.6274 204.024 47.6274 204.033 47.6274 204.043C47.6274 204.053 47.6274 204.062 47.6274 204.072C47.6274 204.082 47.6274 204.092 47.6274 204.102C47.6274 204.112 47.6274 204.122 47.6274 204.132C47.6274 204.142 47.6274 204.153 47.6274 204.163C47.6274 204.173 47.6274 204.184 47.6274 204.194C47.6274 204.205 47.6274 204.215 47.6274 204.226C47.6274 204.237 47.6274 204.247 47.6274 204.258C47.6274 204.269 47.6274 204.28 47.6274 204.291C47.6274 204.302 47.6274 204.313 47.6274 204.324C47.6274 204.336 47.6274 204.347 47.6274 204.358C47.6274 204.37 47.6274 204.381 47.6274 204.392C47.6274 204.404 47.6274 204.416 47.6274 204.427C47.6274 204.439 47.6274 204.451 47.6274 204.462C47.6274 204.474 47.6274 204.486 47.6274 204.498C47.6274 204.51 47.6274 204.522 47.6274 204.534C47.6274 204.546 47.6274 204.559 47.6274 204.571C47.6274 204.583 47.6274 204.596 47.6274 204.608C47.6274 204.621 47.6274 204.633 47.6274 204.646C47.6274 204.658 47.6274 204.671 47.6274 204.684C47.6274 204.696 47.6274 204.709 47.6274 204.722C47.6274 204.735 47.6274 204.748 47.6274 204.761C47.6274 204.774 47.6274 204.787 47.6274 204.801C47.6274 204.814 47.6274 204.827 47.6274 204.84C47.6274 204.854 47.6274 204.867 47.6274 204.881C47.6274 204.894 47.6274 204.908 47.6274 204.921C47.6274 204.935 47.6274 204.949 47.6274 204.963C47.6274 204.976 47.6274 204.99 47.6274 205.004C47.6274 205.018 47.6274 205.032 47.6274 205.046C47.6274 205.06 47.6274 205.074 47.6274 205.089C47.6274 205.103 47.6274 205.117 47.6274 205.131C47.6274 205.146 47.6274 205.16 47.6274 205.175C47.6274 205.189 47.6274 205.204 47.6274 205.218C47.6274 205.233 47.6274 205.248 47.6274 205.263C47.6274 205.277 47.6274 205.292 47.6274 205.307C47.6274 205.322 47.6274 205.337 47.6274 205.352C47.6274 205.367 47.6274 205.382 47.6274 205.397C47.6274 205.412 47.6274 205.428 47.6274 205.443C47.6274 205.458 47.6274 205.474 47.6274 205.489C47.6274 205.505 47.6274 205.52 47.6274 205.536C47.6274 205.551 47.6274 205.567 47.6274 205.582C47.6274 205.598 47.6274 205.614 47.6274 205.63C47.6274 205.646 47.6274 205.661 47.6274 205.677C47.6274 205.693 47.6274 205.709 47.6274 205.725C47.6274 205.742 47.6274 205.758 47.6274 205.774C47.6274 205.79 47.6274 205.806 47.6274 205.823C47.6274 205.839 47.6274 205.855 47.6274 205.872C47.6274 205.888 47.6274 205.905 47.6274 205.921C47.6274 205.938 47.6274 205.954 47.6274 205.971C47.6274 205.988 47.6274 206.004 47.6274 206.021C47.6274 206.038 47.6274 206.055 47.6274 206.072C47.6274 206.089 47.6274 206.106 47.6274 206.123C47.6274 206.14 47.6274 206.157 47.6274 206.174C47.6274 206.191 47.6274 206.208 47.6274 206.226C47.6274 206.243 47.6274 206.26 47.6274 206.278C47.6274 206.295 47.6274 206.312 47.6274 206.33C47.6274 206.347 47.6274 206.365 47.6274 206.382C47.6274 206.4 47.6274 206.418 47.6274 206.435C47.6274 206.453 47.6274 206.471 47.6274 206.489C47.6274 206.506 47.6274 206.524 47.6274 206.542C47.6274 206.56 47.6274 206.578 47.6274 206.596C47.6274 206.614 47.6274 206.632 47.6274 206.65C47.6274 206.668 47.6274 206.687 47.6274 206.705C47.6274 206.723 47.6274 206.741 47.6274 206.76C47.6274 206.778 47.6274 206.796 47.6274 206.815C47.6274 206.833 47.6274 206.852 47.6274 206.87C47.6274 206.889 47.6274 206.907 47.6274 206.926C47.6274 206.945 47.6274 206.963 47.6274 206.982C47.6274 207.001 47.6274 207.02 47.6274 207.038C47.6274 207.057 47.6274 207.076 47.6274 207.095C47.6274 207.114 47.6274 207.133 47.6274 207.152C47.6274 207.171 47.6274 207.19 47.6274 207.209C47.6274 207.228 47.6274 207.247 47.6274 207.266C47.6274 207.286 47.6274 207.305 47.6274 207.324C47.6274 207.343 47.6274 207.363 47.6274 207.382C47.6274 207.402 47.6274 207.421 47.6274 207.44C47.6274 207.46 47.6274 207.479 47.6274 207.499C47.6274 207.519 47.6274 207.538 47.6274 207.558C47.6274 207.577 47.6274 207.597 47.6274 207.617C47.6274 207.637 47.6274 207.656 47.6274 207.676C47.6274 207.696 47.6274 207.716 47.6274 207.736C47.6274 207.755 47.6274 207.775 47.6274 207.795C47.6274 207.815 47.6274 207.835 47.6274 207.855C47.6274 207.875 47.6274 207.896 47.6274 207.916C47.6274 207.936 47.6274 207.956 47.6274 207.976C47.6274 207.996 47.6274 208.017 47.6274 208.037C47.6274 208.057 47.6274 208.078 47.6274 208.098C47.6274 208.118 47.6274 208.139 47.6274 208.159C47.6274 208.179 47.6274 208.2 47.6274 208.22C47.6274 208.241 47.6274 208.262 47.6274 208.282C47.6274 208.303 47.6274 208.323 47.6274 208.344C47.6274 208.365 47.6274 208.385 47.6274 208.406C47.6274 208.427 47.6274 208.447 47.6274 208.468C47.6274 208.489 47.6274 208.51 47.6274 208.531C47.6274 208.552 47.6274 208.572 47.6274 208.593C47.6274 208.614 47.6274 208.635 47.6274 208.656C47.6274 208.677 47.6274 208.698 47.6274 208.719C47.6274 208.74 47.6274 208.761 47.6274 208.783C47.6274 208.804 47.6274 208.825 47.6274 208.846C47.6274 208.867 47.6274 208.888 47.6274 208.91C47.6274 208.931 47.6274 208.952 47.6274 208.973C47.6274 208.995 47.6274 209.016 47.6274 209.037C47.6274 209.059 47.6274 209.08 47.6274 209.102C47.6274 209.123 47.6274 209.144 47.6274 209.166C47.6274 209.187 47.6274 209.209 47.6274 209.23C47.6274 209.252 47.6274 209.273 47.6274 209.295C47.6274 209.317 47.6274 209.338 47.6274 209.36C47.6274 209.381 47.6274 209.403 47.6274 209.425C47.6274 209.446 47.6274 209.468 47.6274 209.49C47.6274 209.512 47.6274 209.533 47.6274 209.555C47.6274 209.577 47.6274 209.599 47.6274 209.621C47.6274 209.642 47.6274 209.664 47.6274 209.686C47.6274 209.708 47.6274 209.73 47.6274 209.752C47.6274 209.774 47.6274 209.796 47.6274 209.818C47.6274 209.84 47.6274 209.862 47.6274 209.884C47.6274 209.906 47.6274 209.928 47.6274 209.95C47.6274 209.972 47.6274 209.994 47.6274 210.016C47.6274 210.038 47.6274 210.06 47.6274 210.082C47.6274 210.104 47.6274 210.126 47.6274 210.149C47.6274 210.171 47.6274 210.193 47.6274 210.215C47.6274 210.237 47.6274 210.26 47.6274 210.282C47.6274 210.304 47.6274 210.326 47.6274 210.349C47.6274 210.371 47.6274 210.393 47.6274 210.416C47.6274 210.438 47.6274 210.46 47.6274 210.483C47.6274 210.505 47.6274 210.527 47.6274 210.55C47.6274 210.572 47.6274 210.594 47.6274 210.617C47.6274 210.639 47.6274 210.662 47.6274 210.684C47.6274 210.707 47.6274 210.729 47.6274 210.751C47.6274 210.774 47.6274 210.796 47.6274 210.819C47.6274 210.841 47.6274 210.864 47.6274 210.886C47.6274 210.909 47.6274 210.932 47.6274 210.954C47.6274 210.977 47.6274 210.999 47.6274 211.022C47.6274 211.044 47.6274 211.067 47.6274 211.089C47.6274 211.112 47.6274 211.135 47.6274 211.157C47.6274 211.18 47.6274 211.203 47.6274 211.225C47.6274 211.248 47.6274 211.27 47.6274 211.293C47.6274 211.316 47.6274 211.338 47.6274 211.361C47.6274 211.384 47.6274 211.406 47.6274 211.429C47.6274 211.452 47.6274 211.475 47.6274 211.497C47.6274 211.52 47.6274 211.543 47.6274 211.565C47.6274 211.588 47.6274 211.611 47.6274 211.634C47.6274 211.656 47.6274 211.679 47.6274 211.702C47.6274 211.725 47.6274 211.747 47.6274 211.77C47.6274 211.793 47.6274 211.816 47.6274 211.838C47.6274 211.861 47.6274 211.884 47.6274 211.907C47.6274 211.929 47.6274 211.952 47.6274 211.975C47.6274 211.998 47.6274 212.021 47.6274 212.043C47.6274 212.066 47.6274 212.089 47.6274 212.112C47.6274 212.135 47.6274 212.157 47.6274 212.18C47.6274 212.203 47.6274 212.226 47.6274 212.249C47.6274 212.271 47.6274 212.294 47.6274 212.317C47.6274 212.34 47.6274 212.363 47.6274 212.385C47.6274 212.408 47.6274 212.431 47.6274 212.454C47.6274 212.477 47.6274 212.499 47.6274 212.522C47.6274 212.545 47.6274 212.568 47.6274 212.591C47.6274 212.614 47.6274 212.636 47.6274 212.659C47.6274 212.682 47.6274 212.705 47.6274 212.728C47.6274 212.75 47.6274 212.773 47.6274 212.796C47.6274 212.819 47.6274 212.841 47.6274 212.864C47.6274 212.887 47.6274 212.91 47.6274 212.933C47.6274 212.955 47.6274 212.978 47.6274 213.001C47.6274 213.024 47.6274 213.046 47.6274 213.069C47.6274 213.092 47.6274 213.115 47.6274 213.137C47.6274 213.16 47.6274 213.183 47.6274 213.206C47.6274 213.228 47.6274 213.251 47.6274 213.274C47.6274 213.297 47.6274 213.319 47.6274 213.342C47.6274 213.365 47.6274 213.387 47.6274 213.41C47.6274 213.433 47.6274 213.455 47.6274 213.478C47.6274 213.501 47.6274 213.523 47.6274 213.546C47.6274 213.569 47.6274 213.591 47.6274 213.614C47.6274 213.637 47.6274 213.659 47.6274 213.682C47.6274 213.704 47.6274 213.727 47.6274 213.75C47.6274 213.772 47.6274 213.795 47.6274 213.817C47.6274 213.84 47.6274 213.862 47.6274 213.885C47.6274 213.908 47.6274 213.93 47.6274 213.953C47.6274 213.975 47.6274 213.998 47.6274 214.02C47.6274 214.043 47.6274 214.065 47.6274 214.088C47.6274 214.11 47.6274 214.132 47.6274 214.155C47.6274 214.177 47.6274 214.2 47.6274 214.222C47.6274 214.245 47.6274 214.267 47.6274 214.289C47.6274 214.312 47.6274 214.334 47.6274 214.356C47.6274 214.379 47.6274 214.401 47.6274 214.423C47.6274 214.446 47.6274 214.468 47.6274 214.49C47.6274 214.512 47.6274 214.535 47.6274 214.557C47.6274 214.579 47.6274 214.601 47.6274 214.624C47.6274 214.646 47.6274 214.668 47.6274 214.69C47.6274 214.712 47.6274 214.734 47.6274 214.757C47.6274 214.779 47.6274 214.801 47.6274 214.823C47.6274 214.845 47.6274 214.867 47.6274 214.889C47.6274 214.911 47.6274 214.933 47.6274 214.955C47.6274 214.977 47.6274 214.999 47.6274 215.021C47.6274 215.043 47.6274 215.065 47.6274 215.087C47.6274 215.109 47.6274 215.131 47.6274 215.152C47.6274 215.174 47.6274 215.196 47.6274 215.218C47.6274 215.24 47.6274 215.262 47.6274 215.283C47.6274 215.305 47.6274 215.327 47.6274 215.349C47.6274 215.37 47.6274 215.392 47.6274 215.414C47.6274 215.435 47.6274 215.457 47.6274 215.479C47.6274 215.5 47.6274 215.522 47.6274 215.543C47.6274 215.565 47.6274 215.586 47.6274 215.608C47.6274 215.629 47.6274 215.651 47.6274 215.672C47.6274 215.694 47.6274 215.715 47.6274 215.737C47.6274 215.758 47.6274 215.779 47.6274 215.801C47.6274 215.822 47.6274 215.843 47.6274 215.865C47.6274 215.886 47.6274 215.907 47.6274 215.928C47.6274 215.95 47.6274 215.971 47.6274 215.992C47.6274 216.013 47.6274 216.034 47.6274 216.055C47.6274 216.076 47.6274 216.097 47.6274 216.118C47.6274 216.14 47.6274 216.161 47.6274 216.181C47.6274 216.202 47.6274 216.223 47.6274 216.244C47.6274 216.265 47.6274 216.286 47.6274 216.307C47.6274 216.328 47.6274 216.349 47.6274 216.369C47.6274 216.39 47.6274 216.411 47.6274 216.432C47.6274 216.452 47.6274 216.473 47.6274 216.493C47.6274 216.514 47.6274 216.535 47.6274 216.555C47.6274 216.576 47.6274 216.596 47.6274 216.617C47.6274 216.637 47.6274 216.658 47.6274 216.678C47.6274 216.699 47.6274 216.719 47.6274 216.739C47.6274 216.76 47.6274 216.78 47.6274 216.8C47.6274 216.82 47.6274 216.841 47.6274 216.861C47.6274 216.881 47.6274 216.901 47.6274 216.921C47.6274 216.941 47.6274 216.961 47.6274 216.981C47.6274 217.002 47.6274 217.021 47.6274 217.041C47.6274 217.061 47.6274 217.081 47.6274 217.101C47.6274 217.121 47.6274 217.141 47.6274 217.161C47.6274 217.18 47.6274 217.2 47.6274 217.22C47.6274 217.24 47.6274 217.259 47.6274 217.279C47.6274 217.298 47.6274 217.318 47.6274 217.337C47.6274 217.357 47.6274 217.377 47.6274 217.396C47.6274 217.415 47.6274 217.435 47.6274 217.454C47.6274 217.473 47.6274 217.493 47.6274 217.512C47.6274 217.531 47.6274 217.551 47.6274 217.57C47.6274 217.589 47.6274 217.608 47.6274 217.627C47.6274 217.646 47.6274 217.665 47.6274 217.684C47.6274 217.703 47.6274 217.722 47.6274 217.741C47.6274 217.76 47.6274 217.779 47.6274 217.797C47.6274 217.816 47.6274 217.835 47.6274 217.854C47.6274 217.872 47.6274 217.891 47.6274 217.91C47.6274 217.928 47.6274 217.947 47.6274 217.965C47.6274 217.984 47.6274 218.002 47.6274 218.021C47.6274 218.039 47.6274 218.057 47.6274 218.076C47.6274 218.094 47.6274 218.112 47.6274 218.13C47.6274 218.149 47.6274 218.167 47.6274 218.185C47.6274 218.203 47.6274 218.221 47.6274 218.239C47.6274 218.257 47.6274 218.275 47.6274 218.293C47.6274 218.311 47.6274 218.329 47.6274 218.346C47.6274 218.364 47.6274 218.382 47.6274 218.399C47.6274 218.417 47.6274 218.435 47.6274 218.452C47.6274 218.47 47.6274 218.487 47.6274 218.505C47.6274 218.522 47.6274 218.54 47.6274 218.557C47.6274 218.574 47.6274 218.592 47.6274 218.609C47.6274 218.626 47.6274 218.643 47.6274 218.66C47.6274 218.677 47.6274 218.695 47.6274 218.712C47.6274 218.729 47.6274 218.745 47.6274 218.762C47.6274 218.779 47.6274 218.796 47.6274 218.813C47.6274 218.83 47.6274 218.846 47.6274 218.863C47.6274 218.88 47.6274 218.896 47.6274 218.913C47.6274 218.929 47.6274 218.946 47.6274 218.962C47.6274 218.978 47.6274 218.995 47.6274 219.011C47.6274 219.027 47.6274 219.044 47.6274 219.06C47.6274 219.076 47.6274 219.092 47.6274 219.108C47.6274 219.124 47.6274 219.14 47.6274 219.156C47.6274 219.172 47.6274 219.188 47.6274 219.203C47.6274 219.219 47.6274 219.235 47.6274 219.251C47.6274 219.266 47.6274 219.282 47.6274 219.297C47.6274 219.313 47.6274 219.328 47.6274 219.344C47.6274 219.359 47.6274 219.375 47.6274 219.39C47.6274 219.405 47.6274 219.42 47.6274 219.435C47.6274 219.451 47.6274 219.466 47.6274 219.481C47.6274 219.496 47.6274 219.511 47.6274 219.525C47.6274 219.54 47.6274 219.555 47.6274 219.57C47.6274 219.585 47.6274 219.599 47.6274 219.614C47.6274 219.628 47.6274 219.643 47.6274 219.657C47.6274 219.672 47.6274 219.686 47.6274 219.701C47.6274 219.715 47.6274 219.729 47.6274 219.743C47.6274 219.757 47.6274 219.772 47.6274 219.786C47.6274 219.8 47.6274 219.814 47.6274 219.827C47.6274 219.841 47.6274 219.855 47.6274 219.869C47.6274 219.883 47.6274 219.896 47.6274 219.91C47.6274 219.924 47.6274 219.937 47.6274 219.951C47.6274 219.964 47.6274 219.977 47.6274 219.991C47.6274 220.004 47.6274 220.017 47.6274 220.03C47.6274 220.044 47.6274 220.057 47.6274 220.07C47.6274 220.083 47.6274 220.096 47.6274 220.108C47.6274 220.121 47.6274 220.134 47.6274 220.147C47.6274 220.16 47.6274 220.172 47.6274 220.185C47.6274 220.197 47.6274 220.21 47.6274 220.222C47.6274 220.235 47.6274 220.247 47.6274 220.259C47.6274 220.271 47.6274 220.284 47.6274 220.296C47.6274 220.308 47.6274 220.32 47.6274 220.332C47.6274 220.344 47.6274 220.356 47.6274 220.367C47.6274 220.379 47.6274 220.391 47.6274 220.402C47.6274 220.414 47.6274 220.426 47.6274 220.437C47.6274 220.448 47.6274 220.46 47.6274 220.471C47.6274 220.482 47.6274 220.494 47.6274 220.505C47.6274 220.516 47.6274 220.527 47.6274 220.538C47.6274 220.549 47.6274 220.56 47.6274 220.571C47.6274 220.581 47.6274 220.592 47.6274 220.603C47.6274 220.613 47.6274 220.624 47.6274 220.634C47.6274 220.645 47.6274 220.655 47.6274 220.666C47.6274 220.676 47.6274 220.686 47.6274 220.696C47.6274 220.706 47.6274 220.716 47.6274 220.726C47.6274 220.736 47.6274 220.746 47.6274 220.756C47.6274 220.766 47.6274 220.775 47.6274 220.785C47.6274 220.795 47.6274 220.804 47.6274 220.814C47.6274 220.823 47.6274 220.832 47.6274 220.842C47.6274 220.851 47.6274 220.86 47.6274 220.869C47.6274 220.878 47.6274 220.887 47.6274 220.896C47.6274 220.905 47.6274 220.914 47.6274 220.923C47.6274 220.931 47.6274 220.94 47.6274 220.948C47.6274 220.957 47.6274 220.965 47.6274 220.974C47.6274 220.982 47.6274 220.99 47.6274 220.999C47.6274 221.007 47.6274 221.015 47.6274 221.023C47.6274 221.031 47.6274 221.039 47.6274 221.047C47.6274 221.054 47.6274 221.062 47.6274 221.07C47.6274 221.077 47.6274 221.085 47.6274 221.092C47.6274 221.1 47.6274 221.107 47.6274 221.114C47.6274 221.122 47.6274 221.129 47.6274 221.136C47.6274 221.143 47.6274 221.15 47.6274 221.157C47.6274 221.164 47.6274 221.17 47.6274 221.177C47.6274 221.184 47.6274 221.19 47.6274 221.197C47.6274 221.203 47.6274 221.21 47.6274 221.216C47.6274 221.222 47.6274 221.229 47.6274 221.235C47.6274 221.241 47.6274 221.247 47.6274 221.253C47.6274 221.259 47.6274 221.264 47.6274 221.27C47.6274 221.276 47.6274 221.281 47.6274 221.287C47.6274 221.292 47.6274 221.298 47.6274 221.303C47.6274 221.308 47.6274 221.314 47.6274 221.319C47.6274 221.324 47.6274 221.329 47.6274 221.334C47.6274 221.339 47.6274 221.343 47.6274 221.348C47.6274 221.353 47.6274 221.357 47.6274 221.362C47.6274 221.366 47.6274 221.371 47.6274 221.375C47.6274 221.379 47.6274 221.384 47.6274 221.388C47.6274 221.392 47.6274 221.396 47.6274 221.4C47.6274 221.403 47.6274 221.407 47.6274 221.411C47.6274 221.415 47.6274 221.418 47.6274 221.422C47.6274 221.425 47.6274 221.428 47.6274 221.432C47.6274 221.435 47.6274 221.438 47.6274 221.441C47.6274 221.444 47.6274 221.447 47.6274 221.45C47.6274 221.453 47.6274 221.455 47.6274 221.458C47.6274 221.46 47.6274 221.463 47.6274 221.465C47.6274 221.468 47.6274 221.47 47.6274 221.472C47.6274 221.474 47.6274 221.476 47.6274 221.478C47.6274 221.48 47.6274 221.482 47.6274 221.484C47.6274 221.486 47.6274 221.487 47.6274 221.489C47.6274 221.49 47.6274 221.492 47.6274 221.493C47.6274 221.494 47.6274 221.495 47.6274 221.496C47.6274 221.498 47.6274 221.498 47.6274 221.499C47.6274 221.5 47.6274 221.501 47.6274 221.502C47.6274 221.502 47.6274 221.503 47.6274 221.503C47.6274 221.503 47.6274 221.504 47.6274 221.504C47.6274 221.504 52.6274 221.504 57.6274 221.504C57.6274 221.504 57.6274 221.504 57.6274 221.503C57.6274 221.503 57.6274 221.503 57.6274 221.502C57.6274 221.502 57.6274 221.501 57.6274 221.5C57.6274 221.5 57.6274 221.499 57.6274 221.498C57.6274 221.497 57.6274 221.496 57.6274 221.494C57.6274 221.493 57.6274 221.492 57.6274 221.49C57.6274 221.489 57.6274 221.487 57.6274 221.486C57.6274 221.484 57.6274 221.482 57.6274 221.48C57.6274 221.478 57.6274 221.476 57.6274 221.474C57.6274 221.472 57.6274 221.469 57.6274 221.467C57.6274 221.465 57.6274 221.462 57.6274 221.459C57.6274 221.457 57.6274 221.454 57.6274 221.451C57.6274 221.448 57.6274 221.445 57.6274 221.442C57.6274 221.439 57.6274 221.436 57.6274 221.432C57.6274 221.429 57.6274 221.425 57.6274 221.422C57.6274 221.418 57.6274 221.414 57.6274 221.41C57.6274 221.407 57.6274 221.403 57.6274 221.398C57.6274 221.394 57.6274 221.39 57.6274 221.386C57.6274 221.381 57.6274 221.377 57.6274 221.372C57.6274 221.368 57.6274 221.363 57.6274 221.358C57.6274 221.353 57.6274 221.348 57.6274 221.343C57.6274 221.338 57.6274 221.333 57.6274 221.327C57.6274 221.322 57.6274 221.316 57.6274 221.311C57.6274 221.305 57.6274 221.299 57.6274 221.293C57.6274 221.287 57.6274 221.281 57.6274 221.275C57.6274 221.269 57.6274 221.263 57.6274 221.256C57.6274 221.25 57.6274 221.243 57.6274 221.237C57.6274 221.23 57.6274 221.223 57.6274 221.216C57.6274 221.209 57.6274 221.202 57.6274 221.195C57.6274 221.188 57.6274 221.181 57.6274 221.173C57.6274 221.166 57.6274 221.158 57.6274 221.15C57.6274 221.143 57.6274 221.135 57.6274 221.127C57.6274 221.119 57.6274 221.111 57.6274 221.102C57.6274 221.094 57.6274 221.086 57.6274 221.077C57.6274 221.069 57.6274 221.06 57.6274 221.051C57.6274 221.043 57.6274 221.034 57.6274 221.025C57.6274 221.016 57.6274 221.006 57.6274 220.997C57.6274 220.988 57.6274 220.978 57.6274 220.969C57.6274 220.959 57.6274 220.949 57.6274 220.939C57.6274 220.93 57.6274 220.92 57.6274 220.909C57.6274 220.899 57.6274 220.889 57.6274 220.878C57.6274 220.868 57.6274 220.857 57.6274 220.847C57.6274 220.836 57.6274 220.825 57.6274 220.814C57.6274 220.803 57.6274 220.792 57.6274 220.781C57.6274 220.77 57.6274 220.758 57.6274 220.747C57.6274 220.735 57.6274 220.723 57.6274 220.712C57.6274 220.7 57.6274 220.688 57.6274 220.676C57.6274 220.664 57.6274 220.651 57.6274 220.639C57.6274 220.627 57.6274 220.614 57.6274 220.601C57.6274 220.589 57.6274 220.576 57.6274 220.563C57.6274 220.55 57.6274 220.537 57.6274 220.524C57.6274 220.51 57.6274 220.497 57.6274 220.484C57.6274 220.47 57.6274 220.456 57.6274 220.442C57.6274 220.429 57.6274 220.415 57.6274 220.401C57.6274 220.386 57.6274 220.372 57.6274 220.358C57.6274 220.343 57.6274 220.329 57.6274 220.314C57.6274 220.299 57.6274 220.285 57.6274 220.27C57.6274 220.255 57.6274 220.239 57.6274 220.224C57.6274 220.209 57.6274 220.193 57.6274 220.178C57.6274 220.162 57.6274 220.147 57.6274 220.131C57.6274 220.115 57.6274 220.099 57.6274 220.083C57.6274 220.066 57.6274 220.05 57.6274 220.034C57.6274 220.017 57.6274 220 57.6274 219.984C57.6274 219.967 57.6274 219.95 57.6274 219.933C57.6274 219.916 57.6274 219.899 57.6274 219.881C57.6274 219.864 57.6274 219.846 57.6274 219.829C57.6274 219.811 57.6274 219.793 57.6274 219.775C57.6274 219.757 57.6274 219.739 57.6274 219.721C57.6274 219.702 57.6274 219.684 57.6274 219.665C57.6274 219.647 57.6274 219.628 57.6274 219.609C57.6274 219.59 57.6274 219.571 57.6274 219.552C57.6274 219.532 57.6274 219.513 57.6274 219.494C57.6274 219.474 57.6274 219.454 57.6274 219.434C57.6274 219.415 57.6274 219.395 57.6274 219.374C57.6274 219.354 57.6274 219.334 57.6274 219.313C57.6274 219.293 57.6274 219.272 57.6274 219.252C57.6274 219.231 57.6274 219.21 57.6274 219.189C57.6274 219.168 57.6274 219.146 57.6274 219.125C57.6274 219.103 57.6274 219.082 57.6274 219.06C57.6274 219.038 57.6274 219.016 57.6274 218.994C57.6274 218.972 57.6274 218.95 57.6274 218.928C57.6274 218.905 57.6274 218.883 57.6274 218.86C57.6274 218.837 57.6274 218.814 57.6274 218.791C57.6274 218.768 57.6274 218.745 57.6274 218.722C57.6274 218.698 57.6274 218.675 57.6274 218.651C57.6274 218.627 57.6274 218.604 57.6274 218.58C57.6274 218.556 57.6274 218.531 57.6274 218.507C57.6274 218.483 57.6274 218.458 57.6274 218.434C57.6274 218.409 57.6274 218.384 57.6274 218.359C57.6274 218.334 57.6274 218.309 57.6274 218.283C57.6274 218.258 57.6274 218.233 57.6274 218.207C57.6274 218.181 57.6274 218.155 57.6274 218.129C57.6274 218.103 57.6274 218.077 57.6274 218.051C57.6274 218.025 57.6274 217.998 57.6274 217.971C57.6274 217.945 57.6274 217.918 57.6274 217.891C57.6274 217.864 57.6274 217.837 57.6274 217.809C57.6274 217.782 57.6274 217.754 57.6274 217.727C57.6274 217.699 57.6274 217.671 57.6274 217.643C57.6274 217.615 57.6274 217.587 57.6274 217.559C57.6274 217.53 57.6274 217.502 57.6274 217.473C57.6274 217.444 57.6274 217.415 57.6274 217.386C57.6274 217.357 57.6274 217.328 57.6274 217.298C57.6274 217.269 57.6274 217.239 57.6274 217.21C57.6274 217.18 57.6274 217.15 57.6274 217.12C57.6274 217.09 57.6274 217.06 57.6274 217.029C57.6274 216.999 57.6274 216.968 57.6274 216.937C57.6274 216.906 57.6274 216.875 57.6274 216.844C57.6274 216.813 57.6274 216.782 57.6274 216.75C57.6274 216.719 57.6274 216.687 57.6274 216.655C57.6274 216.623 57.6274 216.591 57.6274 216.559C57.6274 216.527 57.6274 216.494 57.6274 216.462C57.6274 216.429 57.6274 216.397 57.6274 216.364C57.6274 216.331 57.6274 216.298 57.6274 216.264H47.6274C47.6274 216.298 47.6274 216.331 47.6274 216.364C47.6274 216.397 47.6274 216.429 47.6274 216.462C47.6274 216.494 47.6274 216.527 47.6274 216.559C47.6274 216.591 47.6274 216.623 47.6274 216.655C47.6274 216.687 47.6274 216.719 47.6274 216.75C47.6274 216.782 47.6274 216.813 47.6274 216.844C47.6274 216.875 47.6274 216.906 47.6274 216.937C47.6274 216.968 47.6274 216.999 47.6274 217.029C47.6274 217.06 47.6274 217.09 47.6274 217.12C47.6274 217.15 47.6274 217.18 47.6274 217.21C47.6274 217.239 47.6274 217.269 47.6274 217.298C47.6274 217.328 47.6274 217.357 47.6274 217.386C47.6274 217.415 47.6274 217.444 47.6274 217.473C47.6274 217.502 47.6274 217.53 47.6274 217.559C47.6274 217.587 47.6274 217.615 47.6274 217.643C47.6274 217.671 47.6274 217.699 47.6274 217.727C47.6274 217.754 47.6274 217.782 47.6274 217.809C47.6274 217.837 47.6274 217.864 47.6274 217.891C47.6274 217.918 47.6274 217.945 47.6274 217.971C47.6274 217.998 47.6274 218.025 47.6274 218.051C47.6274 218.077 47.6274 218.103 47.6274 218.129C47.6274 218.155 47.6274 218.181 47.6274 218.207C47.6274 218.233 47.6274 218.258 47.6274 218.283C47.6274 218.309 47.6274 218.334 47.6274 218.359C47.6274 218.384 47.6274 218.409 47.6274 218.434C47.6274 218.458 47.6274 218.483 47.6274 218.507C47.6274 218.531 47.6274 218.556 47.6274 218.58C47.6274 218.604 47.6274 218.627 47.6274 218.651C47.6274 218.675 47.6274 218.698 47.6274 218.722C47.6274 218.745 47.6274 218.768 47.6274 218.791C47.6274 218.814 47.6274 218.837 47.6274 218.86C47.6274 218.883 47.6274 218.905 47.6274 218.928C47.6274 218.95 47.6274 218.972 47.6274 218.994C47.6274 219.016 47.6274 219.038 47.6274 219.06C47.6274 219.082 47.6274 219.103 47.6274 219.125C47.6274 219.146 47.6274 219.168 47.6274 219.189C47.6274 219.21 47.6274 219.231 47.6274 219.252C47.6274 219.272 47.6274 219.293 47.6274 219.313C47.6274 219.334 47.6274 219.354 47.6274 219.374C47.6274 219.395 47.6274 219.415 47.6274 219.434C47.6274 219.454 47.6274 219.474 47.6274 219.494C47.6274 219.513 47.6274 219.532 47.6274 219.552C47.6274 219.571 47.6274 219.59 47.6274 219.609C47.6274 219.628 47.6274 219.647 47.6274 219.665C47.6274 219.684 47.6274 219.702 47.6274 219.721C47.6274 219.739 47.6274 219.757 47.6274 219.775C47.6274 219.793 47.6274 219.811 47.6274 219.829C47.6274 219.846 47.6274 219.864 47.6274 219.881C47.6274 219.899 47.6274 219.916 47.6274 219.933C47.6274 219.95 47.6274 219.967 47.6274 219.984C47.6274 220 47.6274 220.017 47.6274 220.034C47.6274 220.05 47.6274 220.066 47.6274 220.083C47.6274 220.099 47.6274 220.115 47.6274 220.131C47.6274 220.147 47.6274 220.162 47.6274 220.178C47.6274 220.193 47.6274 220.209 47.6274 220.224C47.6274 220.239 47.6274 220.255 47.6274 220.27C47.6274 220.285 47.6274 220.299 47.6274 220.314C47.6274 220.329 47.6274 220.343 47.6274 220.358C47.6274 220.372 47.6274 220.386 47.6274 220.401C47.6274 220.415 47.6274 220.429 47.6274 220.442C47.6274 220.456 47.6274 220.47 47.6274 220.484C47.6274 220.497 47.6274 220.51 47.6274 220.524C47.6274 220.537 47.6274 220.55 47.6274 220.563C47.6274 220.576 47.6274 220.589 47.6274 220.601C47.6274 220.614 47.6274 220.627 47.6274 220.639C47.6274 220.651 47.6274 220.664 47.6274 220.676C47.6274 220.688 47.6274 220.7 47.6274 220.712C47.6274 220.723 47.6274 220.735 47.6274 220.747C47.6274 220.758 47.6274 220.77 47.6274 220.781C47.6274 220.792 47.6274 220.803 47.6274 220.814C47.6274 220.825 47.6274 220.836 47.6274 220.847C47.6274 220.857 47.6274 220.868 47.6274 220.878C47.6274 220.889 47.6274 220.899 47.6274 220.909C47.6274 220.92 47.6274 220.93 47.6274 220.939C47.6274 220.949 47.6274 220.959 47.6274 220.969C47.6274 220.978 47.6274 220.988 47.6274 220.997C47.6274 221.006 47.6274 221.016 47.6274 221.025C47.6274 221.034 47.6274 221.043 47.6274 221.051C47.6274 221.06 47.6274 221.069 47.6274 221.077C47.6274 221.086 47.6274 221.094 47.6274 221.102C47.6274 221.111 47.6274 221.119 47.6274 221.127C47.6274 221.135 47.6274 221.143 47.6274 221.15C47.6274 221.158 47.6274 221.166 47.6274 221.173C47.6274 221.181 47.6274 221.188 47.6274 221.195C47.6274 221.202 47.6274 221.209 47.6274 221.216C47.6274 221.223 47.6274 221.23 47.6274 221.237C47.6274 221.243 47.6274 221.25 47.6274 221.256C47.6274 221.263 47.6274 221.269 47.6274 221.275C47.6274 221.281 47.6274 221.287 47.6274 221.293C47.6274 221.299 47.6274 221.305 47.6274 221.311C47.6274 221.316 47.6274 221.322 47.6274 221.327C47.6274 221.333 47.6274 221.338 47.6274 221.343C47.6274 221.348 47.6274 221.353 47.6274 221.358C47.6274 221.363 47.6274 221.368 47.6274 221.372C47.6274 221.377 47.6274 221.381 47.6274 221.386C47.6274 221.39 47.6274 221.394 47.6274 221.398C47.6274 221.403 47.6274 221.407 47.6274 221.41C47.6274 221.414 47.6274 221.418 47.6274 221.422C47.6274 221.425 47.6274 221.429 47.6274 221.432C47.6274 221.436 47.6274 221.439 47.6274 221.442C47.6274 221.445 47.6274 221.448 47.6274 221.451C47.6274 221.454 47.6274 221.457 47.6274 221.459C47.6274 221.462 47.6274 221.465 47.6274 221.467C47.6274 221.469 47.6274 221.472 47.6274 221.474C47.6274 221.476 47.6274 221.478 47.6274 221.48C47.6274 221.482 47.6274 221.484 47.6274 221.486C47.6274 221.487 47.6274 221.489 47.6274 221.49C47.6274 221.492 47.6274 221.493 47.6274 221.494C47.6274 221.496 47.6274 221.497 47.6274 221.498C47.6274 221.499 47.6274 221.5 47.6274 221.5C47.6274 221.501 47.6274 221.502 47.6274 221.502C47.6274 221.503 47.6274 221.503 47.6274 221.503C47.6274 221.504 47.6274 221.504 47.6274 221.504C52.6274 221.504 57.6274 221.504 57.6274 221.504C57.6274 221.504 57.6274 221.503 57.6274 221.503C57.6274 221.503 57.6274 221.502 57.6274 221.502C57.6274 221.501 57.6274 221.5 57.6274 221.499C57.6274 221.498 57.6274 221.498 57.6274 221.496C57.6274 221.495 57.6274 221.494 57.6274 221.493C57.6274 221.492 57.6274 221.49 57.6274 221.489C57.6274 221.487 57.6274 221.486 57.6274 221.484C57.6274 221.482 57.6274 221.48 57.6274 221.478C57.6274 221.476 57.6274 221.474 57.6274 221.472C57.6274 221.47 57.6274 221.468 57.6274 221.465C57.6274 221.463 57.6274 221.46 57.6274 221.458C57.6274 221.455 57.6274 221.453 57.6274 221.45C57.6274 221.447 57.6274 221.444 57.6274 221.441C57.6274 221.438 57.6274 221.435 57.6274 221.432C57.6274 221.428 57.6274 221.425 57.6274 221.422C57.6274 221.418 57.6274 221.415 57.6274 221.411C57.6274 221.407 57.6274 221.403 57.6274 221.4C57.6274 221.396 57.6274 221.392 57.6274 221.388C57.6274 221.384 57.6274 221.379 57.6274 221.375C57.6274 221.371 57.6274 221.366 57.6274 221.362C57.6274 221.357 57.6274 221.353 57.6274 221.348C57.6274 221.343 57.6274 221.339 57.6274 221.334C57.6274 221.329 57.6274 221.324 57.6274 221.319C57.6274 221.314 57.6274 221.308 57.6274 221.303C57.6274 221.298 57.6274 221.292 57.6274 221.287C57.6274 221.281 57.6274 221.276 57.6274 221.27C57.6274 221.264 57.6274 221.259 57.6274 221.253C57.6274 221.247 57.6274 221.241 57.6274 221.235C57.6274 221.229 57.6274 221.222 57.6274 221.216C57.6274 221.21 57.6274 221.203 57.6274 221.197C57.6274 221.19 57.6274 221.184 57.6274 221.177C57.6274 221.17 57.6274 221.164 57.6274 221.157C57.6274 221.15 57.6274 221.143 57.6274 221.136C57.6274 221.129 57.6274 221.122 57.6274 221.114C57.6274 221.107 57.6274 221.1 57.6274 221.092C57.6274 221.085 57.6274 221.077 57.6274 221.07C57.6274 221.062 57.6274 221.054 57.6274 221.047C57.6274 221.039 57.6274 221.031 57.6274 221.023C57.6274 221.015 57.6274 221.007 57.6274 220.999C57.6274 220.99 57.6274 220.982 57.6274 220.974C57.6274 220.965 57.6274 220.957 57.6274 220.948C57.6274 220.94 57.6274 220.931 57.6274 220.923C57.6274 220.914 57.6274 220.905 57.6274 220.896C57.6274 220.887 57.6274 220.878 57.6274 220.869C57.6274 220.86 57.6274 220.851 57.6274 220.842C57.6274 220.832 57.6274 220.823 57.6274 220.814C57.6274 220.804 57.6274 220.795 57.6274 220.785C57.6274 220.775 57.6274 220.766 57.6274 220.756C57.6274 220.746 57.6274 220.736 57.6274 220.726C57.6274 220.716 57.6274 220.706 57.6274 220.696C57.6274 220.686 57.6274 220.676 57.6274 220.666C57.6274 220.655 57.6274 220.645 57.6274 220.634C57.6274 220.624 57.6274 220.613 57.6274 220.603C57.6274 220.592 57.6274 220.581 57.6274 220.571C57.6274 220.56 57.6274 220.549 57.6274 220.538C57.6274 220.527 57.6274 220.516 57.6274 220.505C57.6274 220.494 57.6274 220.482 57.6274 220.471C57.6274 220.46 57.6274 220.448 57.6274 220.437C57.6274 220.426 57.6274 220.414 57.6274 220.402C57.6274 220.391 57.6274 220.379 57.6274 220.367C57.6274 220.356 57.6274 220.344 57.6274 220.332C57.6274 220.32 57.6274 220.308 57.6274 220.296C57.6274 220.284 57.6274 220.271 57.6274 220.259C57.6274 220.247 57.6274 220.235 57.6274 220.222C57.6274 220.21 57.6274 220.197 57.6274 220.185C57.6274 220.172 57.6274 220.16 57.6274 220.147C57.6274 220.134 57.6274 220.121 57.6274 220.108C57.6274 220.096 57.6274 220.083 57.6274 220.07C57.6274 220.057 57.6274 220.044 57.6274 220.03C57.6274 220.017 57.6274 220.004 57.6274 219.991C57.6274 219.977 57.6274 219.964 57.6274 219.951C57.6274 219.937 57.6274 219.924 57.6274 219.91C57.6274 219.896 57.6274 219.883 57.6274 219.869C57.6274 219.855 57.6274 219.841 57.6274 219.827C57.6274 219.814 57.6274 219.8 57.6274 219.786C57.6274 219.772 57.6274 219.757 57.6274 219.743C57.6274 219.729 57.6274 219.715 57.6274 219.701C57.6274 219.686 57.6274 219.672 57.6274 219.657C57.6274 219.643 57.6274 219.628 57.6274 219.614C57.6274 219.599 57.6274 219.585 57.6274 219.57C57.6274 219.555 57.6274 219.54 57.6274 219.525C57.6274 219.511 57.6274 219.496 57.6274 219.481C57.6274 219.466 57.6274 219.451 57.6274 219.435C57.6274 219.42 57.6274 219.405 57.6274 219.39C57.6274 219.375 57.6274 219.359 57.6274 219.344C57.6274 219.328 57.6274 219.313 57.6274 219.297C57.6274 219.282 57.6274 219.266 57.6274 219.251C57.6274 219.235 57.6274 219.219 57.6274 219.203C57.6274 219.188 57.6274 219.172 57.6274 219.156C57.6274 219.14 57.6274 219.124 57.6274 219.108C57.6274 219.092 57.6274 219.076 57.6274 219.06C57.6274 219.044 57.6274 219.027 57.6274 219.011C57.6274 218.995 57.6274 218.978 57.6274 218.962C57.6274 218.946 57.6274 218.929 57.6274 218.913C57.6274 218.896 57.6274 218.88 57.6274 218.863C57.6274 218.846 57.6274 218.83 57.6274 218.813C57.6274 218.796 57.6274 218.779 57.6274 218.762C57.6274 218.745 57.6274 218.729 57.6274 218.712C57.6274 218.695 57.6274 218.677 57.6274 218.66C57.6274 218.643 57.6274 218.626 57.6274 218.609C57.6274 218.592 57.6274 218.574 57.6274 218.557C57.6274 218.54 57.6274 218.522 57.6274 218.505C57.6274 218.487 57.6274 218.47 57.6274 218.452C57.6274 218.435 57.6274 218.417 57.6274 218.399C57.6274 218.382 57.6274 218.364 57.6274 218.346C57.6274 218.329 57.6274 218.311 57.6274 218.293C57.6274 218.275 57.6274 218.257 57.6274 218.239C57.6274 218.221 57.6274 218.203 57.6274 218.185C57.6274 218.167 57.6274 218.149 57.6274 218.13C57.6274 218.112 57.6274 218.094 57.6274 218.076C57.6274 218.057 57.6274 218.039 57.6274 218.021C57.6274 218.002 57.6274 217.984 57.6274 217.965C57.6274 217.947 57.6274 217.928 57.6274 217.91C57.6274 217.891 57.6274 217.872 57.6274 217.854C57.6274 217.835 57.6274 217.816 57.6274 217.797C57.6274 217.779 57.6274 217.76 57.6274 217.741C57.6274 217.722 57.6274 217.703 57.6274 217.684C57.6274 217.665 57.6274 217.646 57.6274 217.627C57.6274 217.608 57.6274 217.589 57.6274 217.57C57.6274 217.551 57.6274 217.531 57.6274 217.512C57.6274 217.493 57.6274 217.473 57.6274 217.454C57.6274 217.435 57.6274 217.415 57.6274 217.396C57.6274 217.377 57.6274 217.357 57.6274 217.337C57.6274 217.318 57.6274 217.298 57.6274 217.279C57.6274 217.259 57.6274 217.24 57.6274 217.22C57.6274 217.2 57.6274 217.18 57.6274 217.161C57.6274 217.141 57.6274 217.121 57.6274 217.101C57.6274 217.081 57.6274 217.061 57.6274 217.041C57.6274 217.021 57.6274 217.002 57.6274 216.981C57.6274 216.961 57.6274 216.941 57.6274 216.921C57.6274 216.901 57.6274 216.881 57.6274 216.861C57.6274 216.841 57.6274 216.82 57.6274 216.8C57.6274 216.78 57.6274 216.76 57.6274 216.739C57.6274 216.719 57.6274 216.699 57.6274 216.678C57.6274 216.658 57.6274 216.637 57.6274 216.617C57.6274 216.596 57.6274 216.576 57.6274 216.555C57.6274 216.535 57.6274 216.514 57.6274 216.493C57.6274 216.473 57.6274 216.452 57.6274 216.432C57.6274 216.411 57.6274 216.39 57.6274 216.369C57.6274 216.349 57.6274 216.328 57.6274 216.307C57.6274 216.286 57.6274 216.265 57.6274 216.244C57.6274 216.223 57.6274 216.202 57.6274 216.181C57.6274 216.161 57.6274 216.14 57.6274 216.118C57.6274 216.097 57.6274 216.076 57.6274 216.055C57.6274 216.034 57.6274 216.013 57.6274 215.992C57.6274 215.971 57.6274 215.95 57.6274 215.928C57.6274 215.907 57.6274 215.886 57.6274 215.865C57.6274 215.843 57.6274 215.822 57.6274 215.801C57.6274 215.779 57.6274 215.758 57.6274 215.737C57.6274 215.715 57.6274 215.694 57.6274 215.672C57.6274 215.651 57.6274 215.629 57.6274 215.608C57.6274 215.586 57.6274 215.565 57.6274 215.543C57.6274 215.522 57.6274 215.5 57.6274 215.479C57.6274 215.457 57.6274 215.435 57.6274 215.414C57.6274 215.392 57.6274 215.37 57.6274 215.349C57.6274 215.327 57.6274 215.305 57.6274 215.283C57.6274 215.262 57.6274 215.24 57.6274 215.218C57.6274 215.196 57.6274 215.174 57.6274 215.152C57.6274 215.131 57.6274 215.109 57.6274 215.087C57.6274 215.065 57.6274 215.043 57.6274 215.021C57.6274 214.999 57.6274 214.977 57.6274 214.955C57.6274 214.933 57.6274 214.911 57.6274 214.889C57.6274 214.867 57.6274 214.845 57.6274 214.823C57.6274 214.801 57.6274 214.779 57.6274 214.757C57.6274 214.734 57.6274 214.712 57.6274 214.69C57.6274 214.668 57.6274 214.646 57.6274 214.624C57.6274 214.601 57.6274 214.579 57.6274 214.557C57.6274 214.535 57.6274 214.512 57.6274 214.49C57.6274 214.468 57.6274 214.446 57.6274 214.423C57.6274 214.401 57.6274 214.379 57.6274 214.356C57.6274 214.334 57.6274 214.312 57.6274 214.289C57.6274 214.267 57.6274 214.245 57.6274 214.222C57.6274 214.2 57.6274 214.177 57.6274 214.155C57.6274 214.132 57.6274 214.11 57.6274 214.088C57.6274 214.065 57.6274 214.043 57.6274 214.02C57.6274 213.998 57.6274 213.975 57.6274 213.953C57.6274 213.93 57.6274 213.908 57.6274 213.885C57.6274 213.862 57.6274 213.84 57.6274 213.817C57.6274 213.795 57.6274 213.772 57.6274 213.75C57.6274 213.727 57.6274 213.704 57.6274 213.682C57.6274 213.659 57.6274 213.637 57.6274 213.614C57.6274 213.591 57.6274 213.569 57.6274 213.546C57.6274 213.523 57.6274 213.501 57.6274 213.478C57.6274 213.455 57.6274 213.433 57.6274 213.41C57.6274 213.387 57.6274 213.365 57.6274 213.342C57.6274 213.319 57.6274 213.297 57.6274 213.274C57.6274 213.251 57.6274 213.228 57.6274 213.206C57.6274 213.183 57.6274 213.16 57.6274 213.137C57.6274 213.115 57.6274 213.092 57.6274 213.069C57.6274 213.046 57.6274 213.024 57.6274 213.001C57.6274 212.978 57.6274 212.955 57.6274 212.933C57.6274 212.91 57.6274 212.887 57.6274 212.864C57.6274 212.841 57.6274 212.819 57.6274 212.796C57.6274 212.773 57.6274 212.75 57.6274 212.728C57.6274 212.705 57.6274 212.682 57.6274 212.659C57.6274 212.636 57.6274 212.614 57.6274 212.591C57.6274 212.568 57.6274 212.545 57.6274 212.522C57.6274 212.499 57.6274 212.477 57.6274 212.454C57.6274 212.431 57.6274 212.408 57.6274 212.385C57.6274 212.363 57.6274 212.34 57.6274 212.317C57.6274 212.294 57.6274 212.271 57.6274 212.249C57.6274 212.226 57.6274 212.203 57.6274 212.18C57.6274 212.157 57.6274 212.135 57.6274 212.112C57.6274 212.089 57.6274 212.066 57.6274 212.043C57.6274 212.021 57.6274 211.998 57.6274 211.975C57.6274 211.952 57.6274 211.929 57.6274 211.907C57.6274 211.884 57.6274 211.861 57.6274 211.838C57.6274 211.816 57.6274 211.793 57.6274 211.77C57.6274 211.747 57.6274 211.725 57.6274 211.702C57.6274 211.679 57.6274 211.656 57.6274 211.634C57.6274 211.611 57.6274 211.588 57.6274 211.565C57.6274 211.543 57.6274 211.52 57.6274 211.497C57.6274 211.475 57.6274 211.452 57.6274 211.429C57.6274 211.406 57.6274 211.384 57.6274 211.361C57.6274 211.338 57.6274 211.316 57.6274 211.293C57.6274 211.27 57.6274 211.248 57.6274 211.225C57.6274 211.203 57.6274 211.18 57.6274 211.157C57.6274 211.135 57.6274 211.112 57.6274 211.089C57.6274 211.067 57.6274 211.044 57.6274 211.022C57.6274 210.999 57.6274 210.977 57.6274 210.954C57.6274 210.932 57.6274 210.909 57.6274 210.886C57.6274 210.864 57.6274 210.841 57.6274 210.819C57.6274 210.796 57.6274 210.774 57.6274 210.751C57.6274 210.729 57.6274 210.707 57.6274 210.684C57.6274 210.662 57.6274 210.639 57.6274 210.617C57.6274 210.594 57.6274 210.572 57.6274 210.55C57.6274 210.527 57.6274 210.505 57.6274 210.483C57.6274 210.46 57.6274 210.438 57.6274 210.416C57.6274 210.393 57.6274 210.371 57.6274 210.349C57.6274 210.326 57.6274 210.304 57.6274 210.282C57.6274 210.26 57.6274 210.237 57.6274 210.215C57.6274 210.193 57.6274 210.171 57.6274 210.149C57.6274 210.126 57.6274 210.104 57.6274 210.082C57.6274 210.06 57.6274 210.038 57.6274 210.016C57.6274 209.994 57.6274 209.972 57.6274 209.95C57.6274 209.928 57.6274 209.906 57.6274 209.884C57.6274 209.862 57.6274 209.84 57.6274 209.818C57.6274 209.796 57.6274 209.774 57.6274 209.752C57.6274 209.73 57.6274 209.708 57.6274 209.686C57.6274 209.664 57.6274 209.642 57.6274 209.621C57.6274 209.599 57.6274 209.577 57.6274 209.555C57.6274 209.533 57.6274 209.512 57.6274 209.49C57.6274 209.468 57.6274 209.446 57.6274 209.425C57.6274 209.403 57.6274 209.381 57.6274 209.36C57.6274 209.338 57.6274 209.317 57.6274 209.295C57.6274 209.273 57.6274 209.252 57.6274 209.23C57.6274 209.209 57.6274 209.187 57.6274 209.166C57.6274 209.144 57.6274 209.123 57.6274 209.102C57.6274 209.08 57.6274 209.059 57.6274 209.037C57.6274 209.016 57.6274 208.995 57.6274 208.973C57.6274 208.952 57.6274 208.931 57.6274 208.91C57.6274 208.888 57.6274 208.867 57.6274 208.846C57.6274 208.825 57.6274 208.804 57.6274 208.783C57.6274 208.761 57.6274 208.74 57.6274 208.719C57.6274 208.698 57.6274 208.677 57.6274 208.656C57.6274 208.635 57.6274 208.614 57.6274 208.593C57.6274 208.572 57.6274 208.552 57.6274 208.531C57.6274 208.51 57.6274 208.489 57.6274 208.468C57.6274 208.447 57.6274 208.427 57.6274 208.406C57.6274 208.385 57.6274 208.365 57.6274 208.344C57.6274 208.323 57.6274 208.303 57.6274 208.282C57.6274 208.262 57.6274 208.241 57.6274 208.22C57.6274 208.2 57.6274 208.179 57.6274 208.159C57.6274 208.139 57.6274 208.118 57.6274 208.098C57.6274 208.078 57.6274 208.057 57.6274 208.037C57.6274 208.017 57.6274 207.996 57.6274 207.976C57.6274 207.956 57.6274 207.936 57.6274 207.916C57.6274 207.896 57.6274 207.875 57.6274 207.855C57.6274 207.835 57.6274 207.815 57.6274 207.795C57.6274 207.775 57.6274 207.755 57.6274 207.736C57.6274 207.716 57.6274 207.696 57.6274 207.676C57.6274 207.656 57.6274 207.637 57.6274 207.617C57.6274 207.597 57.6274 207.577 57.6274 207.558C57.6274 207.538 57.6274 207.519 57.6274 207.499C57.6274 207.479 57.6274 207.46 57.6274 207.44C57.6274 207.421 57.6274 207.402 57.6274 207.382C57.6274 207.363 57.6274 207.343 57.6274 207.324C57.6274 207.305 57.6274 207.286 57.6274 207.266C57.6274 207.247 57.6274 207.228 57.6274 207.209C57.6274 207.19 57.6274 207.171 57.6274 207.152C57.6274 207.133 57.6274 207.114 57.6274 207.095C57.6274 207.076 57.6274 207.057 57.6274 207.038C57.6274 207.02 57.6274 207.001 57.6274 206.982C57.6274 206.963 57.6274 206.945 57.6274 206.926C57.6274 206.907 57.6274 206.889 57.6274 206.87C57.6274 206.852 57.6274 206.833 57.6274 206.815C57.6274 206.796 57.6274 206.778 57.6274 206.76C57.6274 206.741 57.6274 206.723 57.6274 206.705C57.6274 206.687 57.6274 206.668 57.6274 206.65C57.6274 206.632 57.6274 206.614 57.6274 206.596C57.6274 206.578 57.6274 206.56 57.6274 206.542C57.6274 206.524 57.6274 206.506 57.6274 206.489C57.6274 206.471 57.6274 206.453 57.6274 206.435C57.6274 206.418 57.6274 206.4 57.6274 206.382C57.6274 206.365 57.6274 206.347 57.6274 206.33C57.6274 206.312 57.6274 206.295 57.6274 206.278C57.6274 206.26 57.6274 206.243 57.6274 206.226C57.6274 206.208 57.6274 206.191 57.6274 206.174C57.6274 206.157 57.6274 206.14 57.6274 206.123C57.6274 206.106 57.6274 206.089 57.6274 206.072C57.6274 206.055 57.6274 206.038 57.6274 206.021C57.6274 206.004 57.6274 205.988 57.6274 205.971C57.6274 205.954 57.6274 205.938 57.6274 205.921C57.6274 205.905 57.6274 205.888 57.6274 205.872C57.6274 205.855 57.6274 205.839 57.6274 205.823C57.6274 205.806 57.6274 205.79 57.6274 205.774C57.6274 205.758 57.6274 205.742 57.6274 205.725C57.6274 205.709 57.6274 205.693 57.6274 205.677C57.6274 205.661 57.6274 205.646 57.6274 205.63C57.6274 205.614 57.6274 205.598 57.6274 205.582C57.6274 205.567 57.6274 205.551 57.6274 205.536C57.6274 205.52 57.6274 205.505 57.6274 205.489C57.6274 205.474 57.6274 205.458 57.6274 205.443C57.6274 205.428 57.6274 205.412 57.6274 205.397C57.6274 205.382 57.6274 205.367 57.6274 205.352C57.6274 205.337 57.6274 205.322 57.6274 205.307C57.6274 205.292 57.6274 205.277 57.6274 205.263C57.6274 205.248 57.6274 205.233 57.6274 205.218C57.6274 205.204 57.6274 205.189 57.6274 205.175C57.6274 205.16 57.6274 205.146 57.6274 205.131C57.6274 205.117 57.6274 205.103 57.6274 205.089C57.6274 205.074 57.6274 205.06 57.6274 205.046C57.6274 205.032 57.6274 205.018 57.6274 205.004C57.6274 204.99 57.6274 204.976 57.6274 204.963C57.6274 204.949 57.6274 204.935 57.6274 204.921C57.6274 204.908 57.6274 204.894 57.6274 204.881C57.6274 204.867 57.6274 204.854 57.6274 204.84C57.6274 204.827 57.6274 204.814 57.6274 204.801C57.6274 204.787 57.6274 204.774 57.6274 204.761C57.6274 204.748 57.6274 204.735 57.6274 204.722C57.6274 204.709 57.6274 204.696 57.6274 204.684C57.6274 204.671 57.6274 204.658 57.6274 204.646C57.6274 204.633 57.6274 204.621 57.6274 204.608C57.6274 204.596 57.6274 204.583 57.6274 204.571C57.6274 204.559 57.6274 204.546 57.6274 204.534C57.6274 204.522 57.6274 204.51 57.6274 204.498C57.6274 204.486 57.6274 204.474 57.6274 204.462C57.6274 204.451 57.6274 204.439 57.6274 204.427C57.6274 204.416 57.6274 204.404 57.6274 204.392C57.6274 204.381 57.6274 204.37 57.6274 204.358C57.6274 204.347 57.6274 204.336 57.6274 204.324C57.6274 204.313 57.6274 204.302 57.6274 204.291C57.6274 204.28 57.6274 204.269 57.6274 204.258C57.6274 204.247 57.6274 204.237 57.6274 204.226C57.6274 204.215 57.6274 204.205 57.6274 204.194C57.6274 204.184 57.6274 204.173 57.6274 204.163C57.6274 204.153 57.6274 204.142 57.6274 204.132C57.6274 204.122 57.6274 204.112 57.6274 204.102C57.6274 204.092 57.6274 204.082 57.6274 204.072C57.6274 204.062 57.6274 204.053 57.6274 204.043C57.6274 204.033 57.6274 204.024 57.6274 204.014C57.6274 204.005 57.6274 203.995 57.6274 203.986C57.6274 203.977 57.6274 203.967 57.6274 203.958C57.6274 203.949 57.6274 203.94 57.6274 203.931C57.6274 203.922 57.6274 203.913 57.6274 203.905C57.6274 203.896 57.6274 203.887 57.6274 203.878C57.6274 203.87 57.6274 203.861 57.6274 203.853C57.6274 203.845 57.6274 203.836 57.6274 203.828C57.6274 203.82 57.6274 203.812 57.6274 203.804C57.6274 203.796 57.6274 203.788 57.6274 203.78C57.6274 203.772 57.6274 203.764 57.6274 203.756C57.6274 203.749 57.6274 203.741 57.6274 203.734C57.6274 203.726 57.6274 203.719 57.6274 203.711C57.6274 203.704 57.6274 203.697 57.6274 203.69C57.6274 203.683 57.6274 203.676 57.6274 203.669C57.6274 203.662 57.6274 203.655 57.6274 203.648C57.6274 203.641 57.6274 203.635 57.6274 203.628C57.6274 203.622 57.6274 203.615 57.6274 203.609C57.6274 203.603 57.6274 203.596 57.6274 203.59C57.6274 203.584 57.6274 203.578 57.6274 203.572C57.6274 203.566 57.6274 203.56 57.6274 203.554C57.6274 203.549 57.6274 203.543 57.6274 203.537C57.6274 203.532 57.6274 203.526 57.6274 203.521C57.6274 203.516 57.6274 203.51 57.6274 203.505C57.6274 203.5 57.6274 203.495 57.6274 203.49C57.6274 203.485 57.6274 203.48 57.6274 203.476C57.6274 203.471 57.6274 203.466 57.6274 203.462C57.6274 203.457 57.6274 203.453 57.6274 203.448C57.6274 203.444 57.6274 203.44 57.6274 203.436C57.6274 203.431 57.6274 203.427 57.6274 203.423C57.6274 203.419 57.6274 203.416 57.6274 203.412C57.6274 203.408 57.6274 203.405 57.6274 203.401C57.6274 203.398 57.6274 203.394 57.6274 203.391C57.6274 203.388 57.6274 203.384 57.6274 203.381C57.6274 203.378 57.6274 203.375 57.6274 203.372C57.6274 203.369 57.6274 203.367 57.6274 203.364C57.6274 203.361 57.6274 203.359 57.6274 203.356C57.6274 203.354 57.6274 203.352 57.6274 203.349C57.6274 203.347 57.6274 203.345 57.6274 203.343C57.6274 203.341 57.6274 203.339 57.6274 203.337C57.6274 203.335 57.6274 203.334 57.6274 203.332C57.6274 203.331 57.6274 203.329 57.6274 203.328C57.6274 203.326 57.6274 203.325 57.6274 203.324C57.6274 203.323 57.6274 203.322 57.6274 203.321C57.6274 203.32 57.6274 203.319 57.6274 203.319C57.6274 203.318 57.6274 203.317 57.6274 203.317C57.6274 203.316 57.6274 203.316 57.6274 203.316C57.6274 203.316 57.6274 203.316 52.6274 203.316ZM56.9094 205.897C60.1088 200.59 62.0897 198.933 63.5455 198.45C64.8125 198.029 67.0701 198.074 72.2876 200.828L76.9565 191.985C71.3185 189.009 65.8002 187.164 60.3945 188.959C55.1774 190.691 51.5888 195.354 48.3454 200.734L56.9094 205.897ZM27.2587 179.603C26.2829 181.352 25.3252 182.409 24.2588 183.219C23.1253 184.081 21.6584 184.825 19.3926 185.707L23.0205 195.026C25.6076 194.019 28.0808 192.875 30.3086 191.182C32.6036 189.438 34.4287 187.276 35.9913 184.476L27.2587 179.603ZM19.3926 185.707C17.5901 186.409 14.5361 186.525 11.3228 186.247C9.8332 186.118 8.49914 185.923 7.5383 185.76C7.06041 185.679 6.68133 185.607 6.42906 185.557C6.30308 185.532 6.2092 185.512 6.15094 185.5C6.12183 185.494 6.10166 185.49 6.09087 185.487C6.08548 185.486 6.08244 185.485 6.08181 185.485C6.08149 185.485 6.08178 185.485 6.08267 185.485C6.08312 185.486 6.08372 185.486 6.08448 185.486C6.08485 185.486 6.08553 185.486 6.08572 185.486C6.08644 185.486 6.08719 185.486 5 190.367C3.91281 195.247 3.91364 195.247 3.91452 195.248C3.91486 195.248 3.91578 195.248 3.91647 195.248C3.91785 195.248 3.91939 195.249 3.92109 195.249C3.92448 195.25 3.92852 195.251 3.93318 195.252C3.9425 195.254 3.95433 195.256 3.96863 195.259C3.99721 195.266 4.03565 195.274 4.08347 195.284C4.17909 195.304 4.31243 195.332 4.47984 195.365C4.81434 195.432 5.28667 195.521 5.86734 195.619C7.02361 195.815 8.63525 196.051 10.46 196.209C13.8754 196.505 18.9247 196.621 23.0205 195.026L19.3926 185.707ZM5 164.469C6.85612 169.112 6.85518 169.113 6.85431 169.113C6.85413 169.113 6.85334 169.113 6.85297 169.113C6.85224 169.114 6.85181 169.114 6.8517 169.114C6.85148 169.114 6.8525 169.114 6.85474 169.113C6.85923 169.111 6.86863 169.107 6.88278 169.102C6.9111 169.091 6.95843 169.072 7.02367 169.047C7.15422 168.997 7.35609 168.921 7.62053 168.825C8.15018 168.633 8.92626 168.362 9.8793 168.061C11.8017 167.453 14.3671 166.745 17.0422 166.294C19.7723 165.833 22.314 165.692 24.304 166.013C26.2801 166.331 27.0639 166.978 27.4134 167.524L35.8367 162.135C33.3827 158.3 29.4366 156.711 25.8948 156.14C22.367 155.572 18.6029 155.889 15.3776 156.433C12.0973 156.987 9.05778 157.832 6.86405 158.526C5.75905 158.876 4.84929 159.193 4.20761 159.426C3.88638 159.542 3.63122 159.638 3.45115 159.707C3.36109 159.742 3.28971 159.769 3.23815 159.79C3.21236 159.8 3.19152 159.808 3.17577 159.814C3.16789 159.817 3.16128 159.82 3.15596 159.822C3.1533 159.823 3.15096 159.824 3.14895 159.825C3.14794 159.825 3.14667 159.826 3.14617 159.826C3.14498 159.826 3.14388 159.827 5 164.469ZM27.4134 167.524C28.7497 169.613 29.2386 171.496 29.2116 173.281C29.1837 175.115 28.6031 177.194 27.2587 179.603L35.9913 184.476C37.9213 181.017 39.1514 177.321 39.2104 173.432C39.2702 169.494 38.122 165.707 35.8367 162.135L27.4134 167.524Z" fill="#0400B5"/>
<path d="M132.585 194.528C113.987 223.056 141.096 258.411 111.78 241.465M93.6551 194.528C82.0574 199.008 78.5365 201.392 75.6874 205.5C72.4824 216.922 76.4913 219.909 93.6551 219.399C103.878 218.97 107.8 216.77 111.78 209.158C112.604 193.849 109.041 190.153 93.6551 194.528Z" stroke="#0400B5" stroke-width="10"/>
<path d="M155.712 207.075C142.964 217.396 178.012 213.621 179.58 207.075C181.147 200.529 176.432 191.675 164.391 192.935C150.439 195.848 150.695 205.097 149.082 219.644C147.958 233.811 166.32 238.236 171.624 229.987" stroke="#0400B5" stroke-width="10"/>
<path d="M222.359 188.048C205.605 189.181 202.486 191.384 201.629 209.019C200.773 226.654 206.303 232.46 222.359 232.056" stroke="#0400B5" stroke-width="10"/>
<path d="M241.891 176.609C259.366 215.533 228.321 250.886 252.17 250.167" stroke="#0400B5" stroke-width="10"/>
<path d="M264.506 209.019L233.667 213.944" stroke="#0400B5" stroke-width="10"/>
<path d="M306.673 213.027C294.386 199.263 273.908 224.841 275.956 231.419C278.004 237.997 304.966 240.921 306.673 242.382C308.379 243.843 316.423 251.219 282.099 256.999" stroke="#0400B5" stroke-width="10"/>
</svg>
