<svg width="190" height="510" viewBox="0 0 190 510" fill="none" xmlns="http://www.w3.org/2000/svg">
<path d="M124.841 4.25468C124.841 6.50566 124.841 8.75664 124.841 11.0076C124.841 15.0228 124.796 8.76158 124.665 7.78563C124.441 6.12289 123.589 4.71862 123.296 3.10712C123.256 2.88269 123.394 0.99376 122.855 1.20923C121.847 1.61254 122.458 7.62198 122.458 8.62423C122.458 10.8752 122.458 13.1262 122.458 15.3772C122.458 17.5755 121.284 12.9251 120.074 11.8021C119.53 11.2968 117.691 7.80665 117.691 9.19801C117.691 12.0081 118.786 17.2477 117.514 19.7909C115.651 23.5171 114.513 5.07509 114.513 13.9648C114.513 17.0187 113.719 20.0067 113.719 22.9246C113.719 26.007 110.513 17.5506 110.144 16.5247C109.039 13.4572 107.505 7.9277 105.156 5.57878C104.155 4.57813 104.788 8.55019 105.421 9.81593C106.737 12.4486 106.75 14.4792 107.54 17.1427C108.335 19.8278 107.363 20.8778 107.363 17.7606" stroke="#0400B5" stroke-width="2" stroke-linecap="round"/>
<path d="M96.2403 20.9384C96.2403 18.8379 95.0045 12.6587 95.0045 14.7592C95.0045 17.7541 97.8292 20.8193 97.8292 24.1162C97.8292 33.0233 89.6507 17.4276 88.6929 14.9799C87.701 12.445 87.2376 7.98491 87.5012 12.9937C87.6493 15.8078 89.0901 18.2192 89.0901 21.3356C89.0901 25.6455 86.5125 20.0801 86.0888 18.555C85.3753 15.9864 84.0913 11.247 81.5868 9.81588C80.196 9.02108 81.7671 13.4031 82.293 14.2296C84.013 16.9323 83.6512 20.8822 83.5289 23.9397C83.4074 26.9753 77.1732 16.4393 77.1732 16.9661C77.1732 18.454 79.6883 30.5388 74.7898 25.3521C73.0118 23.4695 73.5686 20.2195 71.965 18.1578C70.4378 16.1942 67.2949 16.3965 71.6119 18.555" stroke="#0400B5" stroke-width="2" stroke-linecap="round"/>
<path d="M87.5013 65.4284C87.5013 73.5965 83.8189 56.0691 83.5731 57.1748C82.9896 59.8007 83.529 63.1511 83.529 65.8256C83.529 69.6432 82.1547 72.9021 81.9401 76.5509C81.8016 78.9055 79.1177 72.4974 78.9388 71.9607C78.7689 71.4509 77.6055 67.1056 77.5705 67.1056C76.7805 67.1056 77.1733 73.0145 77.1733 73.7261C77.1733 76.0619 75.6718 76.3715 74.9664 73.991C74.0678 70.9579 74.173 66.2411 73.9954 63.045C73.8093 59.6941 72.4065 60.9048 72.4065 63.4422C72.4065 65.4284 72.4065 67.4146 72.4065 69.4007C72.4065 70.2093 71.0303 74.7057 70.8176 72.5786C70.4336 68.7388 70.3219 64.3514 69.2286 60.6616C68.6633 58.7535 66.8452 50.467 66.8452 56.7334C66.8452 59.2695 68.2789 70.67 66.0508 71.7841" stroke="#0400B5" stroke-width="2" stroke-linecap="round"/>
<path d="M100.213 64.634C100.213 69.7833 100.213 74.9326 100.213 80.0819C100.213 81.9287 101.112 74.2778 101.36 73.1082C102.301 68.6712 102.98 64.7781 104.979 60.6616C106.745 57.0263 106.568 59.526 106.568 62.2506C106.568 67.8693 108.952 73.0035 108.952 78.5371C108.952 80.2994 109.701 73.0011 109.746 71.7841C109.828 69.5799 109.969 62.5526 111.512 60.8382C112.865 59.3347 112.756 70.9721 112.968 72.1372C114.49 80.5052 115.952 66.5471 116.102 63.8395C116.233 61.487 117.691 64.6746 117.691 65.8257C117.691 67.6794 117.691 69.5332 117.691 71.3869C117.691 77.0092 121.213 67.4321 122.458 67.0174" stroke="#0400B5" stroke-width="2" stroke-linecap="round"/>
<path d="M93.0626 96.4126C93.0626 99.04 92.6795 116.595 90.8557 106.564C90.0445 102.102 89.0903 98.1056 89.0903 104.754C89.0903 106.848 89.2871 116.758 87.6779 109.918C87.0491 107.246 85.9124 100.197 85.9124 107.094C85.9124 108.573 84.4238 117.981 83.1318 113.847C81.7448 109.408 82.9508 104.732 81.3222 100.208C80.1894 97.0618 80.3512 107.708 80.3512 109.521C80.3512 110.67 79.5202 113.891 77.9678 113.891C75.8048 113.891 76.3788 110.56 76.3788 109.124" stroke="#0400B5" stroke-width="2" stroke-linecap="round"/>
<path d="M93.8569 137.725C93.8569 138.717 93.8569 144.765 93.8569 142.933C93.8569 139.882 94.5305 137.061 95.2693 134.105C97.212 126.335 98.6237 132.518 98.6237 136.93C98.6237 137.989 97.8776 142.981 98.6237 143.727C100.552 145.655 99.7967 138.306 101.184 135.959C101.547 135.344 104.899 130.033 105.597 132.517C106.079 134.23 105.774 136.384 105.774 138.166C105.774 145.635 110.541 123.521 110.541 130.575C110.541 132.451 109.41 141.771 111.777 142.447C114.817 143.316 113.713 131.424 116.455 132.208C117.86 132.609 116.385 139.455 119.28 140.903" stroke="#0400B5" stroke-width="2" stroke-linecap="round"/>
<path d="M101.802 175.859C101.802 174.765 101.091 180.606 99.5947 177.448C97.9312 173.936 99.2907 169.221 98.4472 165.531C97.2335 160.221 96.2403 165.715 96.2403 168.091C96.2403 171.857 96.2403 175.624 96.2403 179.39C96.2403 183.406 94.759 178.019 94.6073 176.654C94.5111 175.788 92.3626 168.715 92.268 171.269C92.1598 174.19 93.0563 177.97 91.6501 180.626C89.8648 183.998 89.0902 175.858 89.0902 175.109C89.0902 174.1 88.009 166.402 87.4571 169.989C86.9416 173.34 86.7562 178.778 83.9261 180.979C82.0836 182.412 82.7344 176.618 82.7344 175.462C82.7344 171.673 79.9213 177.856 79.5566 178.243C75.8581 182.159 77.1732 165.552 77.1732 177.051C77.1732 179.781 75.5843 180.577 75.5843 177.404C75.5843 175.072 76.3866 171.871 74.7898 175.065" stroke="#0400B5" stroke-width="2" stroke-linecap="round"/>
<path d="M113.719 191.748C113.719 208.427 114.537 186.54 112.748 186.54C111.749 186.54 112.05 199.887 111.733 201.282C111.407 202.712 110.541 213.399 110.541 207.196C110.541 204.689 110.233 202.569 109.79 200.134C109.559 198.861 108.249 197.128 108.157 199.516C108.028 202.875 108.157 206.262 108.157 209.624C108.157 211.485 107.451 210.331 107.319 209.138C106.962 205.929 106.568 202.946 106.568 199.693C106.568 191.238 106.568 199.521 106.568 203.224C106.568 210.632 104.185 206.831 104.185 201.679C104.185 200.209 102.809 190.147 102.596 195.897C102.477 199.11 102.596 202.347 102.596 205.563C102.596 207.533 101.095 201.838 101.007 199.869C100.961 198.84 100.61 194.22 99.0652 194.22C98.8556 194.22 97.0875 202.718 97.0349 203.665C96.802 207.857 94.6515 204.635 94.6515 201.767C94.6515 201.198 93.5128 198.713 93.1067 200.134C92.7921 201.236 93.441 202.617 92.886 203.665C90.9771 207.271 90.6792 202.706 90.6792 202.871" stroke="#0400B5" stroke-width="2" stroke-linecap="round"/>
<path d="M28.7108 78.14C20.7544 78.14 14.7408 71.3527 8.76095 66.9292C6.13229 64.9847 -1.76369 61.4767 4.5238 66.2672C7.47538 68.516 9.5395 71.7264 12.8215 73.5498C13.0778 73.6921 15.1048 75.6683 14.0132 75.6683C13.2212 75.6683 10.2696 73.0707 9.59955 72.5346C8.92821 71.9975 1.28204 66.9285 1.74318 69.0037C2.32914 71.6405 8.37526 74.7053 10.4381 76.5511C12.5659 78.4548 7.49992 74.1659 6.11273 73.3732C5.23485 72.8716 8.70718 77.2035 9.64368 78.14" stroke="#0400B5" stroke-width="2" stroke-linecap="round"/>
<path d="M48.5725 121.041C50.3919 121.041 54.3044 125.291 53.2952 123.777C51.7364 121.439 48.2459 119.125 46.1891 117.069C43.7359 114.615 40.8199 112.265 38.6858 109.521C37.3042 107.745 41.3819 115.468 42.2168 116.627C44.0141 119.123 46.1581 121.476 47.6015 124.219C48.7966 126.489 41.0725 119.844 39.8334 118.834C37.8909 117.251 30.9036 112.764 35.8611 117.863C38.1453 120.213 39.9915 122.788 42.2168 125.013" stroke="#0400B5" stroke-width="2" stroke-linecap="round"/>
<path d="M63.6675 164.736C63.6675 165.834 63.9184 171.981 63.6234 169.768C63.1852 166.482 61.2841 156.787 61.2841 160.102C61.2841 163.883 61.2841 167.664 61.2841 171.445C61.2841 178.878 58.9139 170.683 58.1062 167.738C57.0289 163.808 53.3395 152.408 53.3395 156.483C53.3395 160.472 54.1339 164.382 54.1339 168.311C54.1339 170.675 54.007 165.465 53.9574 165.089C53.651 162.775 52.7791 160.389 51.574 158.381C51.0273 157.469 51.7505 164.61 51.7505 165.531" stroke="#0400B5" stroke-width="2" stroke-linecap="round"/>
<path d="M156.848 12.15C159.334 12.2301 161.84 13.7484 164.156 13.7373C164.953 13.7335 167.729 14.4644 168.219 15.0699C169.301 16.4102 173.587 18.3729 175.266 18.5513C177.919 18.8332 180.284 21.7721 183.123 21.7585C185.012 21.7494 190.773 24.2704 186.113 24.9589C184.685 25.1699 183.11 25.0034 181.666 25.0103C179.548 25.0205 178.28 25.575 176.263 25.9977C172.318 26.8243 167.949 27.7802 163.953 27.7994C162.116 27.8082 160.529 28.3566 158.668 28.3655C154.705 28.3845 156.978 28.4227 159.635 29.5627C163.835 31.3646 169.572 29.5504 174.123 30.8752C175.062 31.1486 183.923 31.9385 183.925 32.3304C183.933 34.0915 177.048 33.6854 175.879 33.691C173.148 33.7041 169.921 35.2959 167.238 36.0159C165.595 36.4566 163.933 36.6243 162.406 37.301C160.903 37.9672 156.205 39.1935 157.849 39.1857C159.946 39.1756 162.638 41.1795 164.891 41.5855C167.681 42.0883 171.232 43.4479 174.033 43.4345C177.93 43.4158 181.381 44.7876 185.127 45.0037C185.177 45.0065 182.306 46.2534 181.349 46.5241C178.473 47.3378 175.676 47.7531 172.702 47.7673C169.941 47.7806 166.684 48.9192 164.331 50.2412C163.617 50.6426 161.011 50.6944 162.173 51.3331C164.042 52.3596 166.311 52.6653 168.399 52.6553C169.981 52.6477 171.564 52.6401 173.146 52.6325C175.176 52.6228 177.832 52.2586 174.776 54.1269C172.222 55.6878 169.729 57.2897 167.62 59.4191C165.077 61.9873 166.867 61.0571 169.226 62.1155C171.075 62.9453 173.5 64.959 175.489 65.0599C178.673 65.2215 175.858 67.4635 174.422 68.1897C172.179 69.3248 169.398 70.4972 166.862 70.5094C165.851 70.5142 161.843 70.041 164.519 70.6408C167.182 71.2375 169.575 72.6654 172.253 73.1876C173.662 73.4623 175.274 73.5067 176.613 73.9779C177.56 74.3109 180.755 76.1875 178.669 76.672C171.53 78.3307 164.816 80.5064 157.787 82.6911C156.244 83.1708 154.807 83.5467 153.194 83.5544C151.982 83.5602 155.618 83.5428 156.83 83.537C158.243 83.5302 160.037 83.2394 161.397 83.6352C164.858 84.6428 168.269 84.1616 171.797 84.6669C176.25 85.3047 179.62 86.6725 184.246 86.6503C184.54 86.6489 186.853 86.5229 185.478 86.6744C183.006 86.9465 180.823 88.383 178.367 88.8417C175.013 89.4683 171.341 90.3919 168.044 91.3249C164.924 92.2076 161.47 92.146 158.316 92.8438C155.267 93.5184 160.33 93.5675 161.566 93.9098C166.862 95.3761 170.296 99.6908 175.066 102.047C176.973 102.989 178.547 102.648 180.538 102.922C185.245 103.572 178.105 102.367 176.779 102.129C172.669 101.393 168.259 101.87 164.098 101.89C162.905 101.895 160.532 101.381 159.715 102.482C155.598 108.026 164.427 110.859 168.264 112.145C171.323 113.17 176.44 113.277 179.5 111.971C181.275 111.214 187.133 110.973 185.204 110.982C179.264 111.011 173.536 113.201 167.548 113.23C165.003 113.242 161.363 113.103 159.201 114.352C156.779 115.751 159.859 121.004 160.622 122.427C162.889 126.66 165.409 128.383 170.265 128.36C173.149 128.346 176.033 128.332 178.917 128.318C183.883 128.294 174.775 128.82 173.393 129.156C170.322 129.903 167.608 130.536 164.416 130.551C162.483 130.56 160.551 130.57 158.618 130.579C155.818 130.592 156.854 131.791 158.332 133.645C159.206 134.741 161.784 138.496 163.404 138.668C164.975 138.835 166.455 138.806 168.033 139.187C170.147 139.697 175.15 141.229 176.286 143.474C177.69 146.249 174.911 146.911 172.343 148.24C168.525 150.215 163.669 152.046 160.568 155.176C158.111 157.658 169.366 158.683 171.072 158.912C175.55 159.512 179.977 158.203 183.881 160.863C184.902 161.56 188.297 162.778 188.823 163.964C189.043 164.46 182.034 165.54 181.26 165.743C173.032 167.903 164.613 169.984 157.387 174.631C156.336 175.307 155.852 175.303 157.422 175.772C159.898 176.513 162.229 177.677 164.706 178.381C170.977 180.164 176.934 180.177 183.144 182.589C184.845 183.25 185.445 183.423 183.452 184.24C180.174 185.585 176.791 186.57 173.494 187.833C171.871 188.456 169.685 189.92 167.977 190.023C165.079 190.198 163.035 191.128 160.14 191.142C158.688 191.149 157.455 191.696 156.087 191.703C152.14 191.721 158.356 193.501 159.343 193.97C162.948 195.685 165.832 197.959 169.643 199.209C173.056 200.328 176.437 201.637 179.816 202.825C180.571 203.091 188.001 205.495 188.005 206.422C188.005 206.438 169.493 211.687 168.173 212.165C164.992 213.318 161.919 214.726 158.787 215.996C157.274 216.61 161.099 217.821 161.38 217.906C167.786 219.861 173.932 222.523 180.34 224.455C181.47 224.796 185.017 224.996 185.875 225.751C186.082 225.934 182.333 227.556 181.978 227.692C175.144 230.329 167.877 232.885 160.613 233.323C157.834 233.491 166.337 236.962 167.092 237.318C171.566 239.427 176.062 239.125 180.627 240.528C181.214 240.708 184.257 241.575 184.212 242.404C184.138 243.773 176.2 247.622 174.746 248.398C171.79 249.976 169.334 251.689 166.962 254.084C164.637 256.431 171.66 253.869 173.059 253.574C176.122 252.928 179.461 253.243 182.581 253.228C183.75 253.222 187.239 252.662 185.14 254.177C175.554 261.093 165.925 263.583 154.269 263.639C151.302 263.653 156.55 267.633 157.896 268.188C162.379 270.04 166.997 270.373 171.613 271.668C175.361 272.719 178.433 274.298 181.88 276.216C182.844 276.751 184.503 277.791 185.465 278.061C186.949 278.478 186.549 279.033 185.021 279.445C181.111 280.5 177.401 281.489 173.62 282.985C170.654 284.159 167.675 285.226 164.926 286.873C162.952 288.055 158.449 289.624 162.328 290.22C166.823 290.912 171.1 292.613 175.623 293.281C179.147 293.801 182.652 293.788 186.201 293.771C186.607 293.769 188.288 293.483 188.456 294.061C188.554 294.398 189.148 295.23 188.732 295.351C184.91 296.463 181.345 297.781 177.725 299.43C173.634 301.295 169.373 302.707 165.525 305.227C165.118 305.494 162.331 307.103 163.132 307.522C164.737 308.362 166.786 308.446 168.545 308.458C172.784 308.486 176.983 308.024 181.101 307.857C181.717 307.832 186.947 308.936 184.656 309.883C175.682 313.589 166.077 318.745 156.156 318.793C154.932 318.798 152.041 318.746 154.327 319.613C159.877 321.717 166.133 319.75 171.29 323.377C176.11 326.766 179.069 332.319 183.819 335.846C184.103 336.057 186.831 337.319 186.831 337.454C186.832 337.67 183.491 336.17 183.159 335.969C178.929 333.405 174.303 333.399 169.858 331.706C166.585 330.46 165.926 328.598 162.705 331.2" stroke="#0400B5" stroke-width="2" stroke-linecap="round"/>
<path d="M162.7 330.118C159.481 330.303 155.677 331.639 155.693 335.019C155.71 338.666 155.347 339.985 157.892 342.58C159.846 344.571 162.26 348.869 165.495 349.033C167.797 349.15 170.191 349.215 172.261 350.353C174.049 351.335 176.781 351.814 178.76 352.244C183.506 353.275 173.659 354.965 172.975 355.066C169.544 355.573 166.516 355.96 163.065 356.075C160.275 356.168 160.301 356.865 160.706 359.031C161.538 363.486 167.926 365.787 171.794 365.768C174.123 365.757 176.596 366.926 178.862 367.327C180.76 367.662 186.254 367.698 184.517 368.531C178.837 371.255 172.728 369.275 167.529 372.278C164.083 374.269 159.679 376.764 159.699 380.969C159.711 383.42 163.419 384.634 165.131 385.93C167.096 387.418 169.223 390.066 171.881 390.104C172.707 390.116 183.299 390.309 183.306 391.672C183.306 391.708 181.326 393.385 181.121 393.545C180.068 394.372 177.561 393.863 176.346 393.868C173.767 393.881 168.089 392.957 166.257 395.269C165.038 396.808 161.873 397.876 160.206 398.933C159.808 399.186 153.378 403.526 156.563 403.698C158.441 403.799 160.362 403.68 162.242 403.671C164.225 403.661 166.208 403.652 168.19 403.642C171.19 403.628 176.002 402.575 178.737 403.712C181.862 405.01 179.081 405.292 176.705 406.185C174.33 407.078 171.761 408.244 169.813 409.854C166.444 412.637 158.853 415.116 164.215 420.426C166.152 422.345 168.389 423.352 169.769 425.808C170.659 427.391 172.756 427.831 174.259 428.49C177.448 429.89 180.901 429.158 184.031 430.036C187.639 431.048 184.624 430.604 182.141 430.616C178.342 430.634 174.641 433.146 170.767 433.374C167.484 433.568 164.299 435.028 161.04 435.043C160.537 435.046 159.183 435.795 160.264 436.099C161.185 436.357 162.505 436.118 163.449 436.113C164.838 436.107 170.29 435.452 170.721 436.409C171.865 438.95 172.788 442.387 176.219 442.542C178.062 442.625 180.452 444.339 182.18 445.097C183.598 445.719 185.355 446.179 186.935 446.697C187.56 446.902 181.967 448.491 180.905 448.709C178.891 449.122 176.692 449.57 174.63 449.58C170.576 449.599 167.107 451.096 163.348 452.579C160.322 453.772 155.144 456.398 157.918 460.597C160.984 465.237 164.35 467.731 169.826 469.072C175.32 470.418 180.827 469.019 186.291 468.993C187.837 468.986 183.249 469.566 181.759 469.976C180.579 470.301 179.718 470.647 178.487 470.653C175.868 470.666 173.075 470.918 170.833 472.312C168.449 473.795 168.638 474.78 168.816 477.73C168.96 480.108 172.277 479.877 173.904 479.869C175.336 479.862 171.04 479.883 169.608 479.889C167.454 479.9 166.594 480.061 165.049 481.534C163.246 483.253 164.467 486.039 162.796 487.914C160.835 490.115 162.519 491.949 164.804 493.132C169.502 495.564 174.46 497.713 179.728 497.688C180.668 497.683 185.114 497.958 184.778 498.084C181.011 499.5 176.491 500.304 172.503 500.937C170.546 501.248 168.166 502.083 166.536 503.429C165.174 504.555 165.712 506.964 165.72 508.571" stroke="#0400B5" stroke-width="2" stroke-linecap="round"/>
</svg>
