<svg width="37" height="482" viewBox="0 0 37 482" fill="none" xmlns="http://www.w3.org/2000/svg">
<path d="M33 1.5L4.5 9L33 19L4.5 37H33L4.5 46.5H33L4.5 56H33L4.5 64.5L33 72L4.5 86.5L33 95L4.5 107L33 123L4.5 132.5L33 143.5L4.5 151H33L4.5 161.5L33 168L4.5 179L33 188L4.5 195L33 199L4.5 207.5L33 224L4.5 233.5L33 240.5L4.5 247.5L33 256.5H4.5L33 264.5L4.5 271L33 278.5H4.5L33 286.5L4.5 290.5L33 297L4.5 305.5L33 314.5L4.5 320.5L33 331L4.5 343.5L33 351.5L4.5 361.5L33 367.5L4.5 373L33 384L4.5 388L33 397.5L4.5 406L33 414L4.5 424L33 432L4.5 440.5L33 448.5L4.5 452.5L33 459L4.5 463.5L33 476.5L4.5 480.5L33 452.5L4.5 432L33 420.5L4.5 397.5L33 373L4.5 331L33 290.5L4.5 264.5L33 233.5L4.5 199L33 157L4.5 118.5L33 82L4.5 52L33 27.5L4.5 1.5" stroke="#0400B5" stroke-width="2"/>
</svg>
