<svg width="190" height="1100" viewBox="0 0 190 900" fill="none" xmlns="http://www.w3.org/2000/svg">
<path d="M124.841 131.255C124.841 133.506 124.841 135.757 124.841 138.008C124.841 142.023 124.796 135.762 124.665 134.786C124.441 133.123 123.589 131.719 123.296 130.107C123.256 129.883 123.394 127.994 122.855 128.209C121.847 128.613 122.458 134.622 122.458 135.624C122.458 137.875 122.458 140.126 122.458 142.377C122.458 144.576 121.284 139.925 120.074 138.802C119.53 138.297 117.691 134.807 117.691 136.198C117.691 139.008 118.786 144.248 117.514 146.791C115.651 150.517 114.513 132.075 114.513 140.965C114.513 144.019 113.719 147.007 113.719 149.925C113.719 153.007 110.513 144.551 110.144 143.525C109.039 140.457 107.505 134.928 105.156 132.579C104.155 131.578 104.788 135.55 105.421 136.816C106.737 139.449 106.75 141.479 107.54 144.143C108.335 146.828 107.363 147.878 107.363 144.761" stroke="#0400B5" stroke-width="2" stroke-linecap="round"/>
<path d="M96.2403 147.938C96.2403 145.838 95.0045 139.659 95.0045 141.759C95.0045 144.754 97.8292 147.819 97.8292 151.116C97.8292 160.023 89.6507 144.428 88.6929 141.98C87.701 139.445 87.2376 134.985 87.5012 139.994C87.6493 142.808 89.0901 145.219 89.0901 148.336C89.0901 152.646 86.5125 147.08 86.0888 145.555C85.3753 142.986 84.0913 138.247 81.5868 136.816C80.196 136.021 81.7671 140.403 82.293 141.23C84.013 143.932 83.6512 147.882 83.5289 150.94C83.4074 153.975 77.1732 143.439 77.1732 143.966C77.1732 145.454 79.6883 157.539 74.7898 152.352C73.0118 150.47 73.5686 147.22 71.965 145.158C70.4378 143.194 67.2949 143.396 71.6119 145.555" stroke="#0400B5" stroke-width="2" stroke-linecap="round"/>
<path d="M87.5013 192.428C87.5013 200.597 83.8189 183.069 83.5731 184.175C82.9896 186.801 83.529 190.151 83.529 192.826C83.529 196.643 82.1547 199.902 81.9401 203.551C81.8016 205.905 79.1177 199.497 78.9388 198.961C78.7689 198.451 77.6055 194.106 77.5705 194.106C76.7805 194.106 77.1733 200.014 77.1733 200.726C77.1733 203.062 75.6718 203.372 74.9664 200.991C74.0678 197.958 74.173 193.241 73.9954 190.045C73.8093 186.694 72.4065 187.905 72.4065 190.442C72.4065 192.428 72.4065 194.415 72.4065 196.401C72.4065 197.209 71.0303 201.706 70.8176 199.579C70.4336 195.739 70.3219 191.351 69.2286 187.662C68.6633 185.754 66.8452 177.467 66.8452 183.733C66.8452 186.269 68.2789 197.67 66.0508 198.784" stroke="#0400B5" stroke-width="2" stroke-linecap="round"/>
<path d="M100.213 191.634C100.213 196.783 100.213 201.933 100.213 207.082C100.213 208.929 101.112 201.278 101.36 200.108C102.301 195.671 102.98 191.778 104.979 187.662C106.745 184.026 106.568 186.526 106.568 189.251C106.568 194.869 108.952 200.003 108.952 205.537C108.952 207.299 109.701 200.001 109.746 198.784C109.828 196.58 109.969 189.553 111.512 187.838C112.865 186.335 112.756 197.972 112.968 199.137C114.49 207.505 115.952 193.547 116.102 190.839C116.233 188.487 117.691 191.675 117.691 192.826C117.691 194.679 117.691 196.533 117.691 198.387C117.691 204.009 121.213 194.432 122.458 194.017" stroke="#0400B5" stroke-width="2" stroke-linecap="round"/>
<path d="M93.0626 223.413C93.0626 226.04 92.6795 243.595 90.8557 233.564C90.0445 229.102 89.0903 225.106 89.0903 231.754C89.0903 233.848 89.2871 243.758 87.6779 236.918C87.0491 234.246 85.9124 227.197 85.9124 234.094C85.9124 235.573 84.4238 244.981 83.1318 240.847C81.7448 236.408 82.9508 231.732 81.3222 227.208C80.1894 224.062 80.3512 234.708 80.3512 236.521C80.3512 237.67 79.5202 240.891 77.9678 240.891C75.8048 240.891 76.3788 237.56 76.3788 236.124" stroke="#0400B5" stroke-width="2" stroke-linecap="round"/>
<path d="M93.8569 264.725C93.8569 265.717 93.8569 271.765 93.8569 269.933C93.8569 266.882 94.5305 264.061 95.2693 261.105C97.212 253.335 98.6237 259.518 98.6237 263.93C98.6237 264.989 97.8776 269.981 98.6237 270.727C100.552 272.655 99.7967 265.306 101.184 262.959C101.547 262.344 104.899 257.033 105.597 259.517C106.079 261.23 105.774 263.384 105.774 265.166C105.774 272.635 110.541 250.521 110.541 257.575C110.541 259.451 109.41 268.771 111.777 269.447C114.817 270.316 113.713 258.424 116.455 259.208C117.86 259.609 116.385 266.455 119.28 267.903" stroke="#0400B5" stroke-width="2" stroke-linecap="round"/>
<path d="M101.802 302.859C101.802 301.765 101.091 307.606 99.5947 304.448C97.9312 300.936 99.2907 296.221 98.4472 292.531C97.2335 287.221 96.2403 292.715 96.2403 295.091C96.2403 298.857 96.2403 302.624 96.2403 306.39C96.2403 310.406 94.759 305.019 94.6073 303.654C94.5111 302.788 92.3626 295.715 92.268 298.269C92.1598 301.19 93.0563 304.97 91.6501 307.626C89.8648 310.998 89.0902 302.858 89.0902 302.109C89.0902 301.1 88.009 293.402 87.4571 296.989C86.9416 300.34 86.7562 305.778 83.9261 307.979C82.0836 309.412 82.7344 303.618 82.7344 302.462C82.7344 298.673 79.9213 304.856 79.5566 305.243C75.8581 309.159 77.1732 292.552 77.1732 304.051C77.1732 306.781 75.5843 307.577 75.5843 304.404C75.5843 302.072 76.3866 298.871 74.7898 302.065" stroke="#0400B5" stroke-width="2" stroke-linecap="round"/>
<path d="M113.719 318.748C113.719 335.427 114.537 313.54 112.748 313.54C111.749 313.54 112.05 326.887 111.733 328.282C111.407 329.712 110.541 340.399 110.541 334.196C110.541 331.689 110.233 329.569 109.79 327.134C109.559 325.861 108.249 324.128 108.157 326.516C108.028 329.875 108.157 333.262 108.157 336.624C108.157 338.485 107.451 337.331 107.319 336.138C106.962 332.929 106.568 329.946 106.568 326.693C106.568 318.238 106.568 326.521 106.568 330.224C106.568 337.632 104.185 333.831 104.185 328.679C104.185 327.209 102.809 317.147 102.596 322.897C102.477 326.11 102.596 329.347 102.596 332.563C102.596 334.533 101.095 328.838 101.007 326.869C100.961 325.84 100.61 321.22 99.0652 321.22C98.8556 321.22 97.0875 329.718 97.0349 330.665C96.802 334.857 94.6515 331.635 94.6515 328.767C94.6515 328.198 93.5128 325.713 93.1067 327.134C92.7921 328.236 93.441 329.617 92.886 330.665C90.9771 334.271 90.6792 329.706 90.6792 329.871" stroke="#0400B5" stroke-width="2" stroke-linecap="round"/>
<path d="M28.7108 205.14C20.7544 205.14 14.7408 198.353 8.76095 193.929C6.13229 191.985 -1.76369 188.477 4.5238 193.267C7.47538 195.516 9.5395 198.726 12.8215 200.55C13.0778 200.692 15.1048 202.668 14.0132 202.668C13.2212 202.668 10.2696 200.071 9.59955 199.535C8.92821 198.998 1.28204 193.929 1.74318 196.004C2.32914 198.64 8.37526 201.705 10.4381 203.551C12.5659 205.455 7.49992 201.166 6.11273 200.373C5.23485 199.872 8.70718 204.203 9.64368 205.14" stroke="#0400B5" stroke-width="2" stroke-linecap="round"/>
<path d="M48.5725 248.041C50.3919 248.041 54.3044 252.291 53.2952 250.777C51.7364 248.439 48.2459 246.125 46.1891 244.069C43.7359 241.615 40.8199 239.265 38.6858 236.521C37.3042 234.745 41.3819 242.468 42.2168 243.627C44.0141 246.123 46.1581 248.476 47.6015 251.219C48.7966 253.489 41.0725 246.844 39.8334 245.834C37.8909 244.251 30.9036 239.764 35.8611 244.863C38.1453 247.213 39.9915 249.788 42.2168 252.013" stroke="#0400B5" stroke-width="2" stroke-linecap="round"/>
<path d="M63.6675 291.736C63.6675 292.834 63.9184 298.981 63.6234 296.768C63.1852 293.482 61.2841 283.787 61.2841 287.102C61.2841 290.883 61.2841 294.664 61.2841 298.445C61.2841 305.878 58.9139 297.683 58.1062 294.738C57.0289 290.808 53.3395 279.408 53.3395 283.483C53.3395 287.472 54.1339 291.382 54.1339 295.311C54.1339 297.675 54.007 292.465 53.9574 292.089C53.651 289.775 52.7791 287.389 51.574 285.381C51.0273 284.469 51.7505 291.61 51.7505 292.531" stroke="#0400B5" stroke-width="2" stroke-linecap="round"/>
<path d="M156.848 139.15C159.334 139.23 161.84 140.748 164.156 140.737C164.953 140.733 167.729 141.464 168.219 142.07C169.301 143.41 173.587 145.373 175.266 145.551C177.919 145.833 180.284 148.772 183.123 148.758C185.012 148.749 190.773 151.27 186.113 151.959C184.685 152.17 183.11 152.003 181.666 152.01C179.548 152.02 178.28 152.575 176.263 152.998C172.318 153.824 167.949 154.78 163.953 154.799C162.116 154.808 160.529 155.357 158.668 155.366C154.705 155.385 156.978 155.423 159.635 156.563C163.835 158.365 169.572 156.55 174.123 157.875C175.062 158.149 183.923 158.939 183.925 159.33C183.933 161.091 177.048 160.685 175.879 160.691C173.148 160.704 169.921 162.296 167.238 163.016C165.595 163.457 163.933 163.624 162.406 164.301C160.903 164.967 156.205 166.194 157.849 166.186C159.946 166.176 162.638 168.18 164.891 168.586C167.681 169.088 171.232 170.448 174.033 170.434C177.93 170.416 181.381 171.788 185.127 172.004C185.177 172.007 182.306 173.253 181.349 173.524C178.473 174.338 175.676 174.753 172.702 174.767C169.941 174.781 166.684 175.919 164.331 177.241C163.617 177.643 161.011 177.694 162.173 178.333C164.042 179.36 166.311 179.665 168.399 179.655C169.981 179.648 171.564 179.64 173.146 179.633C175.176 179.623 177.832 179.259 174.776 181.127C172.222 182.688 169.729 184.29 167.62 186.419C165.077 188.987 166.867 188.057 169.226 189.115C171.075 189.945 173.5 191.959 175.489 192.06C178.673 192.221 175.858 194.464 174.422 195.19C172.179 196.325 169.398 197.497 166.862 197.509C165.851 197.514 161.843 197.041 164.519 197.641C167.182 198.237 169.575 199.665 172.253 200.188C173.662 200.462 175.274 200.507 176.613 200.978C177.56 201.311 180.755 203.188 178.669 203.672C171.53 205.331 164.816 207.506 157.787 209.691C156.244 210.171 154.807 210.547 153.194 210.554C151.982 210.56 155.618 210.543 156.83 210.537C158.243 210.53 160.037 210.239 161.397 210.635C164.858 211.643 168.269 211.162 171.797 211.667C176.25 212.305 179.62 213.672 184.246 213.65C184.54 213.649 186.853 213.523 185.478 213.674C183.006 213.947 180.823 215.383 178.367 215.842C175.013 216.468 171.341 217.392 168.044 218.325C164.924 219.208 161.47 219.146 158.316 219.844C155.267 220.518 160.33 220.567 161.566 220.91C166.862 222.376 170.296 226.691 175.066 229.047C176.973 229.989 178.547 229.648 180.538 229.922C185.245 230.572 178.105 229.367 176.779 229.129C172.669 228.393 168.259 228.87 164.098 228.89C162.905 228.895 160.532 228.381 159.715 229.482C155.598 235.026 164.427 237.859 168.264 239.145C171.323 240.17 176.44 240.277 179.5 238.971C181.275 238.214 187.133 237.973 185.204 237.982C179.264 238.011 173.536 240.201 167.548 240.23C165.003 240.242 161.363 240.103 159.201 241.352C156.779 242.751 159.859 248.004 160.622 249.427C162.889 253.66 165.409 255.383 170.265 255.36C173.149 255.346 176.033 255.332 178.917 255.318C183.883 255.294 174.775 255.82 173.393 256.156C170.322 256.903 167.608 257.536 164.416 257.551C162.483 257.56 160.551 257.57 158.618 257.579C155.818 257.592 156.854 258.791 158.332 260.645C159.206 261.741 161.784 265.496 163.404 265.668C164.975 265.835 166.455 265.806 168.033 266.187C170.147 266.697 175.15 268.229 176.286 270.474C177.69 273.249 174.911 273.911 172.343 275.24C168.525 277.215 163.669 279.046 160.568 282.176C158.111 284.658 169.366 285.683 171.072 285.912C175.55 286.512 179.977 285.203 183.881 287.863C184.902 288.56 188.297 289.778 188.823 290.964C189.043 291.46 182.034 292.54 181.26 292.743C173.032 294.903 164.613 296.984 157.387 301.631C156.336 302.307 155.852 302.303 157.422 302.772C159.898 303.513 162.229 304.677 164.706 305.381C170.977 307.164 176.934 307.177 183.144 309.589C184.845 310.25 185.445 310.423 183.452 311.24C180.174 312.585 176.791 313.57 173.494 314.833C171.871 315.456 169.685 316.92 167.977 317.023C165.079 317.198 163.035 318.128 160.14 318.142C158.688 318.149 157.455 318.696 156.087 318.703C152.14 318.721 158.356 320.501 159.343 320.97C162.948 322.685 165.832 324.959 169.643 326.209C173.056 327.328 176.437 328.637 179.816 329.825C180.571 330.091 188.001 332.495 188.005 333.422C188.005 333.438 169.493 338.687 168.173 339.165C164.992 340.318 161.919 341.726 158.787 342.996C157.274 343.61 161.099 344.821 161.38 344.906C167.786 346.861 173.932 349.523 180.34 351.455C181.47 351.796 185.017 351.996 185.875 352.751C186.082 352.934 182.333 354.556 181.978 354.692C175.144 357.329 167.877 359.885 160.613 360.323C157.834 360.491 166.337 363.962 167.092 364.318C171.566 366.427 176.062 366.125 180.627 367.528C181.214 367.708 184.257 368.575 184.212 369.404C184.138 370.773 176.2 374.622 174.746 375.398C171.79 376.976 169.334 378.689 166.962 381.084C164.637 383.431 171.66 380.869 173.059 380.574C176.122 379.928 179.461 380.243 182.581 380.228C183.75 380.222 187.239 379.662 185.14 381.177C175.554 388.093 165.925 390.583 154.269 390.639C151.302 390.653 156.55 394.633 157.896 395.188C162.379 397.04 166.997 397.373 171.613 398.668C175.361 399.719 178.433 401.298 181.88 403.216C182.844 403.751 184.503 404.791 185.465 405.061C186.949 405.478 186.549 406.033 185.021 406.445C181.111 407.5 177.401 408.489 173.62 409.985C170.654 411.159 167.675 412.226 164.926 413.873C162.952 415.055 158.449 416.624 162.328 417.22C166.823 417.912 171.1 419.613 175.623 420.281C179.147 420.801 182.652 420.788 186.201 420.771C186.607 420.769 188.288 420.483 188.456 421.061C188.554 421.398 189.148 422.23 188.732 422.351C184.91 423.463 181.345 424.781 177.725 426.43C173.634 428.295 169.373 429.707 165.525 432.227C165.118 432.494 162.331 434.103 163.132 434.522C164.737 435.362 166.786 435.446 168.545 435.458C172.784 435.486 176.983 435.024 181.101 434.857C181.717 434.832 186.947 435.936 184.656 436.883C175.682 440.589 166.077 445.745 156.156 445.793C154.932 445.798 152.041 445.746 154.327 446.613C159.877 448.717 166.133 446.75 171.29 450.377C176.11 453.766 179.069 459.319 183.819 462.846C184.103 463.057 186.831 464.319 186.831 464.454C186.832 464.67 183.491 463.17 183.159 462.969C178.929 460.405 174.303 460.399 169.858 458.706C166.585 457.46 165.926 455.598 162.705 458.2" stroke="#0400B5" stroke-width="2" stroke-linecap="round"/>
<path d="M162.7 457.118C159.481 457.303 155.677 458.639 155.693 462.019C155.71 465.666 155.347 466.985 157.892 469.58C159.846 471.571 162.26 475.869 165.495 476.033C167.797 476.15 170.191 476.215 172.261 477.353C174.049 478.335 176.781 478.814 178.76 479.244C183.506 480.275 173.659 481.965 172.975 482.066C169.544 482.573 166.516 482.96 163.065 483.075C160.275 483.168 160.301 483.865 160.706 486.031C161.538 490.486 167.926 492.787 171.794 492.768C174.123 492.757 176.596 493.926 178.862 494.327C180.76 494.662 186.254 494.698 184.517 495.531C178.837 498.255 172.728 496.275 167.529 499.278C164.083 501.269 159.679 503.764 159.699 507.969C159.711 510.42 163.419 511.634 165.131 512.93C167.096 514.418 169.223 517.066 171.881 517.104C172.707 517.116 183.299 517.309 183.306 518.672C183.306 518.708 181.326 520.385 181.121 520.545C180.068 521.372 177.561 520.863 176.346 520.868C173.767 520.881 168.089 519.957 166.257 522.269C165.038 523.808 161.873 524.876 160.206 525.933C159.808 526.186 153.378 530.526 156.563 530.698C158.441 530.799 160.362 530.68 162.242 530.671C164.225 530.661 166.208 530.652 168.19 530.642C171.19 530.628 176.002 529.575 178.737 530.712C181.862 532.01 179.081 532.292 176.705 533.185C174.33 534.078 171.761 535.244 169.813 536.854C166.444 539.637 158.853 542.116 164.215 547.426C166.152 549.345 168.389 550.352 169.769 552.808C170.659 554.391 172.756 554.831 174.259 555.49C177.448 556.89 180.901 556.158 184.031 557.036C187.639 558.048 184.624 557.604 182.141 557.616C178.342 557.634 174.641 560.146 170.767 560.374C167.484 560.568 164.299 562.028 161.04 562.043C160.537 562.046 159.183 562.795 160.264 563.099C161.185 563.357 162.505 563.118 163.449 563.113C164.838 563.107 170.29 562.452 170.721 563.409C171.865 565.95 172.788 569.387 176.219 569.542C178.062 569.625 180.452 571.339 182.18 572.097C183.598 572.719 185.355 573.179 186.935 573.697C187.56 573.902 181.967 575.491 180.905 575.709C178.891 576.122 176.692 576.57 174.63 576.58C170.576 576.599 167.107 578.096 163.348 579.579C160.322 580.772 155.144 583.398 157.918 587.597C160.984 592.237 164.35 594.731 169.826 596.072C175.32 597.418 180.827 596.019 186.291 595.993C187.837 595.986 183.249 596.566 181.759 596.976C180.579 597.301 179.718 597.647 178.487 597.653C175.868 597.666 173.075 597.918 170.833 599.312C168.449 600.795 168.638 601.78 168.816 604.73C168.96 607.108 172.277 606.877 173.904 606.869C175.336 606.862 171.04 606.883 169.608 606.889C167.454 606.9 166.594 607.061 165.049 608.534C163.246 610.253 164.467 613.039 162.796 614.914C160.835 617.115 162.519 618.949 164.804 620.132C169.502 622.564 174.46 624.713 179.728 624.688C180.668 624.683 185.114 624.958 184.778 625.084C181.011 626.5 176.491 627.304 172.503 627.937C170.546 628.248 168.166 629.083 166.536 630.429C165.174 631.555 165.712 633.964 165.72 635.571" stroke="#0400B5" stroke-width="2" stroke-linecap="round"/>
<path d="M165.486 635.917C166.564 636.052 167.91 636.843 168.996 637.169C169.619 637.356 170.385 637.629 170.945 637.949C172.747 638.978 174.689 639.899 176.671 640.534C177.535 640.812 178.568 641.203 179.482 641.273C181.127 641.4 178.441 643.249 177.82 643.377C176.981 643.548 176.097 643.489 175.244 643.489C173.897 643.489 172.593 643.805 171.253 643.859C170.452 643.891 169.681 644.043 168.872 644.043C168.357 644.043 167.823 643.91 167.426 644.228C167.209 644.402 167.541 645.152 167.805 645.152C168.741 645.152 169.769 645.746 170.627 646.055C171.996 646.547 173.425 646.927 174.824 647.327C176.279 647.743 177.685 647.965 179.133 648.435C179.605 648.588 181.222 648.683 181.37 649.215C181.511 649.722 179.404 650.417 179.133 650.497C177.33 651.032 175.365 651.311 173.5 651.523C172.293 651.661 171.093 651.764 169.878 651.79C169.581 651.797 168.392 651.635 168.082 651.893C167.106 652.706 166.278 653.59 165.117 654.202C164.295 654.634 163.071 655.368 163.28 656.52C163.512 657.793 164.571 659.386 165.384 660.358C166.252 661.395 167.163 661.744 168.524 661.774C170.293 661.813 172.068 661.774 173.839 661.774C174.721 661.774 175.603 661.774 176.486 661.774C177.16 661.774 177.751 662.28 178.425 662.42C179.975 662.743 179.793 662.607 179.42 664.031C179.031 665.516 178.521 666.924 177.902 668.33C177.563 669.101 177.56 669.575 176.753 669.757C175.481 670.043 174.335 670.014 173.059 670.085C172.32 670.126 171.503 671.217 170.842 671.563C170.491 671.747 170.08 671.877 169.704 671.953C168.951 672.103 168.577 672.465 168.062 672.938C167.656 673.309 167.906 673.078 168.113 673.41C168.547 674.103 169.367 674.747 169.857 675.482C170.016 675.72 170.288 676.048 170.288 676.365C170.288 676.452 170.199 676.544 170.206 676.539C170.936 676.053 172.286 677.037 173.038 677.288C173.535 677.454 174.092 677.842 174.629 677.842C175.006 677.842 174.084 676.524 173.982 676.241C173.355 674.499 171.642 669.217 172.33 670.937C172.784 672.07 173.256 673.148 173.798 674.23C174.271 675.177 174.213 676.042 174.023 677.062C173.833 678.083 174.437 678.212 174.906 679.032C175.151 679.462 176.122 679.453 176.568 679.689C176.85 679.838 177.168 680.225 177.491 680.243C177.841 680.263 178.172 680.206 178.507 680.335C179.811 680.837 181.001 681.69 181.001 683.198C181.001 683.848 178.826 683.787 178.271 683.896C177.245 684.097 176.527 684.752 175.46 684.871C174.978 684.924 170.682 686.111 170.658 686.523C170.552 688.312 175.122 687.586 176.609 687.857C177.023 687.932 179.14 687.805 179.154 688.267C179.196 689.742 179.392 691.042 178.128 692.053C177.037 692.926 176.146 693.172 174.803 693.172C173.784 693.172 172.612 693.721 171.622 693.951C171.171 694.056 169.965 694.568 169.591 694.875C168.792 695.528 169.79 695.812 170.555 696.301C172.271 697.399 175.338 697.42 177.296 697.42C177.982 697.42 178.66 697.187 178.969 697.881C179.197 698.395 179.981 699.037 179.154 699.451C178.652 699.702 177.687 699.975 177.122 700.005C176.497 700.038 174.756 700.146 174.352 700.652C173.917 701.195 174.167 702.465 174.167 703.145C174.167 704.192 174.167 705.238 174.167 706.285C174.167 707.331 174.167 708.378 174.167 709.425C174.167 710.188 174.898 709.987 175.501 710.204C176.095 710.418 176.321 711.454 176.157 712.01C175.76 713.362 172.892 713.183 171.858 713.58C169.787 714.377 172.95 714.986 173.839 715.109C175.175 715.294 176.749 715.048 178.045 714.688C180.241 714.078 179.881 716.262 178.415 717.038C177.717 717.408 176.607 717.182 175.829 717.182C175.148 717.182 174.494 717.366 173.798 717.366" stroke="#0400B5" stroke-width="2" stroke-linecap="round"/>
<path d="M173.426 718.225C170.558 718.225 172.262 719.99 173.593 720.951C174.787 721.814 176.299 722.26 177.389 723.132C178.352 723.903 173.076 725.008 172.755 725.02C170.56 725.095 167.507 726.058 170.406 727.83C172.624 729.185 175.446 729.912 177.997 730.304C178.276 730.347 181.688 730.599 181.688 730.87C181.688 731.252 180.475 732.158 180.136 732.275C176.994 733.363 173.84 734.257 170.678 735.379C169.602 735.761 168.887 735.966 167.764 735.966C166.12 735.966 168.174 737.029 168.602 737.35C170.507 738.778 171.763 740.234 174.264 740.789C175.066 740.968 180.943 741.232 181.332 742.593C182.3 745.983 179.46 745.112 177.2 746.242C176.185 746.749 175.09 746.366 174.013 746.619C172.556 746.962 171.105 747.817 169.651 748.024C167.802 748.289 172.402 751.153 173.132 751.736C174.312 752.68 176.086 752.503 177.2 753.896C178.198 755.143 177.508 756.048 176.068 756.811C175.252 757.243 172.995 757.318 172.671 758.048C171.848 759.899 170.285 760.015 173.216 761.613C174.951 762.56 177.358 762.9 178.794 764.193C180.042 765.316 181.025 765.731 180.136 767.842C179.488 769.382 177.574 769.545 176.508 770.505C174.565 772.254 172.745 773.964 170.196 774.846C167.473 775.788 170.413 778.435 171.832 779.082C173.25 779.729 174.54 780.664 175.984 781.263C177.516 781.898 176.885 782.117 177.389 783.528C178.052 785.383 176.84 786.463 175.69 787.68C173.762 789.722 170.415 789.785 173.824 792.398C175.425 793.626 179.465 794.393 179.465 796.55C179.465 798.011 178.047 799.654 176.529 799.759C173.942 799.937 172.09 800.759 170.259 802.59C169.368 803.481 170.752 811.37 172.293 811.461C173.943 811.558 174.718 811.166 175.313 812.803C175.915 814.459 176.448 816.261 174.558 817.206C173.924 817.524 170.759 817.32 171.182 818.8C171.802 820.97 176.026 821.285 177.662 821.736C178.06 821.846 182.721 822.086 182.695 822.323C182.53 823.808 172.646 824.295 171.371 824.295C170.427 824.295 169.723 824.698 168.854 825.07C168.245 825.331 165.065 825.926 165.583 826.098C168.754 827.155 172.421 827.739 175.69 828.447C177.369 828.81 179.435 829.579 181.164 829.579C183.461 829.579 176.612 830.234 174.369 830.733C172.665 831.111 172.173 832.052 171.077 833.27C170.088 834.369 179.801 834.27 179.801 834.675C179.801 835.759 174.51 837.722 173.51 838.722C172.625 839.606 176.244 840.719 177.2 841.197C178.081 841.637 178.679 841.658 179.675 841.658C181.235 841.658 179.586 842.413 178.899 842.413C177.505 842.413 175.94 843.08 174.348 843.168C171.738 843.313 175.43 844.492 176.152 844.678C176.765 844.836 182.35 845.694 181.772 846.041C179.51 847.399 176.073 847.796 173.489 848.054C173.201 848.083 171.231 848.911 171.916 849.292C172.529 849.632 176.278 850.344 176.278 851.179C176.278 851.438 170.808 853.515 170.028 853.905C168.867 854.486 166.744 854.631 168.372 855.834C170 857.038 171.955 857.06 173.887 857.135C174.816 857.17 175.314 858.767 175.858 859.483C176.181 859.908 178.296 860.904 177.746 861.454C177.456 861.744 177.185 862.711 176.949 862.797C175.942 863.163 174.694 863.929 173.614 863.929C171.981 863.929 174.727 867.297 174.852 867.62C174.999 868.003 174.6 868.16 174.6 867.872C174.6 867.212 176.352 867.035 176.739 866.949C177.587 866.759 181.169 866.571 178.501 866.571C176.411 866.571 167.764 866.076 167.764 869.591C167.764 870.548 176.406 868.178 175.607 870.346C175.281 871.229 175.065 872.142 174.642 872.988C174.506 873.261 173.75 872.869 173.258 873.009C172.917 873.107 175.2 875.092 175.69 875.337C177.687 876.335 172.525 876.633 172.461 876.952C172.1 878.755 165.688 877.651 167.218 878.671C170.064 880.569 175.036 880.626 178.333 881.502C179.954 881.934 187.676 882.912 187.77 885.529C187.787 886.03 188.117 887.962 187.224 887.542C183.99 886.02 180.172 885.344 176.592 885.088C175.739 885.027 174.254 884.981 176.194 885.088C179.263 885.259 182.208 886.273 185.253 886.577C188.759 886.928 178.204 886.809 174.684 886.661C170.931 886.503 166.721 886.117 163.045 886.934C162.809 886.986 160.409 887.012 161.263 887.353C165.154 888.91 169.541 890.498 173.677 891.107C174.399 891.213 178.023 891.107 177.494 891.107C176.208 891.107 172.565 890.414 173.635 891.128C175.952 892.673 177.955 901.064 177.955 898.279" stroke="#0400B5" stroke-width="2" stroke-linecap="round"/>
<path d="M155.685 138.807C157.581 138.807 158.964 137.968 160.801 137.674C162.922 137.335 165.103 136.986 167.197 136.521C168.872 136.149 169.257 134.654 171.161 134.654C172.858 134.654 173.682 133.864 175.124 133.543C175.989 133.351 178.376 133.517 179.004 133.061C179.313 132.836 182.558 132.179 181.73 131.718C177.801 129.536 171.848 130.502 167.47 130.502C165.058 130.502 162.647 130.502 160.235 130.502C159.777 130.502 157.11 130.302 156.817 129.936C155.576 128.384 158.562 125.803 159.795 125.05C161.512 124 162.385 123.33 164.597 123.33C167.715 123.33 170.737 123.293 173.803 122.953C175.104 122.808 176.438 121.82 177.955 121.82C179.953 121.82 175.77 118.125 174.936 117.836C173.842 117.457 172.652 117.832 171.538 117.584C170.633 117.383 169.742 116.935 168.812 116.913C166.766 116.866 164.714 116.913 162.668 116.913C161.089 116.913 160.863 116.558 159.648 115.613C158.399 114.642 158.994 114.781 160.235 114.082C162.116 113.024 164.07 112.207 166.065 111.44C167.69 110.815 169.539 111.643 171.161 110.79C173.527 109.544 169.875 108.22 168.98 107.854C166.397 106.797 163.361 106.884 160.592 106.721C159.513 106.658 161.654 105.809 161.766 105.778C163.658 105.246 165.377 104.762 167.156 103.911C169.299 102.886 170.733 102.947 173.237 102.947C173.928 102.947 178.668 103.122 178.668 101.605C178.668 100.623 171.375 100.383 170.448 100.325C168.064 100.176 165.347 100.059 163.003 100.493C160.81 100.899 154.169 101.274 156.314 100.661C158.032 100.17 159.612 98.7307 161.158 97.8719C163.15 96.7653 165.243 96.0045 167.365 95.2086C169.022 94.5875 170.465 94.546 172.126 94.244C172.669 94.1451 175.63 93.2166 175.313 93.0486C173.877 92.2882 172.607 90.1749 170.867 90.1127C168.433 90.0258 166.1 90.4902 163.695 90.4902C163.134 90.4902 159.12 90.2381 159.166 90.1966C159.826 89.6025 161.664 89.3905 162.5 89.1691C164.342 88.6816 166.078 88.3071 167.722 87.3027C169.086 86.4688 170.299 87.0761 171.727 86.5268C172.446 86.2504 173.152 86.563 173.027 85.5621C172.836 84.0304 172.115 82.4941 171.392 81.1583C170.734 79.9435 168.706 79.3337 167.386 79.187C165.161 78.9398 162.414 79.9651 160.298 80.5921C158.606 81.0934 159.082 78.646 159.082 77.6562C159.082 75.5559 161.928 72.9152 163.905 72.4555C165.013 72.1977 166.334 72.3716 167.47 72.3716C168.977 72.3716 171.288 72.58 172.461 71.4069C173.044 70.8239 170.997 69.1883 170.595 68.7856C169.454 67.6446 168.592 66.275 167.575 65.0319C166.657 63.9098 165.066 64.0792 163.8 63.6898C161.982 63.1302 161.356 61.8164 162.185 60.1247C163.128 58.201 164.436 57.8209 165.96 56.6017C166.796 55.933 166.891 54.7779 167.68 53.7916C168.541 52.7153 164.575 51.4271 163.989 51.1493C163.122 50.7387 162.513 49.9014 161.934 49.1571C161.422 48.4991 163.067 46.795 163.444 46.0954C164.939 43.3183 167.968 39.4206 164.199 37.2668C161.755 35.8703 161.347 34.5391 161.347 31.6047C161.347 28.497 161.562 26.1955 162.94 23.3003C166.355 16.1295 161.587 8.61288 163.989 1.40698" stroke="#0400B5" stroke-width="2" stroke-linecap="round"/>
</svg>
