<svg width="18" height="17" viewBox="0 0 18 17" fill="none" xmlns="http://www.w3.org/2000/svg">
<path d="M17.28 0H0.72C0.32175 0 0 0.303875 0 0.68V16.32C0 16.6961 0.32175 17 0.72 17H17.28C17.6783 17 18 16.6961 18 16.32V0.68C18 0.303875 17.6783 0 17.28 0ZM5.33925 14.4861H2.6685V6.37287H5.33925V14.4861ZM4.005 5.26363C3.69883 5.26363 3.39954 5.17788 3.14498 5.01723C2.89041 4.85659 2.692 4.62825 2.57483 4.36111C2.45767 4.09396 2.42701 3.8 2.48674 3.5164C2.54647 3.2328 2.69391 2.9723 2.9104 2.76783C3.12689 2.56337 3.40272 2.42413 3.703 2.36772C4.00328 2.31131 4.31453 2.34026 4.59739 2.45091C4.88025 2.56157 5.12202 2.74896 5.29212 2.98938C5.46221 3.22981 5.553 3.51247 5.553 3.80162C5.55075 4.60912 4.85775 5.26363 4.005 5.26363ZM15.3383 14.4861H12.6697V10.54C12.6697 9.59863 12.6518 8.3895 11.2815 8.3895C9.89325 8.3895 9.6795 9.41375 9.6795 10.472V14.4861H7.01325V6.37287H9.57375V7.48213H9.60975C9.96525 6.84463 10.836 6.171 12.1365 6.171C14.841 6.171 15.3383 7.85187 15.3383 10.0364V14.4861V14.4861Z" fill="#17012E"/>
</svg>
