<svg width="1165" height="805" viewBox="0 0 1165 805" fill="none" xmlns="http://www.w3.org/2000/svg">
<path d="M1164.19 24.8342C1165.2 21.9706 1163.7 18.8279 1160.83 17.8149L1114.17 1.30665C1111.3 0.29362 1108.16 1.79386 1107.15 4.65753C1106.14 7.52119 1107.64 10.6639 1110.5 11.6769L1151.98 26.3509L1137.31 67.8319C1136.29 70.6956 1137.79 73.8382 1140.66 74.8513C1143.52 75.8643 1146.66 74.3641 1147.68 71.5004L1164.19 24.8342ZM6 486.502L3.82253 481.452L0.5 482.884V486.502H6ZM83.7032 541.798L88.5881 544.326L83.7032 541.798ZM53.2976 568.006L55.4267 573.077L55.4267 573.077L53.2976 568.006ZM83.7032 487.636L78.9732 490.443L78.9732 490.443L83.7032 487.636ZM142.942 404.111C182.882 420.204 219.494 396.231 252.527 361.946C269.246 344.594 285.597 324.034 301.618 303.334C317.705 282.547 333.425 261.662 349.11 243.278C364.81 224.875 380.165 209.357 395.351 199.216C410.497 189.102 424.92 184.695 439.087 187.457C453.32 190.231 468.57 200.485 484.782 222.507C500.986 244.519 517.75 277.758 535.102 325.378L545.438 321.612C527.92 273.538 510.729 239.199 493.64 215.986C476.56 192.784 459.179 180.166 441.192 176.66C423.138 173.141 405.75 179.045 389.243 190.068C372.775 201.065 356.633 217.512 340.742 236.139C324.834 254.784 308.867 275.993 292.918 296.601C276.903 317.296 260.871 337.433 244.605 354.314C211.669 388.499 179.908 407.146 147.053 393.908L142.942 404.111ZM535.102 325.378C570.46 422.413 627.552 471.443 690.397 488.22C752.933 504.914 820.062 489.373 875.292 459.575C930.419 429.832 974.77 385.295 991.172 342.605C999.411 321.162 1000.76 299.679 992.144 280.836C983.509 261.96 965.36 246.813 936.842 237.049L933.279 247.456C959.901 256.57 975.129 270.083 982.141 285.412C989.169 300.775 988.441 319.043 980.904 338.66C965.754 378.092 923.775 420.918 870.069 449.894C816.466 478.814 752.26 493.349 693.234 477.592C634.517 461.917 579.819 415.968 545.438 321.612L535.102 325.378ZM936.842 237.049C909.524 227.696 891.468 218.243 880.627 209.013C869.914 199.891 866.791 191.521 867.733 183.836C868.731 175.688 874.454 166.676 885.091 156.932C895.615 147.291 910.268 137.553 927.716 127.865C962.594 108.499 1007.68 89.8511 1050.83 72.8479C1093.76 55.9301 1134.96 40.5727 1161.37 27.9634L1156.63 18.0366C1130.68 30.4252 1090.13 45.534 1046.79 62.6139C1003.67 79.6085 957.961 98.4897 922.376 118.248C904.592 128.123 889.095 138.346 877.66 148.821C866.337 159.195 858.29 170.458 856.815 182.498C855.283 195.002 860.984 206.735 873.496 217.389C885.882 227.935 905.456 237.93 933.279 247.456L936.842 237.049ZM0.5 486.502V568.006H11.5V486.502H0.5ZM0.5 568.006V649.509H11.5V568.006H0.5ZM139.497 568.006V608.758H150.497V568.006H139.497ZM144.997 608.758C139.497 608.758 139.497 608.758 139.497 608.759C139.497 608.76 139.497 608.761 139.497 608.762C139.497 608.763 139.497 608.765 139.497 608.767C139.497 608.77 139.497 608.772 139.497 608.775C139.497 608.778 139.497 608.781 139.497 608.785C139.497 608.788 139.497 608.792 139.497 608.796C139.497 608.801 139.497 608.805 139.497 608.81C139.497 608.815 139.497 608.82 139.497 608.826C139.497 608.832 139.497 608.838 139.497 608.844C139.497 608.85 139.497 608.857 139.497 608.864C139.497 608.871 139.497 608.878 139.497 608.886C139.497 608.894 139.497 608.902 139.497 608.91C139.497 608.919 139.497 608.927 139.497 608.936C139.497 608.945 139.497 608.955 139.497 608.965C139.497 608.974 139.497 608.984 139.497 608.995C139.497 609.005 139.497 609.016 139.497 609.027C139.497 609.038 139.497 609.049 139.497 609.061C139.497 609.073 139.497 609.085 139.497 609.097C139.497 609.11 139.497 609.122 139.497 609.135C139.497 609.148 139.497 609.162 139.497 609.175C139.497 609.189 139.497 609.203 139.497 609.217C139.497 609.232 139.497 609.246 139.497 609.261C139.497 609.276 139.497 609.292 139.497 609.307C139.497 609.323 139.497 609.339 139.497 609.355C139.497 609.371 139.497 609.388 139.497 609.405C139.497 609.422 139.497 609.439 139.497 609.456C139.497 609.474 139.497 609.492 139.497 609.51C139.497 609.528 139.497 609.546 139.497 609.565C139.497 609.584 139.497 609.603 139.497 609.622C139.497 609.642 139.497 609.661 139.497 609.681C139.497 609.701 139.497 609.721 139.497 609.742C139.497 609.763 139.497 609.784 139.497 609.805C139.497 609.826 139.497 609.847 139.497 609.869C139.497 609.891 139.497 609.913 139.497 609.936C139.497 609.958 139.497 609.981 139.497 610.004C139.497 610.027 139.497 610.05 139.497 610.073C139.497 610.097 139.497 610.121 139.497 610.145C139.497 610.169 139.497 610.194 139.497 610.219C139.497 610.243 139.497 610.268 139.497 610.294C139.497 610.319 139.497 610.345 139.497 610.371C139.497 610.396 139.497 610.423 139.497 610.449C139.497 610.476 139.497 610.502 139.497 610.529C139.497 610.557 139.497 610.584 139.497 610.612C139.497 610.639 139.497 610.667 139.497 610.695C139.497 610.723 139.497 610.752 139.497 610.781C139.497 610.809 139.497 610.838 139.497 610.868C139.497 610.897 139.497 610.927 139.497 610.956C139.497 610.986 139.497 611.016 139.497 611.047C139.497 611.077 139.497 611.108 139.497 611.139C139.497 611.17 139.497 611.201 139.497 611.233C139.497 611.264 139.497 611.296 139.497 611.328C139.497 611.36 139.497 611.392 139.497 611.425C139.497 611.457 139.497 611.49 139.497 611.523C139.497 611.556 139.497 611.59 139.497 611.623C139.497 611.657 139.497 611.691 139.497 611.725C139.497 611.759 139.497 611.794 139.497 611.828C139.497 611.863 139.497 611.898 139.497 611.933C139.497 611.968 139.497 612.004 139.497 612.039C139.497 612.075 139.497 612.111 139.497 612.147C139.497 612.183 139.497 612.22 139.497 612.256C139.497 612.293 139.497 612.33 139.497 612.367C139.497 612.405 139.497 612.442 139.497 612.48C139.497 612.517 139.497 612.555 139.497 612.594C139.497 612.632 139.497 612.67 139.497 612.709C139.497 612.748 139.497 612.787 139.497 612.826C139.497 612.865 139.497 612.904 139.497 612.944C139.497 612.984 139.497 613.024 139.497 613.064C139.497 613.104 139.497 613.144 139.497 613.185C139.497 613.225 139.497 613.266 139.497 613.307C139.497 613.349 139.497 613.39 139.497 613.431C139.497 613.473 139.497 613.515 139.497 613.557C139.497 613.599 139.497 613.641 139.497 613.684C139.497 613.726 139.497 613.769 139.497 613.812C139.497 613.855 139.497 613.898 139.497 613.941C139.497 613.985 139.497 614.028 139.497 614.072C139.497 614.116 139.497 614.16 139.497 614.204C139.497 614.249 139.497 614.293 139.497 614.338C139.497 614.383 139.497 614.428 139.497 614.473C139.497 614.518 139.497 614.563 139.497 614.609C139.497 614.655 139.497 614.7 139.497 614.747C139.497 614.793 139.497 614.839 139.497 614.885C139.497 614.932 139.497 614.978 139.497 615.025C139.497 615.072 139.497 615.119 139.497 615.167C139.497 615.214 139.497 615.262 139.497 615.309C139.497 615.357 139.497 615.405 139.497 615.453C139.497 615.501 139.497 615.55 139.497 615.598C139.497 615.647 139.497 615.696 139.497 615.745C139.497 615.794 139.497 615.843 139.497 615.892C139.497 615.942 139.497 615.991 139.497 616.041C139.497 616.091 139.497 616.141 139.497 616.191C139.497 616.241 139.497 616.292 139.497 616.342C139.497 616.393 139.497 616.443 139.497 616.494C139.497 616.545 139.497 616.597 139.497 616.648C139.497 616.699 139.497 616.751 139.497 616.803C139.497 616.854 139.497 616.906 139.497 616.958C139.497 617.01 139.497 617.063 139.497 617.115C139.497 617.168 139.497 617.22 139.497 617.273C139.497 617.326 139.497 617.379 139.497 617.432C139.497 617.486 139.497 617.539 139.497 617.593C139.497 617.646 139.497 617.7 139.497 617.754C139.497 617.808 139.497 617.862 139.497 617.916C139.497 617.971 139.497 618.025 139.497 618.08C139.497 618.134 139.497 618.189 139.497 618.244C139.497 618.299 139.497 618.355 139.497 618.41C139.497 618.465 139.497 618.521 139.497 618.576C139.497 618.632 139.497 618.688 139.497 618.744C139.497 618.8 139.497 618.856 139.497 618.913C139.497 618.969 139.497 619.026 139.497 619.082C139.497 619.139 139.497 619.196 139.497 619.253C139.497 619.31 139.497 619.367 139.497 619.425C139.497 619.482 139.497 619.539 139.497 619.597C139.497 619.655 139.497 619.713 139.497 619.771C139.497 619.829 139.497 619.887 139.497 619.945C139.497 620.003 139.497 620.062 139.497 620.121C139.497 620.179 139.497 620.238 139.497 620.297C139.497 620.356 139.497 620.415 139.497 620.474C139.497 620.533 139.497 620.593 139.497 620.652C139.497 620.712 139.497 620.772 139.497 620.831C139.497 620.891 139.497 620.951 139.497 621.011C139.497 621.071 139.497 621.132 139.497 621.192C139.497 621.252 139.497 621.313 139.497 621.374C139.497 621.434 139.497 621.495 139.497 621.556C139.497 621.617 139.497 621.678 139.497 621.74C139.497 621.801 139.497 621.862 139.497 621.924C139.497 621.985 139.497 622.047 139.497 622.109C139.497 622.171 139.497 622.232 139.497 622.295C139.497 622.357 139.497 622.419 139.497 622.481C139.497 622.543 139.497 622.606 139.497 622.669C139.497 622.731 139.497 622.794 139.497 622.857C139.497 622.92 139.497 622.982 139.497 623.046C139.497 623.109 139.497 623.172 139.497 623.235C139.497 623.299 139.497 623.362 139.497 623.426C139.497 623.489 139.497 623.553 139.497 623.617C139.497 623.681 139.497 623.745 139.497 623.809C139.497 623.873 139.497 623.937 139.497 624.001C139.497 624.065 139.497 624.13 139.497 624.194C139.497 624.259 139.497 624.324 139.497 624.388C139.497 624.453 139.497 624.518 139.497 624.583C139.497 624.648 139.497 624.713 139.497 624.778C139.497 624.843 139.497 624.909 139.497 624.974C139.497 625.04 139.497 625.105 139.497 625.171C139.497 625.236 139.497 625.302 139.497 625.368C139.497 625.434 139.497 625.5 139.497 625.566C139.497 625.632 139.497 625.698 139.497 625.764C139.497 625.831 139.497 625.897 139.497 625.963C139.497 626.03 139.497 626.096 139.497 626.163C139.497 626.23 139.497 626.296 139.497 626.363C139.497 626.43 139.497 626.497 139.497 626.564C139.497 626.631 139.497 626.698 139.497 626.765C139.497 626.833 139.497 626.9 139.497 626.967C139.497 627.035 139.497 627.102 139.497 627.17C139.497 627.237 139.497 627.305 139.497 627.373C139.497 627.44 139.497 627.508 139.497 627.576C139.497 627.644 139.497 627.712 139.497 627.78C139.497 627.848 139.497 627.916 139.497 627.984C139.497 628.053 139.497 628.121 139.497 628.189C139.497 628.258 139.497 628.326 139.497 628.395C139.497 628.463 139.497 628.532 139.497 628.601C139.497 628.669 139.497 628.738 139.497 628.807C139.497 628.876 139.497 628.945 139.497 629.014C139.497 629.083 139.497 629.152 139.497 629.221C139.497 629.29 139.497 629.359 139.497 629.428C139.497 629.498 139.497 629.567 139.497 629.636C139.497 629.706 139.497 629.775 139.497 629.845C139.497 629.914 139.497 629.984 139.497 630.054C139.497 630.123 139.497 630.193 139.497 630.263C139.497 630.332 139.497 630.402 139.497 630.472C139.497 630.542 139.497 630.612 139.497 630.682C139.497 630.752 139.497 630.822 139.497 630.892C139.497 630.962 139.497 631.033 139.497 631.103C139.497 631.173 139.497 631.243 139.497 631.314C139.497 631.384 139.497 631.454 139.497 631.525C139.497 631.595 139.497 631.666 139.497 631.736C139.497 631.807 139.497 631.877 139.497 631.948C139.497 632.019 139.497 632.089 139.497 632.16C139.497 632.231 139.497 632.301 139.497 632.372C139.497 632.443 139.497 632.514 139.497 632.585C139.497 632.656 139.497 632.727 139.497 632.797C139.497 632.868 139.497 632.939 139.497 633.01C139.497 633.082 139.497 633.153 139.497 633.224C139.497 633.295 139.497 633.366 139.497 633.437C139.497 633.508 139.497 633.58 139.497 633.651C139.497 633.722 139.497 633.793 139.497 633.865C139.497 633.936 139.497 634.007 139.497 634.079C139.497 634.15 139.497 634.221 139.497 634.293C139.497 634.364 139.497 634.436 139.497 634.507C139.497 634.578 139.497 634.65 139.497 634.721C139.497 634.793 139.497 634.865 139.497 634.936C139.497 635.008 139.497 635.079 139.497 635.151C139.497 635.222 139.497 635.294 139.497 635.366C139.497 635.437 139.497 635.509 139.497 635.581C139.497 635.652 139.497 635.724 139.497 635.796C139.497 635.867 139.497 635.939 139.497 636.011C139.497 636.082 139.497 636.154 139.497 636.226C139.497 636.298 139.497 636.369 139.497 636.441C139.497 636.513 139.497 636.585 139.497 636.656C139.497 636.728 139.497 636.8 139.497 636.872C139.497 636.943 139.497 637.015 139.497 637.087C139.497 637.159 139.497 637.231 139.497 637.302C139.497 637.374 139.497 637.446 139.497 637.518C139.497 637.589 139.497 637.661 139.497 637.733C139.497 637.805 139.497 637.877 139.497 637.948C139.497 638.02 139.497 638.092 139.497 638.164C139.497 638.235 139.497 638.307 139.497 638.379C139.497 638.451 139.497 638.522 139.497 638.594C139.497 638.666 139.497 638.738 139.497 638.809C139.497 638.881 139.497 638.953 139.497 639.024C139.497 639.096 139.497 639.168 139.497 639.239C139.497 639.311 139.497 639.383 139.497 639.454C139.497 639.526 139.497 639.597 139.497 639.669C139.497 639.741 139.497 639.812 139.497 639.884C139.497 639.955 139.497 640.027 139.497 640.098C139.497 640.17 139.497 640.241 139.497 640.313C139.497 640.384 139.497 640.456 139.497 640.527C139.497 640.598 139.497 640.67 139.497 640.741C139.497 640.812 139.497 640.884 139.497 640.955C139.497 641.026 139.497 641.097 139.497 641.169C139.497 641.24 139.497 641.311 139.497 641.382C139.497 641.453 139.497 641.525 139.497 641.596C139.497 641.667 139.497 641.738 139.497 641.809C139.497 641.88 139.497 641.951 139.497 642.022C139.497 642.093 139.497 642.164 139.497 642.234C139.497 642.305 139.497 642.376 139.497 642.447C139.497 642.518 139.497 642.588 139.497 642.659C139.497 642.73 139.497 642.8 139.497 642.871C139.497 642.942 139.497 643.012 139.497 643.083C139.497 643.153 139.497 643.224 139.497 643.294C139.497 643.364 139.497 643.435 139.497 643.505C139.497 643.575 139.497 643.646 139.497 643.716C139.497 643.786 139.497 643.856 139.497 643.926C139.497 643.996 139.497 644.066 139.497 644.136C139.497 644.206 139.497 644.276 139.497 644.346C139.497 644.416 139.497 644.486 139.497 644.555C139.497 644.625 139.497 644.695 139.497 644.765C139.497 644.834 139.497 644.904 139.497 644.973C139.497 645.043 139.497 645.112 139.497 645.181C139.497 645.251 139.497 645.32 139.497 645.389C139.497 645.459 139.497 645.528 139.497 645.597C139.497 645.666 139.497 645.735 139.497 645.804C139.497 645.873 139.497 645.942 139.497 646.01C139.497 646.079 139.497 646.148 139.497 646.217C139.497 646.285 139.497 646.354 139.497 646.422C139.497 646.491 139.497 646.559 139.497 646.628C139.497 646.696 139.497 646.764 139.497 646.832C139.497 646.901 139.497 646.969 139.497 647.037C139.497 647.105 139.497 647.173 139.497 647.241C139.497 647.308 139.497 647.376 139.497 647.444C139.497 647.512 139.497 647.579 139.497 647.647C139.497 647.714 139.497 647.782 139.497 647.849C139.497 647.916 139.497 647.983 139.497 648.051C139.497 648.118 139.497 648.185 139.497 648.252C139.497 648.319 139.497 648.386 139.497 648.452C139.497 648.519 139.497 648.586 139.497 648.652C139.497 648.719 139.497 648.786 139.497 648.852C139.497 648.918 139.497 648.985 139.497 649.051C139.497 649.117 139.497 649.183 139.497 649.249C139.497 649.315 139.497 649.381 139.497 649.447C139.497 649.513 139.497 649.578 139.497 649.644C139.497 649.709 139.497 649.775 139.497 649.84C139.497 649.906 139.497 649.971 139.497 650.036C139.497 650.101 139.497 650.166 139.497 650.231C139.497 650.296 139.497 650.361 139.497 650.425C139.497 650.49 139.497 650.555 139.497 650.619C139.497 650.684 139.497 650.748 139.497 650.812C139.497 650.876 139.497 650.941 139.497 651.005C139.497 651.069 139.497 651.132 139.497 651.196C139.497 651.26 139.497 651.324 139.497 651.387C139.497 651.451 139.497 651.514 139.497 651.577C139.497 651.641 139.497 651.704 139.497 651.767C139.497 651.83 139.497 651.893 139.497 651.955C139.497 652.018 139.497 652.081 139.497 652.143C139.497 652.206 139.497 652.268 139.497 652.331C139.497 652.393 139.497 652.455 139.497 652.517C139.497 652.579 139.497 652.641 139.497 652.702C139.497 652.764 139.497 652.826 139.497 652.887C139.497 652.949 139.497 653.01 139.497 653.071C139.497 653.132 139.497 653.193 139.497 653.254C139.497 653.315 139.497 653.376 139.497 653.437C139.497 653.497 139.497 653.558 139.497 653.618C139.497 653.678 139.497 653.738 139.497 653.799C139.497 653.859 139.497 653.918 139.497 653.978C139.497 654.038 139.497 654.098 139.497 654.157C139.497 654.216 139.497 654.276 139.497 654.335C139.497 654.394 139.497 654.453 139.497 654.512C139.497 654.571 139.497 654.629 139.497 654.688C139.497 654.746 139.497 654.805 139.497 654.863C139.497 654.921 139.497 654.979 139.497 655.037C139.497 655.095 139.497 655.153 139.497 655.211C139.497 655.268 139.497 655.326 139.497 655.383C139.497 655.44 139.497 655.497 139.497 655.554C139.497 655.611 139.497 655.668 139.497 655.724C139.497 655.781 139.497 655.838 139.497 655.894C139.497 655.95 139.497 656.006 139.497 656.062C139.497 656.118 139.497 656.174 139.497 656.229C139.497 656.285 139.497 656.341 139.497 656.396C139.497 656.451 139.497 656.506 139.497 656.561C139.497 656.616 139.497 656.671 139.497 656.725C139.497 656.78 139.497 656.834 139.497 656.888C139.497 656.943 139.497 656.997 139.497 657.05C139.497 657.104 139.497 657.158 139.497 657.211C139.497 657.265 139.497 657.318 139.497 657.371C139.497 657.425 139.497 657.477 139.497 657.53C139.497 657.583 139.497 657.636 139.497 657.688C139.497 657.74 139.497 657.793 139.497 657.845C139.497 657.897 139.497 657.948 139.497 658C139.497 658.052 139.497 658.103 139.497 658.154C139.497 658.206 139.497 658.257 139.497 658.307C139.497 658.358 139.497 658.409 139.497 658.459C139.497 658.51 139.497 658.56 139.497 658.61C139.497 658.66 139.497 658.71 139.497 658.76C139.497 658.809 139.497 658.859 139.497 658.908C139.497 658.957 139.497 659.007 139.497 659.055C139.497 659.104 139.497 659.153 139.497 659.201C139.497 659.25 139.497 659.298 139.497 659.346C139.497 659.394 139.497 659.442 139.497 659.49C139.497 659.537 139.497 659.585 139.497 659.632C139.497 659.679 139.497 659.726 139.497 659.773C139.497 659.82 139.497 659.866 139.497 659.913C139.497 659.959 139.497 660.005 139.497 660.051C139.497 660.097 139.497 660.143 139.497 660.188C139.497 660.234 139.497 660.279 139.497 660.324C139.497 660.369 139.497 660.414 139.497 660.459C139.497 660.503 139.497 660.548 139.497 660.592C139.497 660.636 139.497 660.68 139.497 660.724C139.497 660.767 139.497 660.811 139.497 660.854C139.497 660.897 139.497 660.94 139.497 660.983C139.497 661.026 139.497 661.069 139.497 661.111C139.497 661.153 139.497 661.195 139.497 661.237C139.497 661.279 139.497 661.321 139.497 661.362C139.497 661.404 139.497 661.445 139.497 661.486C139.497 661.527 139.497 661.568 139.497 661.608C139.497 661.648 139.497 661.689 139.497 661.729C139.497 661.769 139.497 661.809 139.497 661.848C139.497 661.888 139.497 661.927 139.497 661.966C139.497 662.005 139.497 662.044 139.497 662.082C139.497 662.121 139.497 662.159 139.497 662.197C139.497 662.235 139.497 662.273 139.497 662.311C139.497 662.348 139.497 662.385 139.497 662.423C139.497 662.46 139.497 662.496 139.497 662.533C139.497 662.57 139.497 662.606 139.497 662.642C139.497 662.678 139.497 662.714 139.497 662.749C139.497 662.785 139.497 662.82 139.497 662.855C139.497 662.89 139.497 662.925 139.497 662.96C139.497 662.994 139.497 663.028 139.497 663.062C139.497 663.096 139.497 663.13 139.497 663.163C139.497 663.197 139.497 663.23 139.497 663.263C139.497 663.296 139.497 663.329 139.497 663.361C139.497 663.394 139.497 663.426 139.497 663.458C139.497 663.489 139.497 663.521 139.497 663.552C139.497 663.584 139.497 663.615 139.497 663.646C139.497 663.676 139.497 663.707 139.497 663.737C139.497 663.767 139.497 663.797 139.497 663.827C139.497 663.857 139.497 663.886 139.497 663.915C139.497 663.944 139.497 663.973 139.497 664.002C139.497 664.031 139.497 664.059 139.497 664.087C139.497 664.115 139.497 664.143 139.497 664.17C139.497 664.198 139.497 664.225 139.497 664.252C139.497 664.279 139.497 664.305 139.497 664.331C139.497 664.358 139.497 664.384 139.497 664.41C139.497 664.435 139.497 664.461 139.497 664.486C139.497 664.511 139.497 664.536 139.497 664.561C139.497 664.585 139.497 664.609 139.497 664.633C139.497 664.657 139.497 664.681 139.497 664.705C139.497 664.728 139.497 664.751 139.497 664.774C139.497 664.797 139.497 664.819 139.497 664.842C139.497 664.864 139.497 664.886 139.497 664.907C139.497 664.929 139.497 664.95 139.497 664.971C139.497 664.992 139.497 665.013 139.497 665.033C139.497 665.054 139.497 665.074 139.497 665.094C139.497 665.114 139.497 665.133 139.497 665.152C139.497 665.171 139.497 665.19 139.497 665.209C139.497 665.227 139.497 665.246 139.497 665.264C139.497 665.282 139.497 665.299 139.497 665.317C139.497 665.334 139.497 665.351 139.497 665.368C139.497 665.384 139.497 665.401 139.497 665.417C139.497 665.433 139.497 665.449 139.497 665.464C139.497 665.479 139.497 665.494 139.497 665.509C139.497 665.524 139.497 665.538 139.497 665.553C139.497 665.567 139.497 665.581 139.497 665.594C139.497 665.608 139.497 665.621 139.497 665.634C139.497 665.646 139.497 665.659 139.497 665.671C139.497 665.683 139.497 665.695 139.497 665.707C139.497 665.718 139.497 665.729 139.497 665.74C139.497 665.751 139.497 665.762 139.497 665.772C139.497 665.782 139.497 665.792 139.497 665.802C139.497 665.811 139.497 665.82 139.497 665.829C139.497 665.838 139.497 665.847 139.497 665.855C139.497 665.863 139.497 665.871 139.497 665.878C139.497 665.886 139.497 665.893 139.497 665.9C139.497 665.907 139.497 665.913 139.497 665.919C139.497 665.925 139.497 665.931 139.497 665.937C139.497 665.942 139.497 665.947 139.497 665.952C139.497 665.957 139.497 665.961 139.497 665.965C139.497 665.969 139.497 665.973 139.497 665.976C139.497 665.98 139.497 665.983 139.497 665.985C139.497 665.988 139.497 665.99 139.497 665.992C139.497 665.994 139.497 665.996 139.497 665.997C139.497 665.998 139.497 665.999 139.497 665.999C139.497 666 144.997 666 150.497 666C150.497 666 150.497 665.999 150.497 665.998C150.497 665.997 150.497 665.996 150.497 665.994C150.497 665.993 150.497 665.991 150.497 665.988C150.497 665.986 150.497 665.983 150.497 665.98C150.497 665.977 150.497 665.973 150.497 665.969C150.497 665.966 150.497 665.961 150.497 665.957C150.497 665.952 150.497 665.947 150.497 665.942C150.497 665.937 150.497 665.931 150.497 665.925C150.497 665.919 150.497 665.912 150.497 665.905C150.497 665.898 150.497 665.891 150.497 665.884C150.497 665.876 150.497 665.868 150.497 665.86C150.497 665.851 150.497 665.843 150.497 665.833C150.497 665.824 150.497 665.815 150.497 665.805C150.497 665.795 150.497 665.785 150.497 665.774C150.497 665.763 150.497 665.752 150.497 665.741C150.497 665.73 150.497 665.718 150.497 665.706C150.497 665.693 150.497 665.681 150.497 665.668C150.497 665.655 150.497 665.641 150.497 665.628C150.497 665.614 150.497 665.6 150.497 665.585C150.497 665.571 150.497 665.556 150.497 665.54C150.497 665.525 150.497 665.509 150.497 665.493C150.497 665.477 150.497 665.46 150.497 665.443C150.497 665.426 150.497 665.409 150.497 665.391C150.497 665.373 150.497 665.355 150.497 665.337C150.497 665.318 150.497 665.299 150.497 665.28C150.497 665.261 150.497 665.241 150.497 665.221C150.497 665.2 150.497 665.18 150.497 665.159C150.497 665.138 150.497 665.116 150.497 665.095C150.497 665.073 150.497 665.051 150.497 665.028C150.497 665.005 150.497 664.982 150.497 664.959C150.497 664.935 150.497 664.911 150.497 664.887C150.497 664.863 150.497 664.838 150.497 664.813C150.497 664.788 150.497 664.762 150.497 664.736C150.497 664.71 150.497 664.684 150.497 664.657C150.497 664.63 150.497 664.603 150.497 664.575C150.497 664.548 150.497 664.52 150.497 664.491C150.497 664.463 150.497 664.434 150.497 664.404C150.497 664.375 150.497 664.345 150.497 664.315C150.497 664.285 150.497 664.254 150.497 664.223C150.497 664.192 150.497 664.16 150.497 664.128C150.497 664.096 150.497 664.064 150.497 664.031C150.497 663.998 150.497 663.965 150.497 663.931C150.497 663.898 150.497 663.864 150.497 663.829C150.497 663.795 150.497 663.76 150.497 663.724C150.497 663.689 150.497 663.653 150.497 663.616C150.497 663.58 150.497 663.543 150.497 663.506C150.497 663.469 150.497 663.431 150.497 663.393C150.497 663.355 150.497 663.317 150.497 663.278C150.497 663.239 150.497 663.199 150.497 663.159C150.497 663.119 150.497 663.079 150.497 663.038C150.497 662.998 150.497 662.956 150.497 662.915C150.497 662.873 150.497 662.831 150.497 662.788C150.497 662.746 150.497 662.703 150.497 662.659C150.497 662.616 150.497 662.572 150.497 662.527C150.497 662.483 150.497 662.438 150.497 662.393C150.497 662.347 150.497 662.301 150.497 662.255C150.497 662.209 150.497 662.162 150.497 662.115C150.497 662.068 150.497 662.02 150.497 661.972C150.497 661.924 150.497 661.875 150.497 661.826C150.497 661.777 150.497 661.728 150.497 661.678C150.497 661.628 150.497 661.577 150.497 661.526C150.497 661.475 150.497 661.424 150.497 661.372C150.497 661.32 150.497 661.268 150.497 661.215C150.497 661.162 150.497 661.109 150.497 661.055C150.497 661.002 150.497 660.947 150.497 660.893C150.497 660.838 150.497 660.783 150.497 660.727C150.497 660.671 150.497 660.615 150.497 660.559C150.497 660.502 150.497 660.445 150.497 660.387C150.497 660.33 150.497 660.271 150.497 660.213C150.497 660.154 150.497 660.095 150.497 660.036C150.497 659.976 150.497 659.916 150.497 659.856C150.497 659.795 150.497 659.734 150.497 659.673C150.497 659.611 150.497 659.549 150.497 659.487C150.497 659.424 150.497 659.361 150.497 659.298C150.497 659.234 150.497 659.17 150.497 659.106C150.497 659.041 150.497 658.976 150.497 658.911C150.497 658.846 150.497 658.78 150.497 658.713C150.497 658.647 150.497 658.58 150.497 658.512C150.497 658.445 150.497 658.377 150.497 658.308C150.497 658.24 150.497 658.171 150.497 658.102C150.497 658.032 150.497 657.962 150.497 657.892C150.497 657.821 150.497 657.75 150.497 657.679C150.497 657.607 150.497 657.535 150.497 657.463C150.497 657.39 150.497 657.317 150.497 657.244C150.497 657.17 150.497 657.096 150.497 657.021C150.497 656.947 150.497 656.872 150.497 656.796C150.497 656.721 150.497 656.645 150.497 656.568C150.497 656.491 150.497 656.414 150.497 656.336C150.497 656.259 150.497 656.181 150.497 656.102C150.497 656.023 150.497 655.944 150.497 655.864C150.497 655.785 150.497 655.704 150.497 655.623C150.497 655.543 150.497 655.461 150.497 655.379C150.497 655.298 150.497 655.215 150.497 655.132C150.497 655.049 150.497 654.966 150.497 654.882C150.497 654.798 150.497 654.714 150.497 654.629C150.497 654.544 150.497 654.458 150.497 654.372C150.497 654.286 150.497 654.199 150.497 654.112C150.497 654.025 150.497 653.937 150.497 653.849C150.497 653.761 150.497 653.672 150.497 653.583C150.497 653.493 150.497 653.403 150.497 653.313C150.497 653.223 150.497 653.132 150.497 653.04C150.497 652.949 150.497 652.857 150.497 652.764C150.497 652.672 150.497 652.579 150.497 652.485C150.497 652.391 150.497 652.297 150.497 652.202C150.497 652.108 150.497 652.012 150.497 651.916C150.497 651.821 150.497 651.724 150.497 651.627C150.497 651.53 150.497 651.433 150.497 651.335C150.497 651.237 150.497 651.138 150.497 651.039C150.497 650.94 150.497 650.84 150.497 650.74C150.497 650.639 150.497 650.539 150.497 650.437C150.497 650.336 150.497 650.234 150.497 650.131C150.497 650.029 150.497 649.926 150.497 649.822C150.497 649.718 150.497 649.614 150.497 649.509H139.497C139.497 649.614 139.497 649.718 139.497 649.822C139.497 649.926 139.497 650.029 139.497 650.131C139.497 650.234 139.497 650.336 139.497 650.437C139.497 650.539 139.497 650.639 139.497 650.74C139.497 650.84 139.497 650.94 139.497 651.039C139.497 651.138 139.497 651.237 139.497 651.335C139.497 651.433 139.497 651.53 139.497 651.627C139.497 651.724 139.497 651.821 139.497 651.916C139.497 652.012 139.497 652.108 139.497 652.202C139.497 652.297 139.497 652.391 139.497 652.485C139.497 652.579 139.497 652.672 139.497 652.764C139.497 652.857 139.497 652.949 139.497 653.04C139.497 653.132 139.497 653.223 139.497 653.313C139.497 653.403 139.497 653.493 139.497 653.583C139.497 653.672 139.497 653.761 139.497 653.849C139.497 653.937 139.497 654.025 139.497 654.112C139.497 654.199 139.497 654.286 139.497 654.372C139.497 654.458 139.497 654.544 139.497 654.629C139.497 654.714 139.497 654.798 139.497 654.882C139.497 654.966 139.497 655.049 139.497 655.132C139.497 655.215 139.497 655.298 139.497 655.379C139.497 655.461 139.497 655.543 139.497 655.623C139.497 655.704 139.497 655.785 139.497 655.864C139.497 655.944 139.497 656.023 139.497 656.102C139.497 656.181 139.497 656.259 139.497 656.336C139.497 656.414 139.497 656.491 139.497 656.568C139.497 656.645 139.497 656.721 139.497 656.796C139.497 656.872 139.497 656.947 139.497 657.021C139.497 657.096 139.497 657.17 139.497 657.244C139.497 657.317 139.497 657.39 139.497 657.463C139.497 657.535 139.497 657.607 139.497 657.679C139.497 657.75 139.497 657.821 139.497 657.892C139.497 657.962 139.497 658.032 139.497 658.102C139.497 658.171 139.497 658.24 139.497 658.308C139.497 658.377 139.497 658.445 139.497 658.512C139.497 658.58 139.497 658.647 139.497 658.713C139.497 658.78 139.497 658.846 139.497 658.911C139.497 658.976 139.497 659.041 139.497 659.106C139.497 659.17 139.497 659.234 139.497 659.298C139.497 659.361 139.497 659.424 139.497 659.487C139.497 659.549 139.497 659.611 139.497 659.673C139.497 659.734 139.497 659.795 139.497 659.856C139.497 659.916 139.497 659.976 139.497 660.036C139.497 660.095 139.497 660.154 139.497 660.213C139.497 660.271 139.497 660.33 139.497 660.387C139.497 660.445 139.497 660.502 139.497 660.559C139.497 660.615 139.497 660.671 139.497 660.727C139.497 660.783 139.497 660.838 139.497 660.893C139.497 660.947 139.497 661.002 139.497 661.055C139.497 661.109 139.497 661.162 139.497 661.215C139.497 661.268 139.497 661.32 139.497 661.372C139.497 661.424 139.497 661.475 139.497 661.526C139.497 661.577 139.497 661.628 139.497 661.678C139.497 661.728 139.497 661.777 139.497 661.826C139.497 661.875 139.497 661.924 139.497 661.972C139.497 662.02 139.497 662.068 139.497 662.115C139.497 662.162 139.497 662.209 139.497 662.255C139.497 662.301 139.497 662.347 139.497 662.393C139.497 662.438 139.497 662.483 139.497 662.527C139.497 662.572 139.497 662.616 139.497 662.659C139.497 662.703 139.497 662.746 139.497 662.788C139.497 662.831 139.497 662.873 139.497 662.915C139.497 662.956 139.497 662.998 139.497 663.038C139.497 663.079 139.497 663.119 139.497 663.159C139.497 663.199 139.497 663.239 139.497 663.278C139.497 663.317 139.497 663.355 139.497 663.393C139.497 663.431 139.497 663.469 139.497 663.506C139.497 663.543 139.497 663.58 139.497 663.616C139.497 663.653 139.497 663.689 139.497 663.724C139.497 663.76 139.497 663.795 139.497 663.829C139.497 663.864 139.497 663.898 139.497 663.931C139.497 663.965 139.497 663.998 139.497 664.031C139.497 664.064 139.497 664.096 139.497 664.128C139.497 664.16 139.497 664.192 139.497 664.223C139.497 664.254 139.497 664.285 139.497 664.315C139.497 664.345 139.497 664.375 139.497 664.404C139.497 664.434 139.497 664.463 139.497 664.491C139.497 664.52 139.497 664.548 139.497 664.575C139.497 664.603 139.497 664.63 139.497 664.657C139.497 664.684 139.497 664.71 139.497 664.736C139.497 664.762 139.497 664.788 139.497 664.813C139.497 664.838 139.497 664.863 139.497 664.887C139.497 664.911 139.497 664.935 139.497 664.959C139.497 664.982 139.497 665.005 139.497 665.028C139.497 665.051 139.497 665.073 139.497 665.095C139.497 665.116 139.497 665.138 139.497 665.159C139.497 665.18 139.497 665.2 139.497 665.221C139.497 665.241 139.497 665.261 139.497 665.28C139.497 665.299 139.497 665.318 139.497 665.337C139.497 665.355 139.497 665.373 139.497 665.391C139.497 665.409 139.497 665.426 139.497 665.443C139.497 665.46 139.497 665.477 139.497 665.493C139.497 665.509 139.497 665.525 139.497 665.54C139.497 665.556 139.497 665.571 139.497 665.585C139.497 665.6 139.497 665.614 139.497 665.628C139.497 665.641 139.497 665.655 139.497 665.668C139.497 665.681 139.497 665.693 139.497 665.706C139.497 665.718 139.497 665.73 139.497 665.741C139.497 665.752 139.497 665.763 139.497 665.774C139.497 665.785 139.497 665.795 139.497 665.805C139.497 665.815 139.497 665.824 139.497 665.833C139.497 665.843 139.497 665.851 139.497 665.86C139.497 665.868 139.497 665.876 139.497 665.884C139.497 665.891 139.497 665.898 139.497 665.905C139.497 665.912 139.497 665.919 139.497 665.925C139.497 665.931 139.497 665.937 139.497 665.942C139.497 665.947 139.497 665.952 139.497 665.957C139.497 665.961 139.497 665.966 139.497 665.969C139.497 665.973 139.497 665.977 139.497 665.98C139.497 665.983 139.497 665.986 139.497 665.988C139.497 665.991 139.497 665.993 139.497 665.994C139.497 665.996 139.497 665.997 139.497 665.998C139.497 665.999 139.497 666 139.497 666C144.997 666 150.497 666 150.497 665.999C150.497 665.999 150.497 665.998 150.497 665.997C150.497 665.996 150.497 665.994 150.497 665.992C150.497 665.99 150.497 665.988 150.497 665.985C150.497 665.983 150.497 665.98 150.497 665.976C150.497 665.973 150.497 665.969 150.497 665.965C150.497 665.961 150.497 665.957 150.497 665.952C150.497 665.947 150.497 665.942 150.497 665.937C150.497 665.931 150.497 665.925 150.497 665.919C150.497 665.913 150.497 665.907 150.497 665.9C150.497 665.893 150.497 665.886 150.497 665.878C150.497 665.871 150.497 665.863 150.497 665.855C150.497 665.847 150.497 665.838 150.497 665.829C150.497 665.82 150.497 665.811 150.497 665.802C150.497 665.792 150.497 665.782 150.497 665.772C150.497 665.762 150.497 665.751 150.497 665.74C150.497 665.729 150.497 665.718 150.497 665.707C150.497 665.695 150.497 665.683 150.497 665.671C150.497 665.659 150.497 665.646 150.497 665.634C150.497 665.621 150.497 665.608 150.497 665.594C150.497 665.581 150.497 665.567 150.497 665.553C150.497 665.538 150.497 665.524 150.497 665.509C150.497 665.494 150.497 665.479 150.497 665.464C150.497 665.449 150.497 665.433 150.497 665.417C150.497 665.401 150.497 665.384 150.497 665.368C150.497 665.351 150.497 665.334 150.497 665.317C150.497 665.299 150.497 665.282 150.497 665.264C150.497 665.246 150.497 665.227 150.497 665.209C150.497 665.19 150.497 665.171 150.497 665.152C150.497 665.133 150.497 665.114 150.497 665.094C150.497 665.074 150.497 665.054 150.497 665.033C150.497 665.013 150.497 664.992 150.497 664.971C150.497 664.95 150.497 664.929 150.497 664.907C150.497 664.886 150.497 664.864 150.497 664.842C150.497 664.819 150.497 664.797 150.497 664.774C150.497 664.751 150.497 664.728 150.497 664.705C150.497 664.681 150.497 664.657 150.497 664.633C150.497 664.609 150.497 664.585 150.497 664.561C150.497 664.536 150.497 664.511 150.497 664.486C150.497 664.461 150.497 664.435 150.497 664.41C150.497 664.384 150.497 664.358 150.497 664.331C150.497 664.305 150.497 664.279 150.497 664.252C150.497 664.225 150.497 664.198 150.497 664.17C150.497 664.143 150.497 664.115 150.497 664.087C150.497 664.059 150.497 664.031 150.497 664.002C150.497 663.973 150.497 663.944 150.497 663.915C150.497 663.886 150.497 663.857 150.497 663.827C150.497 663.797 150.497 663.767 150.497 663.737C150.497 663.707 150.497 663.676 150.497 663.646C150.497 663.615 150.497 663.584 150.497 663.552C150.497 663.521 150.497 663.489 150.497 663.458C150.497 663.426 150.497 663.394 150.497 663.361C150.497 663.329 150.497 663.296 150.497 663.263C150.497 663.23 150.497 663.197 150.497 663.163C150.497 663.13 150.497 663.096 150.497 663.062C150.497 663.028 150.497 662.994 150.497 662.96C150.497 662.925 150.497 662.89 150.497 662.855C150.497 662.82 150.497 662.785 150.497 662.749C150.497 662.714 150.497 662.678 150.497 662.642C150.497 662.606 150.497 662.57 150.497 662.533C150.497 662.496 150.497 662.46 150.497 662.423C150.497 662.385 150.497 662.348 150.497 662.311C150.497 662.273 150.497 662.235 150.497 662.197C150.497 662.159 150.497 662.121 150.497 662.082C150.497 662.044 150.497 662.005 150.497 661.966C150.497 661.927 150.497 661.888 150.497 661.848C150.497 661.809 150.497 661.769 150.497 661.729C150.497 661.689 150.497 661.648 150.497 661.608C150.497 661.568 150.497 661.527 150.497 661.486C150.497 661.445 150.497 661.404 150.497 661.362C150.497 661.321 150.497 661.279 150.497 661.237C150.497 661.195 150.497 661.153 150.497 661.111C150.497 661.069 150.497 661.026 150.497 660.983C150.497 660.94 150.497 660.897 150.497 660.854C150.497 660.811 150.497 660.767 150.497 660.724C150.497 660.68 150.497 660.636 150.497 660.592C150.497 660.548 150.497 660.503 150.497 660.459C150.497 660.414 150.497 660.369 150.497 660.324C150.497 660.279 150.497 660.234 150.497 660.188C150.497 660.143 150.497 660.097 150.497 660.051C150.497 660.005 150.497 659.959 150.497 659.913C150.497 659.866 150.497 659.82 150.497 659.773C150.497 659.726 150.497 659.679 150.497 659.632C150.497 659.585 150.497 659.537 150.497 659.49C150.497 659.442 150.497 659.394 150.497 659.346C150.497 659.298 150.497 659.25 150.497 659.201C150.497 659.153 150.497 659.104 150.497 659.055C150.497 659.007 150.497 658.957 150.497 658.908C150.497 658.859 150.497 658.809 150.497 658.76C150.497 658.71 150.497 658.66 150.497 658.61C150.497 658.56 150.497 658.51 150.497 658.459C150.497 658.409 150.497 658.358 150.497 658.307C150.497 658.257 150.497 658.206 150.497 658.154C150.497 658.103 150.497 658.052 150.497 658C150.497 657.948 150.497 657.897 150.497 657.845C150.497 657.793 150.497 657.74 150.497 657.688C150.497 657.636 150.497 657.583 150.497 657.53C150.497 657.477 150.497 657.425 150.497 657.371C150.497 657.318 150.497 657.265 150.497 657.211C150.497 657.158 150.497 657.104 150.497 657.05C150.497 656.997 150.497 656.943 150.497 656.888C150.497 656.834 150.497 656.78 150.497 656.725C150.497 656.671 150.497 656.616 150.497 656.561C150.497 656.506 150.497 656.451 150.497 656.396C150.497 656.341 150.497 656.285 150.497 656.229C150.497 656.174 150.497 656.118 150.497 656.062C150.497 656.006 150.497 655.95 150.497 655.894C150.497 655.838 150.497 655.781 150.497 655.724C150.497 655.668 150.497 655.611 150.497 655.554C150.497 655.497 150.497 655.44 150.497 655.383C150.497 655.326 150.497 655.268 150.497 655.211C150.497 655.153 150.497 655.095 150.497 655.037C150.497 654.979 150.497 654.921 150.497 654.863C150.497 654.805 150.497 654.746 150.497 654.688C150.497 654.629 150.497 654.571 150.497 654.512C150.497 654.453 150.497 654.394 150.497 654.335C150.497 654.276 150.497 654.216 150.497 654.157C150.497 654.098 150.497 654.038 150.497 653.978C150.497 653.918 150.497 653.859 150.497 653.799C150.497 653.738 150.497 653.678 150.497 653.618C150.497 653.558 150.497 653.497 150.497 653.437C150.497 653.376 150.497 653.315 150.497 653.254C150.497 653.193 150.497 653.132 150.497 653.071C150.497 653.01 150.497 652.949 150.497 652.887C150.497 652.826 150.497 652.764 150.497 652.702C150.497 652.641 150.497 652.579 150.497 652.517C150.497 652.455 150.497 652.393 150.497 652.331C150.497 652.268 150.497 652.206 150.497 652.143C150.497 652.081 150.497 652.018 150.497 651.955C150.497 651.893 150.497 651.83 150.497 651.767C150.497 651.704 150.497 651.641 150.497 651.577C150.497 651.514 150.497 651.451 150.497 651.387C150.497 651.324 150.497 651.26 150.497 651.196C150.497 651.132 150.497 651.069 150.497 651.005C150.497 650.941 150.497 650.876 150.497 650.812C150.497 650.748 150.497 650.684 150.497 650.619C150.497 650.555 150.497 650.49 150.497 650.425C150.497 650.361 150.497 650.296 150.497 650.231C150.497 650.166 150.497 650.101 150.497 650.036C150.497 649.971 150.497 649.906 150.497 649.84C150.497 649.775 150.497 649.709 150.497 649.644C150.497 649.578 150.497 649.513 150.497 649.447C150.497 649.381 150.497 649.315 150.497 649.249C150.497 649.183 150.497 649.117 150.497 649.051C150.497 648.985 150.497 648.918 150.497 648.852C150.497 648.786 150.497 648.719 150.497 648.652C150.497 648.586 150.497 648.519 150.497 648.452C150.497 648.386 150.497 648.319 150.497 648.252C150.497 648.185 150.497 648.118 150.497 648.051C150.497 647.983 150.497 647.916 150.497 647.849C150.497 647.782 150.497 647.714 150.497 647.647C150.497 647.579 150.497 647.512 150.497 647.444C150.497 647.376 150.497 647.308 150.497 647.241C150.497 647.173 150.497 647.105 150.497 647.037C150.497 646.969 150.497 646.901 150.497 646.832C150.497 646.764 150.497 646.696 150.497 646.628C150.497 646.559 150.497 646.491 150.497 646.422C150.497 646.354 150.497 646.285 150.497 646.217C150.497 646.148 150.497 646.079 150.497 646.01C150.497 645.942 150.497 645.873 150.497 645.804C150.497 645.735 150.497 645.666 150.497 645.597C150.497 645.528 150.497 645.459 150.497 645.389C150.497 645.32 150.497 645.251 150.497 645.181C150.497 645.112 150.497 645.043 150.497 644.973C150.497 644.904 150.497 644.834 150.497 644.765C150.497 644.695 150.497 644.625 150.497 644.555C150.497 644.486 150.497 644.416 150.497 644.346C150.497 644.276 150.497 644.206 150.497 644.136C150.497 644.066 150.497 643.996 150.497 643.926C150.497 643.856 150.497 643.786 150.497 643.716C150.497 643.646 150.497 643.575 150.497 643.505C150.497 643.435 150.497 643.364 150.497 643.294C150.497 643.224 150.497 643.153 150.497 643.083C150.497 643.012 150.497 642.942 150.497 642.871C150.497 642.8 150.497 642.73 150.497 642.659C150.497 642.588 150.497 642.518 150.497 642.447C150.497 642.376 150.497 642.305 150.497 642.234C150.497 642.164 150.497 642.093 150.497 642.022C150.497 641.951 150.497 641.88 150.497 641.809C150.497 641.738 150.497 641.667 150.497 641.596C150.497 641.525 150.497 641.453 150.497 641.382C150.497 641.311 150.497 641.24 150.497 641.169C150.497 641.097 150.497 641.026 150.497 640.955C150.497 640.884 150.497 640.812 150.497 640.741C150.497 640.67 150.497 640.598 150.497 640.527C150.497 640.456 150.497 640.384 150.497 640.313C150.497 640.241 150.497 640.17 150.497 640.098C150.497 640.027 150.497 639.955 150.497 639.884C150.497 639.812 150.497 639.741 150.497 639.669C150.497 639.597 150.497 639.526 150.497 639.454C150.497 639.383 150.497 639.311 150.497 639.239C150.497 639.168 150.497 639.096 150.497 639.024C150.497 638.953 150.497 638.881 150.497 638.809C150.497 638.738 150.497 638.666 150.497 638.594C150.497 638.522 150.497 638.451 150.497 638.379C150.497 638.307 150.497 638.235 150.497 638.164C150.497 638.092 150.497 638.02 150.497 637.948C150.497 637.877 150.497 637.805 150.497 637.733C150.497 637.661 150.497 637.589 150.497 637.518C150.497 637.446 150.497 637.374 150.497 637.302C150.497 637.231 150.497 637.159 150.497 637.087C150.497 637.015 150.497 636.943 150.497 636.872C150.497 636.8 150.497 636.728 150.497 636.656C150.497 636.585 150.497 636.513 150.497 636.441C150.497 636.369 150.497 636.298 150.497 636.226C150.497 636.154 150.497 636.082 150.497 636.011C150.497 635.939 150.497 635.867 150.497 635.796C150.497 635.724 150.497 635.652 150.497 635.581C150.497 635.509 150.497 635.437 150.497 635.366C150.497 635.294 150.497 635.222 150.497 635.151C150.497 635.079 150.497 635.008 150.497 634.936C150.497 634.865 150.497 634.793 150.497 634.721C150.497 634.65 150.497 634.578 150.497 634.507C150.497 634.436 150.497 634.364 150.497 634.293C150.497 634.221 150.497 634.15 150.497 634.079C150.497 634.007 150.497 633.936 150.497 633.865C150.497 633.793 150.497 633.722 150.497 633.651C150.497 633.58 150.497 633.508 150.497 633.437C150.497 633.366 150.497 633.295 150.497 633.224C150.497 633.153 150.497 633.082 150.497 633.01C150.497 632.939 150.497 632.868 150.497 632.797C150.497 632.727 150.497 632.656 150.497 632.585C150.497 632.514 150.497 632.443 150.497 632.372C150.497 632.301 150.497 632.231 150.497 632.16C150.497 632.089 150.497 632.019 150.497 631.948C150.497 631.877 150.497 631.807 150.497 631.736C150.497 631.666 150.497 631.595 150.497 631.525C150.497 631.454 150.497 631.384 150.497 631.314C150.497 631.243 150.497 631.173 150.497 631.103C150.497 631.033 150.497 630.962 150.497 630.892C150.497 630.822 150.497 630.752 150.497 630.682C150.497 630.612 150.497 630.542 150.497 630.472C150.497 630.402 150.497 630.332 150.497 630.263C150.497 630.193 150.497 630.123 150.497 630.054C150.497 629.984 150.497 629.914 150.497 629.845C150.497 629.775 150.497 629.706 150.497 629.636C150.497 629.567 150.497 629.498 150.497 629.428C150.497 629.359 150.497 629.29 150.497 629.221C150.497 629.152 150.497 629.083 150.497 629.014C150.497 628.945 150.497 628.876 150.497 628.807C150.497 628.738 150.497 628.669 150.497 628.601C150.497 628.532 150.497 628.463 150.497 628.395C150.497 628.326 150.497 628.258 150.497 628.189C150.497 628.121 150.497 628.053 150.497 627.984C150.497 627.916 150.497 627.848 150.497 627.78C150.497 627.712 150.497 627.644 150.497 627.576C150.497 627.508 150.497 627.44 150.497 627.373C150.497 627.305 150.497 627.237 150.497 627.17C150.497 627.102 150.497 627.035 150.497 626.967C150.497 626.9 150.497 626.833 150.497 626.765C150.497 626.698 150.497 626.631 150.497 626.564C150.497 626.497 150.497 626.43 150.497 626.363C150.497 626.296 150.497 626.23 150.497 626.163C150.497 626.096 150.497 626.03 150.497 625.963C150.497 625.897 150.497 625.831 150.497 625.764C150.497 625.698 150.497 625.632 150.497 625.566C150.497 625.5 150.497 625.434 150.497 625.368C150.497 625.302 150.497 625.236 150.497 625.171C150.497 625.105 150.497 625.04 150.497 624.974C150.497 624.909 150.497 624.843 150.497 624.778C150.497 624.713 150.497 624.648 150.497 624.583C150.497 624.518 150.497 624.453 150.497 624.388C150.497 624.324 150.497 624.259 150.497 624.194C150.497 624.13 150.497 624.065 150.497 624.001C150.497 623.937 150.497 623.873 150.497 623.809C150.497 623.745 150.497 623.681 150.497 623.617C150.497 623.553 150.497 623.489 150.497 623.426C150.497 623.362 150.497 623.299 150.497 623.235C150.497 623.172 150.497 623.109 150.497 623.046C150.497 622.982 150.497 622.92 150.497 622.857C150.497 622.794 150.497 622.731 150.497 622.669C150.497 622.606 150.497 622.543 150.497 622.481C150.497 622.419 150.497 622.357 150.497 622.295C150.497 622.232 150.497 622.171 150.497 622.109C150.497 622.047 150.497 621.985 150.497 621.924C150.497 621.862 150.497 621.801 150.497 621.74C150.497 621.678 150.497 621.617 150.497 621.556C150.497 621.495 150.497 621.434 150.497 621.374C150.497 621.313 150.497 621.252 150.497 621.192C150.497 621.132 150.497 621.071 150.497 621.011C150.497 620.951 150.497 620.891 150.497 620.831C150.497 620.772 150.497 620.712 150.497 620.652C150.497 620.593 150.497 620.533 150.497 620.474C150.497 620.415 150.497 620.356 150.497 620.297C150.497 620.238 150.497 620.179 150.497 620.121C150.497 620.062 150.497 620.003 150.497 619.945C150.497 619.887 150.497 619.829 150.497 619.771C150.497 619.713 150.497 619.655 150.497 619.597C150.497 619.539 150.497 619.482 150.497 619.425C150.497 619.367 150.497 619.31 150.497 619.253C150.497 619.196 150.497 619.139 150.497 619.082C150.497 619.026 150.497 618.969 150.497 618.913C150.497 618.856 150.497 618.8 150.497 618.744C150.497 618.688 150.497 618.632 150.497 618.576C150.497 618.521 150.497 618.465 150.497 618.41C150.497 618.355 150.497 618.299 150.497 618.244C150.497 618.189 150.497 618.134 150.497 618.08C150.497 618.025 150.497 617.971 150.497 617.916C150.497 617.862 150.497 617.808 150.497 617.754C150.497 617.7 150.497 617.646 150.497 617.593C150.497 617.539 150.497 617.486 150.497 617.432C150.497 617.379 150.497 617.326 150.497 617.273C150.497 617.22 150.497 617.168 150.497 617.115C150.497 617.063 150.497 617.01 150.497 616.958C150.497 616.906 150.497 616.854 150.497 616.803C150.497 616.751 150.497 616.699 150.497 616.648C150.497 616.597 150.497 616.545 150.497 616.494C150.497 616.443 150.497 616.393 150.497 616.342C150.497 616.292 150.497 616.241 150.497 616.191C150.497 616.141 150.497 616.091 150.497 616.041C150.497 615.991 150.497 615.942 150.497 615.892C150.497 615.843 150.497 615.794 150.497 615.745C150.497 615.696 150.497 615.647 150.497 615.598C150.497 615.55 150.497 615.501 150.497 615.453C150.497 615.405 150.497 615.357 150.497 615.309C150.497 615.262 150.497 615.214 150.497 615.167C150.497 615.119 150.497 615.072 150.497 615.025C150.497 614.978 150.497 614.932 150.497 614.885C150.497 614.839 150.497 614.793 150.497 614.747C150.497 614.7 150.497 614.655 150.497 614.609C150.497 614.563 150.497 614.518 150.497 614.473C150.497 614.428 150.497 614.383 150.497 614.338C150.497 614.293 150.497 614.249 150.497 614.204C150.497 614.16 150.497 614.116 150.497 614.072C150.497 614.028 150.497 613.985 150.497 613.941C150.497 613.898 150.497 613.855 150.497 613.812C150.497 613.769 150.497 613.726 150.497 613.684C150.497 613.641 150.497 613.599 150.497 613.557C150.497 613.515 150.497 613.473 150.497 613.431C150.497 613.39 150.497 613.349 150.497 613.307C150.497 613.266 150.497 613.225 150.497 613.185C150.497 613.144 150.497 613.104 150.497 613.064C150.497 613.024 150.497 612.984 150.497 612.944C150.497 612.904 150.497 612.865 150.497 612.826C150.497 612.787 150.497 612.748 150.497 612.709C150.497 612.67 150.497 612.632 150.497 612.594C150.497 612.555 150.497 612.517 150.497 612.48C150.497 612.442 150.497 612.405 150.497 612.367C150.497 612.33 150.497 612.293 150.497 612.256C150.497 612.22 150.497 612.183 150.497 612.147C150.497 612.111 150.497 612.075 150.497 612.039C150.497 612.004 150.497 611.968 150.497 611.933C150.497 611.898 150.497 611.863 150.497 611.828C150.497 611.794 150.497 611.759 150.497 611.725C150.497 611.691 150.497 611.657 150.497 611.623C150.497 611.59 150.497 611.556 150.497 611.523C150.497 611.49 150.497 611.457 150.497 611.425C150.497 611.392 150.497 611.36 150.497 611.328C150.497 611.296 150.497 611.264 150.497 611.233C150.497 611.201 150.497 611.17 150.497 611.139C150.497 611.108 150.497 611.077 150.497 611.047C150.497 611.016 150.497 610.986 150.497 610.956C150.497 610.927 150.497 610.897 150.497 610.868C150.497 610.838 150.497 610.809 150.497 610.781C150.497 610.752 150.497 610.723 150.497 610.695C150.497 610.667 150.497 610.639 150.497 610.612C150.497 610.584 150.497 610.557 150.497 610.529C150.497 610.502 150.497 610.476 150.497 610.449C150.497 610.423 150.497 610.396 150.497 610.371C150.497 610.345 150.497 610.319 150.497 610.294C150.497 610.268 150.497 610.243 150.497 610.219C150.497 610.194 150.497 610.169 150.497 610.145C150.497 610.121 150.497 610.097 150.497 610.073C150.497 610.05 150.497 610.027 150.497 610.004C150.497 609.981 150.497 609.958 150.497 609.936C150.497 609.913 150.497 609.891 150.497 609.869C150.497 609.847 150.497 609.826 150.497 609.805C150.497 609.784 150.497 609.763 150.497 609.742C150.497 609.721 150.497 609.701 150.497 609.681C150.497 609.661 150.497 609.642 150.497 609.622C150.497 609.603 150.497 609.584 150.497 609.565C150.497 609.546 150.497 609.528 150.497 609.51C150.497 609.492 150.497 609.474 150.497 609.456C150.497 609.439 150.497 609.422 150.497 609.405C150.497 609.388 150.497 609.371 150.497 609.355C150.497 609.339 150.497 609.323 150.497 609.307C150.497 609.292 150.497 609.276 150.497 609.261C150.497 609.246 150.497 609.232 150.497 609.217C150.497 609.203 150.497 609.189 150.497 609.175C150.497 609.162 150.497 609.148 150.497 609.135C150.497 609.122 150.497 609.11 150.497 609.097C150.497 609.085 150.497 609.073 150.497 609.061C150.497 609.049 150.497 609.038 150.497 609.027C150.497 609.016 150.497 609.005 150.497 608.995C150.497 608.984 150.497 608.974 150.497 608.965C150.497 608.955 150.497 608.945 150.497 608.936C150.497 608.927 150.497 608.919 150.497 608.91C150.497 608.902 150.497 608.894 150.497 608.886C150.497 608.878 150.497 608.871 150.497 608.864C150.497 608.857 150.497 608.85 150.497 608.844C150.497 608.838 150.497 608.832 150.497 608.826C150.497 608.82 150.497 608.815 150.497 608.81C150.497 608.805 150.497 608.801 150.497 608.796C150.497 608.792 150.497 608.788 150.497 608.785C150.497 608.781 150.497 608.778 150.497 608.775C150.497 608.772 150.497 608.77 150.497 608.767C150.497 608.765 150.497 608.763 150.497 608.762C150.497 608.761 150.497 608.76 150.497 608.759C150.497 608.758 150.497 608.758 144.997 608.758ZM149.798 611.442C159.217 594.593 166.496 586.416 174.117 583.688C181.411 581.076 190.831 582.893 206.465 591.794L211.908 582.235C195.861 573.099 182.588 568.971 170.409 573.332C158.555 577.576 149.58 589.289 140.196 606.074L149.798 611.442ZM78.8184 539.271C75.4035 545.871 71.7881 550.313 67.5476 553.787C63.2444 557.313 58.0583 560.042 51.1685 562.935L55.4267 573.077C62.7 570.024 69.0124 566.808 74.5191 562.296C80.0885 557.733 84.5944 552.044 88.5881 544.326L78.8184 539.271ZM51.1685 562.935C43.8983 565.987 33.2518 566.132 23.7051 565.24C19.0671 564.807 14.9327 564.155 11.9584 563.612C10.4743 563.341 9.28673 563.098 8.47882 562.925C8.07505 562.838 7.76666 562.769 7.56405 562.723C7.46276 562.7 7.38796 562.682 7.34096 562.671C7.31746 562.666 7.30091 562.662 7.29148 562.66C7.28677 562.659 7.28383 562.658 7.2827 562.658C7.28213 562.658 7.28201 562.657 7.28235 562.658C7.28251 562.658 7.28311 562.658 7.28319 562.658C7.28389 562.658 7.28471 562.658 6 568.006C4.71529 573.354 4.71634 573.354 4.7175 573.354C4.71804 573.354 4.71932 573.355 4.7204 573.355C4.72257 573.356 4.7252 573.356 4.72828 573.357C4.73445 573.358 4.74245 573.36 4.75226 573.363C4.77188 573.367 4.79875 573.374 4.83269 573.382C4.90058 573.397 4.99681 573.42 5.12007 573.448C5.36654 573.504 5.72129 573.583 6.17374 573.68C7.07828 573.874 8.37554 574.139 9.98074 574.433C13.1851 575.018 17.6475 575.722 22.6822 576.192C32.4808 577.107 45.483 577.252 55.4267 573.077L51.1685 562.935ZM6 486.502C8.17747 491.553 8.17652 491.553 8.17581 491.554C8.17589 491.554 8.17541 491.554 8.17555 491.554C8.17584 491.554 8.17705 491.553 8.17918 491.552C8.18343 491.55 8.19136 491.547 8.2029 491.542C8.22597 491.532 8.26352 491.516 8.31512 491.495C8.41832 491.451 8.57772 491.384 8.79008 491.297C9.21486 491.121 9.85109 490.863 10.6729 490.541C12.3176 489.897 14.7003 489.001 17.6153 488.007C23.4648 486.012 31.3661 483.655 39.7003 482.138C48.099 480.609 56.5756 480.002 63.7171 481.243C70.7836 482.471 75.9689 485.379 78.9732 490.443L88.4333 484.83C83.2557 476.103 74.6372 471.976 65.6002 470.405C56.6383 468.848 46.7118 469.681 37.7302 471.316C28.684 472.963 20.2277 475.494 14.0647 477.596C10.9734 478.65 8.43612 479.604 6.66234 480.299C5.77499 480.646 5.07739 480.929 4.59566 481.128C4.35476 481.227 4.16772 481.305 4.03781 481.36C3.97285 481.388 3.92216 481.409 3.88615 481.425C3.86814 481.432 3.8538 481.438 3.84318 481.443C3.83788 481.445 3.8335 481.447 3.83005 481.449C3.82833 481.449 3.82645 481.45 3.82559 481.451C3.82395 481.451 3.82253 481.452 6 486.502ZM78.9732 490.443C88.3969 506.325 87.6743 522.155 78.8184 539.271L88.5881 544.326C98.8435 524.505 100.148 504.574 88.4333 484.83L78.9732 490.443Z" fill="#FF3C3C"/>
<path d="M355 587.394C300.723 677.177 379.839 788.447 294.283 735.114M241.386 587.394C207.539 601.494 197.264 608.998 188.949 621.926C179.595 657.873 191.295 667.273 241.386 665.666C271.22 664.318 282.668 657.395 294.283 633.436C296.687 585.257 286.289 573.625 241.386 587.394Z" stroke="#FF3C3C" stroke-width="11"/>
<path d="M422.493 626.882C385.29 659.364 487.577 647.483 492.15 626.882C496.723 606.281 482.966 578.416 447.823 582.38C407.106 591.549 407.852 620.658 403.144 666.439C399.865 711.024 453.452 724.95 468.931 698.992" stroke="#FF3C3C" stroke-width="11"/>
<path d="M617 582C568.103 585.565 559 592.5 556.5 648C554 703.5 570.14 721.774 617 720.5" stroke="#FF3C3C" stroke-width="11"/>
<path d="M674 546C725 668.5 634.397 779.762 704 777.5" stroke="#FF3C3C" stroke-width="11"/>
<path d="M740 648L650 663.5" stroke="#FF3C3C" stroke-width="11"/>
<path d="M863.062 660.613C827.203 617.295 767.44 697.796 773.416 718.498C779.393 739.2 858.082 748.4 863.062 752.999C868.042 757.598 891.516 780.812 791.346 799" stroke="#FF3C3C" stroke-width="11"/>
</svg>
