<svg width="532" height="297" viewBox="0 0 532 297" fill="none" xmlns="http://www.w3.org/2000/svg">
<path d="M530.664 23.8018C531.659 21.2259 530.378 18.331 527.802 17.3359L485.825 1.11989C483.249 0.124791 480.354 1.40628 479.359 3.98218C478.364 6.55808 479.646 9.45294 482.222 10.448L519.534 24.8623L505.12 62.1749C504.125 64.7508 505.406 67.6456 507.982 68.6407C510.558 69.6358 513.453 68.3543 514.448 65.7784L530.664 23.8018ZM5 192.47L3.14388 187.827L0 189.084V192.47H5ZM31.625 210.04L35.9913 212.476L31.625 210.04ZM21.2065 218.368L23.0205 223.027L23.0205 223.027L21.2065 218.368ZM31.625 192.83L27.4134 195.525L27.4134 195.525L31.625 192.83ZM311.371 272.943C324.312 277.778 345.196 282.594 367.625 285.942C390.09 289.294 414.512 291.235 434.574 290.16C444.585 289.623 453.753 288.324 461.126 285.947C468.336 283.624 474.793 279.959 477.941 273.976C481.282 267.625 480.087 260.345 475.713 252.877C471.372 245.463 463.488 237.052 451.724 227.444L445.398 235.189C456.806 244.506 463.627 252.027 467.084 257.93C470.509 263.779 470.205 267.202 469.091 269.319C467.784 271.805 464.438 274.373 458.059 276.43C451.842 278.433 443.632 279.659 434.038 280.174C414.89 281.201 391.192 279.348 369.102 276.051C346.977 272.749 326.873 268.06 314.871 263.575L311.371 272.943ZM451.724 227.444C429.422 209.228 422.474 192.269 422.189 177.132C421.897 161.606 428.552 147.025 435.629 133.412C439.072 126.79 442.723 120.191 445.306 114.239C447.866 108.339 449.81 102.164 449.171 96.2994C448.478 89.9434 444.876 84.8055 438.336 81.0372C432.071 77.4273 422.943 74.9468 410.473 73.3597L409.21 83.2797C421.24 84.8107 428.8 87.084 433.344 89.7019C437.612 92.1615 438.94 94.7252 439.23 97.3829C439.573 100.532 438.552 104.682 436.132 110.258C433.735 115.782 430.391 121.808 426.757 128.799C419.678 142.414 411.846 159.012 412.191 177.321C412.543 196.019 421.356 215.552 445.398 235.189L451.724 227.444ZM410.473 73.3597C398.249 71.8041 390.969 70.0675 387.271 68.4085C385.306 67.5271 385.279 67.0662 385.52 67.5226C385.715 67.8936 385.833 68.4297 385.746 68.9811C385.672 69.4517 385.495 69.6332 385.592 69.5058C385.853 69.1599 386.696 68.3748 388.626 67.263C390.458 66.2078 392.902 65.0638 395.93 63.8474C401.983 61.4167 409.944 58.865 419.09 56.247C437.383 51.0106 459.823 45.6717 480.141 40.599C500.192 35.593 518.564 30.7597 528.024 26.5721L523.976 17.4279C515.493 21.1833 498.124 25.8024 477.719 30.8968C457.581 35.9246 434.849 41.3343 416.338 46.6331C407.082 49.2826 398.734 51.9452 392.204 54.5678C388.941 55.878 386.026 57.2203 383.634 58.5978C381.341 59.9186 379.097 61.5124 377.612 63.4783C376.835 64.5067 376.121 65.8274 375.869 67.4186C375.605 69.0905 375.906 70.7288 376.671 72.1818C378.051 74.8021 380.709 76.4246 383.178 77.5324C388.348 79.8519 396.934 81.7173 409.21 83.2797L410.473 73.3597ZM0 192.47V218.368H10V192.47H0ZM0 218.368V244.265H10V218.368H0ZM47.6274 218.368V231.316H57.6274V218.368H47.6274ZM52.6274 231.316C47.6274 231.316 47.6274 231.316 47.6274 231.317C47.6274 231.317 47.6274 231.317 47.6274 231.318C47.6274 231.318 47.6274 231.319 47.6274 231.319C47.6274 231.32 47.6274 231.321 47.6274 231.322C47.6274 231.323 47.6274 231.324 47.6274 231.325C47.6274 231.326 47.6274 231.327 47.6274 231.328C47.6274 231.33 47.6274 231.331 47.6274 231.333C47.6274 231.334 47.6274 231.336 47.6274 231.338C47.6274 231.34 47.6274 231.342 47.6274 231.344C47.6274 231.346 47.6274 231.348 47.6274 231.35C47.6274 231.352 47.6274 231.355 47.6274 231.357C47.6274 231.359 47.6274 231.362 47.6274 231.365C47.6274 231.367 47.6274 231.37 47.6274 231.373C47.6274 231.376 47.6274 231.379 47.6274 231.382C47.6274 231.385 47.6274 231.388 47.6274 231.392C47.6274 231.395 47.6274 231.398 47.6274 231.402C47.6274 231.405 47.6274 231.409 47.6274 231.413C47.6274 231.416 47.6274 231.42 47.6274 231.424C47.6274 231.428 47.6274 231.432 47.6274 231.436C47.6274 231.44 47.6274 231.445 47.6274 231.449C47.6274 231.453 47.6274 231.458 47.6274 231.462C47.6274 231.467 47.6274 231.471 47.6274 231.476C47.6274 231.481 47.6274 231.486 47.6274 231.491C47.6274 231.496 47.6274 231.501 47.6274 231.506C47.6274 231.511 47.6274 231.516 47.6274 231.522C47.6274 231.527 47.6274 231.533 47.6274 231.538C47.6274 231.544 47.6274 231.549 47.6274 231.555C47.6274 231.561 47.6274 231.567 47.6274 231.573C47.6274 231.579 47.6274 231.585 47.6274 231.591C47.6274 231.597 47.6274 231.603 47.6274 231.61C47.6274 231.616 47.6274 231.622 47.6274 231.629C47.6274 231.636 47.6274 231.642 47.6274 231.649C47.6274 231.656 47.6274 231.662 47.6274 231.669C47.6274 231.676 47.6274 231.683 47.6274 231.69C47.6274 231.698 47.6274 231.705 47.6274 231.712C47.6274 231.719 47.6274 231.727 47.6274 231.734C47.6274 231.742 47.6274 231.749 47.6274 231.757C47.6274 231.765 47.6274 231.772 47.6274 231.78C47.6274 231.788 47.6274 231.796 47.6274 231.804C47.6274 231.812 47.6274 231.82 47.6274 231.829C47.6274 231.837 47.6274 231.845 47.6274 231.854C47.6274 231.862 47.6274 231.871 47.6274 231.879C47.6274 231.888 47.6274 231.896 47.6274 231.905C47.6274 231.914 47.6274 231.923 47.6274 231.932C47.6274 231.941 47.6274 231.95 47.6274 231.959C47.6274 231.968 47.6274 231.977 47.6274 231.987C47.6274 231.996 47.6274 232.005 47.6274 232.015C47.6274 232.024 47.6274 232.034 47.6274 232.044C47.6274 232.053 47.6274 232.063 47.6274 232.073C47.6274 232.083 47.6274 232.093 47.6274 232.103C47.6274 232.113 47.6274 232.123 47.6274 232.133C47.6274 232.143 47.6274 232.153 47.6274 232.164C47.6274 232.174 47.6274 232.184 47.6274 232.195C47.6274 232.205 47.6274 232.216 47.6274 232.227C47.6274 232.237 47.6274 232.248 47.6274 232.259C47.6274 232.27 47.6274 232.281 47.6274 232.292C47.6274 232.303 47.6274 232.314 47.6274 232.325C47.6274 232.336 47.6274 232.348 47.6274 232.359C47.6274 232.37 47.6274 232.382 47.6274 232.393C47.6274 232.405 47.6274 232.416 47.6274 232.428C47.6274 232.44 47.6274 232.451 47.6274 232.463C47.6274 232.475 47.6274 232.487 47.6274 232.499C47.6274 232.511 47.6274 232.523 47.6274 232.535C47.6274 232.547 47.6274 232.559 47.6274 232.572C47.6274 232.584 47.6274 232.596 47.6274 232.609C47.6274 232.621 47.6274 232.634 47.6274 232.646C47.6274 232.659 47.6274 232.672 47.6274 232.684C47.6274 232.697 47.6274 232.71 47.6274 232.723C47.6274 232.736 47.6274 232.749 47.6274 232.762C47.6274 232.775 47.6274 232.788 47.6274 232.801C47.6274 232.814 47.6274 232.828 47.6274 232.841C47.6274 232.854 47.6274 232.868 47.6274 232.881C47.6274 232.895 47.6274 232.908 47.6274 232.922C47.6274 232.936 47.6274 232.949 47.6274 232.963C47.6274 232.977 47.6274 232.991 47.6274 233.005C47.6274 233.019 47.6274 233.033 47.6274 233.047C47.6274 233.061 47.6274 233.075 47.6274 233.089C47.6274 233.104 47.6274 233.118 47.6274 233.132C47.6274 233.147 47.6274 233.161 47.6274 233.175C47.6274 233.19 47.6274 233.204 47.6274 233.219C47.6274 233.234 47.6274 233.248 47.6274 233.263C47.6274 233.278 47.6274 233.293 47.6274 233.308C47.6274 233.323 47.6274 233.338 47.6274 233.353C47.6274 233.368 47.6274 233.383 47.6274 233.398C47.6274 233.413 47.6274 233.428 47.6274 233.444C47.6274 233.459 47.6274 233.474 47.6274 233.49C47.6274 233.505 47.6274 233.521 47.6274 233.536C47.6274 233.552 47.6274 233.567 47.6274 233.583C47.6274 233.599 47.6274 233.615 47.6274 233.63C47.6274 233.646 47.6274 233.662 47.6274 233.678C47.6274 233.694 47.6274 233.71 47.6274 233.726C47.6274 233.742 47.6274 233.758 47.6274 233.775C47.6274 233.791 47.6274 233.807 47.6274 233.823C47.6274 233.84 47.6274 233.856 47.6274 233.872C47.6274 233.889 47.6274 233.905 47.6274 233.922C47.6274 233.938 47.6274 233.955 47.6274 233.972C47.6274 233.988 47.6274 234.005 47.6274 234.022C47.6274 234.039 47.6274 234.056 47.6274 234.073C47.6274 234.089 47.6274 234.106 47.6274 234.123C47.6274 234.14 47.6274 234.158 47.6274 234.175C47.6274 234.192 47.6274 234.209 47.6274 234.226C47.6274 234.244 47.6274 234.261 47.6274 234.278C47.6274 234.296 47.6274 234.313 47.6274 234.331C47.6274 234.348 47.6274 234.366 47.6274 234.383C47.6274 234.401 47.6274 234.418 47.6274 234.436C47.6274 234.454 47.6274 234.472 47.6274 234.489C47.6274 234.507 47.6274 234.525 47.6274 234.543C47.6274 234.561 47.6274 234.579 47.6274 234.597C47.6274 234.615 47.6274 234.633 47.6274 234.651C47.6274 234.669 47.6274 234.687 47.6274 234.706C47.6274 234.724 47.6274 234.742 47.6274 234.76C47.6274 234.779 47.6274 234.797 47.6274 234.816C47.6274 234.834 47.6274 234.852 47.6274 234.871C47.6274 234.889 47.6274 234.908 47.6274 234.927C47.6274 234.945 47.6274 234.964 47.6274 234.983C47.6274 235.001 47.6274 235.02 47.6274 235.039C47.6274 235.058 47.6274 235.077 47.6274 235.096C47.6274 235.115 47.6274 235.134 47.6274 235.153C47.6274 235.172 47.6274 235.191 47.6274 235.21C47.6274 235.229 47.6274 235.248 47.6274 235.267C47.6274 235.286 47.6274 235.306 47.6274 235.325C47.6274 235.344 47.6274 235.363 47.6274 235.383C47.6274 235.402 47.6274 235.422 47.6274 235.441C47.6274 235.461 47.6274 235.48 47.6274 235.5C47.6274 235.519 47.6274 235.539 47.6274 235.558C47.6274 235.578 47.6274 235.598 47.6274 235.617C47.6274 235.637 47.6274 235.657 47.6274 235.677C47.6274 235.697 47.6274 235.716 47.6274 235.736C47.6274 235.756 47.6274 235.776 47.6274 235.796C47.6274 235.816 47.6274 235.836 47.6274 235.856C47.6274 235.876 47.6274 235.896 47.6274 235.916C47.6274 235.936 47.6274 235.957 47.6274 235.977C47.6274 235.997 47.6274 236.017 47.6274 236.038C47.6274 236.058 47.6274 236.078 47.6274 236.099C47.6274 236.119 47.6274 236.139 47.6274 236.16C47.6274 236.18 47.6274 236.201 47.6274 236.221C47.6274 236.242 47.6274 236.262 47.6274 236.283C47.6274 236.303 47.6274 236.324 47.6274 236.345C47.6274 236.365 47.6274 236.386 47.6274 236.407C47.6274 236.427 47.6274 236.448 47.6274 236.469C47.6274 236.49 47.6274 236.511 47.6274 236.531C47.6274 236.552 47.6274 236.573 47.6274 236.594C47.6274 236.615 47.6274 236.636 47.6274 236.657C47.6274 236.678 47.6274 236.699 47.6274 236.72C47.6274 236.741 47.6274 236.762 47.6274 236.783C47.6274 236.804 47.6274 236.825 47.6274 236.847C47.6274 236.868 47.6274 236.889 47.6274 236.91C47.6274 236.931 47.6274 236.953 47.6274 236.974C47.6274 236.995 47.6274 237.017 47.6274 237.038C47.6274 237.059 47.6274 237.081 47.6274 237.102C47.6274 237.124 47.6274 237.145 47.6274 237.166C47.6274 237.188 47.6274 237.209 47.6274 237.231C47.6274 237.252 47.6274 237.274 47.6274 237.296C47.6274 237.317 47.6274 237.339 47.6274 237.36C47.6274 237.382 47.6274 237.404 47.6274 237.425C47.6274 237.447 47.6274 237.469 47.6274 237.491C47.6274 237.512 47.6274 237.534 47.6274 237.556C47.6274 237.578 47.6274 237.599 47.6274 237.621C47.6274 237.643 47.6274 237.665 47.6274 237.687C47.6274 237.709 47.6274 237.731 47.6274 237.752C47.6274 237.774 47.6274 237.796 47.6274 237.818C47.6274 237.84 47.6274 237.862 47.6274 237.884C47.6274 237.906 47.6274 237.928 47.6274 237.95C47.6274 237.972 47.6274 237.994 47.6274 238.017C47.6274 238.039 47.6274 238.061 47.6274 238.083C47.6274 238.105 47.6274 238.127 47.6274 238.149C47.6274 238.171 47.6274 238.194 47.6274 238.216C47.6274 238.238 47.6274 238.26 47.6274 238.283C47.6274 238.305 47.6274 238.327 47.6274 238.349C47.6274 238.372 47.6274 238.394 47.6274 238.416C47.6274 238.439 47.6274 238.461 47.6274 238.483C47.6274 238.506 47.6274 238.528 47.6274 238.55C47.6274 238.573 47.6274 238.595 47.6274 238.618C47.6274 238.64 47.6274 238.662 47.6274 238.685C47.6274 238.707 47.6274 238.73 47.6274 238.752C47.6274 238.775 47.6274 238.797 47.6274 238.82C47.6274 238.842 47.6274 238.865 47.6274 238.887C47.6274 238.91 47.6274 238.932 47.6274 238.955C47.6274 238.977 47.6274 239 47.6274 239.022C47.6274 239.045 47.6274 239.068 47.6274 239.09C47.6274 239.113 47.6274 239.135 47.6274 239.158C47.6274 239.181 47.6274 239.203 47.6274 239.226C47.6274 239.248 47.6274 239.271 47.6274 239.294C47.6274 239.316 47.6274 239.339 47.6274 239.362C47.6274 239.384 47.6274 239.407 47.6274 239.43C47.6274 239.453 47.6274 239.475 47.6274 239.498C47.6274 239.521 47.6274 239.543 47.6274 239.566C47.6274 239.589 47.6274 239.612 47.6274 239.634C47.6274 239.657 47.6274 239.68 47.6274 239.702C47.6274 239.725 47.6274 239.748 47.6274 239.771C47.6274 239.793 47.6274 239.816 47.6274 239.839C47.6274 239.862 47.6274 239.885 47.6274 239.907C47.6274 239.93 47.6274 239.953 47.6274 239.976C47.6274 239.998 47.6274 240.021 47.6274 240.044C47.6274 240.067 47.6274 240.09 47.6274 240.112C47.6274 240.135 47.6274 240.158 47.6274 240.181C47.6274 240.204 47.6274 240.226 47.6274 240.249C47.6274 240.272 47.6274 240.295 47.6274 240.318C47.6274 240.34 47.6274 240.363 47.6274 240.386C47.6274 240.409 47.6274 240.432 47.6274 240.455C47.6274 240.477 47.6274 240.5 47.6274 240.523C47.6274 240.546 47.6274 240.569 47.6274 240.591C47.6274 240.614 47.6274 240.637 47.6274 240.66C47.6274 240.683 47.6274 240.705 47.6274 240.728C47.6274 240.751 47.6274 240.774 47.6274 240.797C47.6274 240.819 47.6274 240.842 47.6274 240.865C47.6274 240.888 47.6274 240.91 47.6274 240.933C47.6274 240.956 47.6274 240.979 47.6274 241.002C47.6274 241.024 47.6274 241.047 47.6274 241.07C47.6274 241.093 47.6274 241.115 47.6274 241.138C47.6274 241.161 47.6274 241.184 47.6274 241.206C47.6274 241.229 47.6274 241.252 47.6274 241.274C47.6274 241.297 47.6274 241.32 47.6274 241.343C47.6274 241.365 47.6274 241.388 47.6274 241.411C47.6274 241.433 47.6274 241.456 47.6274 241.479C47.6274 241.501 47.6274 241.524 47.6274 241.547C47.6274 241.569 47.6274 241.592 47.6274 241.615C47.6274 241.637 47.6274 241.66 47.6274 241.682C47.6274 241.705 47.6274 241.728 47.6274 241.75C47.6274 241.773 47.6274 241.795 47.6274 241.818C47.6274 241.841 47.6274 241.863 47.6274 241.886C47.6274 241.908 47.6274 241.931 47.6274 241.953C47.6274 241.976 47.6274 241.998 47.6274 242.021C47.6274 242.043 47.6274 242.066 47.6274 242.088C47.6274 242.111 47.6274 242.133 47.6274 242.156C47.6274 242.178 47.6274 242.2 47.6274 242.223C47.6274 242.245 47.6274 242.268 47.6274 242.29C47.6274 242.312 47.6274 242.335 47.6274 242.357C47.6274 242.379 47.6274 242.402 47.6274 242.424C47.6274 242.446 47.6274 242.469 47.6274 242.491C47.6274 242.513 47.6274 242.535 47.6274 242.558C47.6274 242.58 47.6274 242.602 47.6274 242.624C47.6274 242.646 47.6274 242.669 47.6274 242.691C47.6274 242.713 47.6274 242.735 47.6274 242.757C47.6274 242.779 47.6274 242.801 47.6274 242.823C47.6274 242.846 47.6274 242.868 47.6274 242.89C47.6274 242.912 47.6274 242.934 47.6274 242.956C47.6274 242.978 47.6274 243 47.6274 243.022C47.6274 243.044 47.6274 243.066 47.6274 243.087C47.6274 243.109 47.6274 243.131 47.6274 243.153C47.6274 243.175 47.6274 243.197 47.6274 243.219C47.6274 243.24 47.6274 243.262 47.6274 243.284C47.6274 243.306 47.6274 243.327 47.6274 243.349C47.6274 243.371 47.6274 243.393 47.6274 243.414C47.6274 243.436 47.6274 243.458 47.6274 243.479C47.6274 243.501 47.6274 243.522 47.6274 243.544C47.6274 243.565 47.6274 243.587 47.6274 243.609C47.6274 243.63 47.6274 243.652 47.6274 243.673C47.6274 243.694 47.6274 243.716 47.6274 243.737C47.6274 243.759 47.6274 243.78 47.6274 243.801C47.6274 243.823 47.6274 243.844 47.6274 243.865C47.6274 243.887 47.6274 243.908 47.6274 243.929C47.6274 243.95 47.6274 243.971 47.6274 243.993C47.6274 244.014 47.6274 244.035 47.6274 244.056C47.6274 244.077 47.6274 244.098 47.6274 244.119C47.6274 244.14 47.6274 244.161 47.6274 244.182C47.6274 244.203 47.6274 244.224 47.6274 244.245C47.6274 244.266 47.6274 244.287 47.6274 244.308C47.6274 244.328 47.6274 244.349 47.6274 244.37C47.6274 244.391 47.6274 244.411 47.6274 244.432C47.6274 244.453 47.6274 244.474 47.6274 244.494C47.6274 244.515 47.6274 244.535 47.6274 244.556C47.6274 244.576 47.6274 244.597 47.6274 244.617C47.6274 244.638 47.6274 244.658 47.6274 244.679C47.6274 244.699 47.6274 244.72 47.6274 244.74C47.6274 244.76 47.6274 244.781 47.6274 244.801C47.6274 244.821 47.6274 244.841 47.6274 244.861C47.6274 244.882 47.6274 244.902 47.6274 244.922C47.6274 244.942 47.6274 244.962 47.6274 244.982C47.6274 245.002 47.6274 245.022 47.6274 245.042C47.6274 245.062 47.6274 245.082 47.6274 245.102C47.6274 245.122 47.6274 245.141 47.6274 245.161C47.6274 245.181 47.6274 245.201 47.6274 245.22C47.6274 245.24 47.6274 245.26 47.6274 245.279C47.6274 245.299 47.6274 245.319 47.6274 245.338C47.6274 245.358 47.6274 245.377 47.6274 245.397C47.6274 245.416 47.6274 245.435 47.6274 245.455C47.6274 245.474 47.6274 245.493 47.6274 245.513C47.6274 245.532 47.6274 245.551 47.6274 245.57C47.6274 245.589 47.6274 245.609 47.6274 245.628C47.6274 245.647 47.6274 245.666 47.6274 245.685C47.6274 245.704 47.6274 245.723 47.6274 245.742C47.6274 245.76 47.6274 245.779 47.6274 245.798C47.6274 245.817 47.6274 245.836 47.6274 245.854C47.6274 245.873 47.6274 245.892 47.6274 245.91C47.6274 245.929 47.6274 245.947 47.6274 245.966C47.6274 245.984 47.6274 246.003 47.6274 246.021C47.6274 246.04 47.6274 246.058 47.6274 246.076C47.6274 246.095 47.6274 246.113 47.6274 246.131C47.6274 246.149 47.6274 246.167 47.6274 246.186C47.6274 246.204 47.6274 246.222 47.6274 246.24C47.6274 246.258 47.6274 246.276 47.6274 246.293C47.6274 246.311 47.6274 246.329 47.6274 246.347C47.6274 246.365 47.6274 246.382 47.6274 246.4C47.6274 246.418 47.6274 246.435 47.6274 246.453C47.6274 246.471 47.6274 246.488 47.6274 246.505C47.6274 246.523 47.6274 246.54 47.6274 246.558C47.6274 246.575 47.6274 246.592 47.6274 246.609C47.6274 246.627 47.6274 246.644 47.6274 246.661C47.6274 246.678 47.6274 246.695 47.6274 246.712C47.6274 246.729 47.6274 246.746 47.6274 246.763C47.6274 246.78 47.6274 246.797 47.6274 246.813C47.6274 246.83 47.6274 246.847 47.6274 246.864C47.6274 246.88 47.6274 246.897 47.6274 246.913C47.6274 246.93 47.6274 246.946 47.6274 246.963C47.6274 246.979 47.6274 246.995 47.6274 247.012C47.6274 247.028 47.6274 247.044 47.6274 247.06C47.6274 247.077 47.6274 247.093 47.6274 247.109C47.6274 247.125 47.6274 247.141 47.6274 247.157C47.6274 247.172 47.6274 247.188 47.6274 247.204C47.6274 247.22 47.6274 247.236 47.6274 247.251C47.6274 247.267 47.6274 247.283 47.6274 247.298C47.6274 247.314 47.6274 247.329 47.6274 247.344C47.6274 247.36 47.6274 247.375 47.6274 247.39C47.6274 247.406 47.6274 247.421 47.6274 247.436C47.6274 247.451 47.6274 247.466 47.6274 247.481C47.6274 247.496 47.6274 247.511 47.6274 247.526C47.6274 247.541 47.6274 247.556 47.6274 247.57C47.6274 247.585 47.6274 247.6 47.6274 247.614C47.6274 247.629 47.6274 247.644 47.6274 247.658C47.6274 247.672 47.6274 247.687 47.6274 247.701C47.6274 247.715 47.6274 247.73 47.6274 247.744C47.6274 247.758 47.6274 247.772 47.6274 247.786C47.6274 247.8 47.6274 247.814 47.6274 247.828C47.6274 247.842 47.6274 247.856 47.6274 247.87C47.6274 247.883 47.6274 247.897 47.6274 247.911C47.6274 247.924 47.6274 247.938 47.6274 247.951C47.6274 247.965 47.6274 247.978 47.6274 247.991C47.6274 248.005 47.6274 248.018 47.6274 248.031C47.6274 248.044 47.6274 248.057 47.6274 248.07C47.6274 248.083 47.6274 248.096 47.6274 248.109C47.6274 248.122 47.6274 248.135 47.6274 248.147C47.6274 248.16 47.6274 248.173 47.6274 248.185C47.6274 248.198 47.6274 248.21 47.6274 248.223C47.6274 248.235 47.6274 248.248 47.6274 248.26C47.6274 248.272 47.6274 248.284 47.6274 248.296C47.6274 248.308 47.6274 248.32 47.6274 248.332C47.6274 248.344 47.6274 248.356 47.6274 248.368C47.6274 248.38 47.6274 248.391 47.6274 248.403C47.6274 248.415 47.6274 248.426 47.6274 248.438C47.6274 248.449 47.6274 248.46 47.6274 248.472C47.6274 248.483 47.6274 248.494 47.6274 248.505C47.6274 248.517 47.6274 248.528 47.6274 248.539C47.6274 248.55 47.6274 248.56 47.6274 248.571C47.6274 248.582 47.6274 248.593 47.6274 248.603C47.6274 248.614 47.6274 248.625 47.6274 248.635C47.6274 248.645 47.6274 248.656 47.6274 248.666C47.6274 248.676 47.6274 248.687 47.6274 248.697C47.6274 248.707 47.6274 248.717 47.6274 248.727C47.6274 248.737 47.6274 248.747 47.6274 248.757C47.6274 248.766 47.6274 248.776 47.6274 248.786C47.6274 248.795 47.6274 248.805 47.6274 248.814C47.6274 248.824 47.6274 248.833 47.6274 248.842C47.6274 248.852 47.6274 248.861 47.6274 248.87C47.6274 248.879 47.6274 248.888 47.6274 248.897C47.6274 248.906 47.6274 248.914 47.6274 248.923C47.6274 248.932 47.6274 248.941 47.6274 248.949C47.6274 248.958 47.6274 248.966 47.6274 248.974C47.6274 248.983 47.6274 248.991 47.6274 248.999C47.6274 249.007 47.6274 249.016 47.6274 249.024C47.6274 249.032 47.6274 249.039 47.6274 249.047C47.6274 249.055 47.6274 249.063 47.6274 249.07C47.6274 249.078 47.6274 249.086 47.6274 249.093C47.6274 249.1 47.6274 249.108 47.6274 249.115C47.6274 249.122 47.6274 249.129 47.6274 249.137C47.6274 249.144 47.6274 249.151 47.6274 249.157C47.6274 249.164 47.6274 249.171 47.6274 249.178C47.6274 249.184 47.6274 249.191 47.6274 249.198C47.6274 249.204 47.6274 249.21 47.6274 249.217C47.6274 249.223 47.6274 249.229 47.6274 249.235C47.6274 249.241 47.6274 249.247 47.6274 249.253C47.6274 249.259 47.6274 249.265 47.6274 249.271C47.6274 249.276 47.6274 249.282 47.6274 249.287C47.6274 249.293 47.6274 249.298 47.6274 249.304C47.6274 249.309 47.6274 249.314 47.6274 249.319C47.6274 249.324 47.6274 249.329 47.6274 249.334C47.6274 249.339 47.6274 249.344 47.6274 249.349C47.6274 249.353 47.6274 249.358 47.6274 249.362C47.6274 249.367 47.6274 249.371 47.6274 249.376C47.6274 249.38 47.6274 249.384 47.6274 249.388C47.6274 249.392 47.6274 249.396 47.6274 249.4C47.6274 249.404 47.6274 249.408 47.6274 249.411C47.6274 249.415 47.6274 249.419 47.6274 249.422C47.6274 249.426 47.6274 249.429 47.6274 249.432C47.6274 249.435 47.6274 249.439 47.6274 249.442C47.6274 249.445 47.6274 249.448 47.6274 249.45C47.6274 249.453 47.6274 249.456 47.6274 249.458C47.6274 249.461 47.6274 249.464 47.6274 249.466C47.6274 249.468 47.6274 249.471 47.6274 249.473C47.6274 249.475 47.6274 249.477 47.6274 249.479C47.6274 249.481 47.6274 249.483 47.6274 249.484C47.6274 249.486 47.6274 249.488 47.6274 249.489C47.6274 249.491 47.6274 249.492 47.6274 249.494C47.6274 249.495 47.6274 249.496 47.6274 249.497C47.6274 249.498 47.6274 249.499 47.6274 249.5C47.6274 249.501 47.6274 249.502 47.6274 249.502C47.6274 249.503 47.6274 249.503 47.6274 249.504C47.6274 249.504 47.6274 249.504 47.6274 249.504C47.6274 249.505 52.6274 249.505 57.6274 249.505C57.6274 249.505 57.6274 249.504 57.6274 249.504C57.6274 249.504 57.6274 249.503 57.6274 249.503C57.6274 249.502 57.6274 249.502 57.6274 249.501C57.6274 249.5 57.6274 249.499 57.6274 249.498C57.6274 249.497 57.6274 249.496 57.6274 249.495C57.6274 249.494 57.6274 249.492 57.6274 249.491C57.6274 249.489 57.6274 249.488 57.6274 249.486C57.6274 249.484 57.6274 249.483 57.6274 249.481C57.6274 249.479 57.6274 249.477 57.6274 249.475C57.6274 249.472 57.6274 249.47 57.6274 249.468C57.6274 249.465 57.6274 249.463 57.6274 249.46C57.6274 249.457 57.6274 249.455 57.6274 249.452C57.6274 249.449 57.6274 249.446 57.6274 249.443C57.6274 249.44 57.6274 249.436 57.6274 249.433C57.6274 249.429 57.6274 249.426 57.6274 249.422C57.6274 249.419 57.6274 249.415 57.6274 249.411C57.6274 249.407 57.6274 249.403 57.6274 249.399C57.6274 249.395 57.6274 249.391 57.6274 249.386C57.6274 249.382 57.6274 249.377 57.6274 249.373C57.6274 249.368 57.6274 249.363 57.6274 249.359C57.6274 249.354 57.6274 249.349 57.6274 249.344C57.6274 249.338 57.6274 249.333 57.6274 249.328C57.6274 249.322 57.6274 249.317 57.6274 249.311C57.6274 249.306 57.6274 249.3 57.6274 249.294C57.6274 249.288 57.6274 249.282 57.6274 249.276C57.6274 249.27 57.6274 249.263 57.6274 249.257C57.6274 249.251 57.6274 249.244 57.6274 249.237C57.6274 249.231 57.6274 249.224 57.6274 249.217C57.6274 249.21 57.6274 249.203 57.6274 249.196C57.6274 249.189 57.6274 249.181 57.6274 249.174C57.6274 249.166 57.6274 249.159 57.6274 249.151C57.6274 249.143 57.6274 249.135 57.6274 249.127C57.6274 249.119 57.6274 249.111 57.6274 249.103C57.6274 249.095 57.6274 249.086 57.6274 249.078C57.6274 249.069 57.6274 249.061 57.6274 249.052C57.6274 249.043 57.6274 249.034 57.6274 249.025C57.6274 249.016 57.6274 249.007 57.6274 248.998C57.6274 248.988 57.6274 248.979 57.6274 248.969C57.6274 248.96 57.6274 248.95 57.6274 248.94C57.6274 248.93 57.6274 248.92 57.6274 248.91C57.6274 248.9 57.6274 248.89 57.6274 248.879C57.6274 248.869 57.6274 248.858 57.6274 248.847C57.6274 248.837 57.6274 248.826 57.6274 248.815C57.6274 248.804 57.6274 248.793 57.6274 248.782C57.6274 248.77 57.6274 248.759 57.6274 248.747C57.6274 248.736 57.6274 248.724 57.6274 248.712C57.6274 248.7 57.6274 248.688 57.6274 248.676C57.6274 248.664 57.6274 248.652 57.6274 248.64C57.6274 248.627 57.6274 248.615 57.6274 248.602C57.6274 248.589 57.6274 248.577 57.6274 248.564C57.6274 248.551 57.6274 248.538 57.6274 248.524C57.6274 248.511 57.6274 248.498 57.6274 248.484C57.6274 248.471 57.6274 248.457 57.6274 248.443C57.6274 248.429 57.6274 248.415 57.6274 248.401C57.6274 248.387 57.6274 248.373 57.6274 248.358C57.6274 248.344 57.6274 248.329 57.6274 248.315C57.6274 248.3 57.6274 248.285 57.6274 248.27C57.6274 248.255 57.6274 248.24 57.6274 248.225C57.6274 248.209 57.6274 248.194 57.6274 248.178C57.6274 248.163 57.6274 248.147 57.6274 248.131C57.6274 248.115 57.6274 248.099 57.6274 248.083C57.6274 248.067 57.6274 248.051 57.6274 248.034C57.6274 248.018 57.6274 248.001 57.6274 247.984C57.6274 247.968 57.6274 247.951 57.6274 247.933C57.6274 247.916 57.6274 247.899 57.6274 247.882C57.6274 247.864 57.6274 247.847 57.6274 247.829C57.6274 247.811 57.6274 247.794 57.6274 247.776C57.6274 247.758 57.6274 247.739 57.6274 247.721C57.6274 247.703 57.6274 247.684 57.6274 247.666C57.6274 247.647 57.6274 247.628 57.6274 247.61C57.6274 247.591 57.6274 247.572 57.6274 247.552C57.6274 247.533 57.6274 247.514 57.6274 247.494C57.6274 247.475 57.6274 247.455 57.6274 247.435C57.6274 247.415 57.6274 247.395 57.6274 247.375C57.6274 247.355 57.6274 247.335 57.6274 247.314C57.6274 247.294 57.6274 247.273 57.6274 247.252C57.6274 247.231 57.6274 247.21 57.6274 247.189C57.6274 247.168 57.6274 247.147 57.6274 247.125C57.6274 247.104 57.6274 247.082 57.6274 247.061C57.6274 247.039 57.6274 247.017 57.6274 246.995C57.6274 246.973 57.6274 246.951 57.6274 246.928C57.6274 246.906 57.6274 246.883 57.6274 246.861C57.6274 246.838 57.6274 246.815 57.6274 246.792C57.6274 246.769 57.6274 246.746 57.6274 246.722C57.6274 246.699 57.6274 246.675 57.6274 246.652C57.6274 246.628 57.6274 246.604 57.6274 246.58C57.6274 246.556 57.6274 246.532 57.6274 246.508C57.6274 246.483 57.6274 246.459 57.6274 246.434C57.6274 246.409 57.6274 246.385 57.6274 246.36C57.6274 246.335 57.6274 246.309 57.6274 246.284C57.6274 246.259 57.6274 246.233 57.6274 246.208C57.6274 246.182 57.6274 246.156 57.6274 246.13C57.6274 246.104 57.6274 246.078 57.6274 246.052C57.6274 246.025 57.6274 245.999 57.6274 245.972C57.6274 245.945 57.6274 245.918 57.6274 245.891C57.6274 245.864 57.6274 245.837 57.6274 245.81C57.6274 245.783 57.6274 245.755 57.6274 245.727C57.6274 245.7 57.6274 245.672 57.6274 245.644C57.6274 245.616 57.6274 245.587 57.6274 245.559C57.6274 245.531 57.6274 245.502 57.6274 245.473C57.6274 245.445 57.6274 245.416 57.6274 245.387C57.6274 245.358 57.6274 245.328 57.6274 245.299C57.6274 245.27 57.6274 245.24 57.6274 245.21C57.6274 245.181 57.6274 245.151 57.6274 245.12C57.6274 245.09 57.6274 245.06 57.6274 245.03C57.6274 244.999 57.6274 244.969 57.6274 244.938C57.6274 244.907 57.6274 244.876 57.6274 244.845C57.6274 244.814 57.6274 244.782 57.6274 244.751C57.6274 244.719 57.6274 244.688 57.6274 244.656C57.6274 244.624 57.6274 244.592 57.6274 244.56C57.6274 244.527 57.6274 244.495 57.6274 244.462C57.6274 244.43 57.6274 244.397 57.6274 244.364C57.6274 244.331 57.6274 244.298 57.6274 244.265H47.6274C47.6274 244.298 47.6274 244.331 47.6274 244.364C47.6274 244.397 47.6274 244.43 47.6274 244.462C47.6274 244.495 47.6274 244.527 47.6274 244.56C47.6274 244.592 47.6274 244.624 47.6274 244.656C47.6274 244.688 47.6274 244.719 47.6274 244.751C47.6274 244.782 47.6274 244.814 47.6274 244.845C47.6274 244.876 47.6274 244.907 47.6274 244.938C47.6274 244.969 47.6274 244.999 47.6274 245.03C47.6274 245.06 47.6274 245.09 47.6274 245.12C47.6274 245.151 47.6274 245.181 47.6274 245.21C47.6274 245.24 47.6274 245.27 47.6274 245.299C47.6274 245.328 47.6274 245.358 47.6274 245.387C47.6274 245.416 47.6274 245.445 47.6274 245.473C47.6274 245.502 47.6274 245.531 47.6274 245.559C47.6274 245.587 47.6274 245.616 47.6274 245.644C47.6274 245.672 47.6274 245.7 47.6274 245.727C47.6274 245.755 47.6274 245.783 47.6274 245.81C47.6274 245.837 47.6274 245.864 47.6274 245.891C47.6274 245.918 47.6274 245.945 47.6274 245.972C47.6274 245.999 47.6274 246.025 47.6274 246.052C47.6274 246.078 47.6274 246.104 47.6274 246.13C47.6274 246.156 47.6274 246.182 47.6274 246.208C47.6274 246.233 47.6274 246.259 47.6274 246.284C47.6274 246.309 47.6274 246.335 47.6274 246.36C47.6274 246.385 47.6274 246.409 47.6274 246.434C47.6274 246.459 47.6274 246.483 47.6274 246.508C47.6274 246.532 47.6274 246.556 47.6274 246.58C47.6274 246.604 47.6274 246.628 47.6274 246.652C47.6274 246.675 47.6274 246.699 47.6274 246.722C47.6274 246.746 47.6274 246.769 47.6274 246.792C47.6274 246.815 47.6274 246.838 47.6274 246.861C47.6274 246.883 47.6274 246.906 47.6274 246.928C47.6274 246.951 47.6274 246.973 47.6274 246.995C47.6274 247.017 47.6274 247.039 47.6274 247.061C47.6274 247.082 47.6274 247.104 47.6274 247.125C47.6274 247.147 47.6274 247.168 47.6274 247.189C47.6274 247.21 47.6274 247.231 47.6274 247.252C47.6274 247.273 47.6274 247.294 47.6274 247.314C47.6274 247.335 47.6274 247.355 47.6274 247.375C47.6274 247.395 47.6274 247.415 47.6274 247.435C47.6274 247.455 47.6274 247.475 47.6274 247.494C47.6274 247.514 47.6274 247.533 47.6274 247.552C47.6274 247.572 47.6274 247.591 47.6274 247.61C47.6274 247.628 47.6274 247.647 47.6274 247.666C47.6274 247.684 47.6274 247.703 47.6274 247.721C47.6274 247.739 47.6274 247.758 47.6274 247.776C47.6274 247.794 47.6274 247.811 47.6274 247.829C47.6274 247.847 47.6274 247.864 47.6274 247.882C47.6274 247.899 47.6274 247.916 47.6274 247.933C47.6274 247.951 47.6274 247.968 47.6274 247.984C47.6274 248.001 47.6274 248.018 47.6274 248.034C47.6274 248.051 47.6274 248.067 47.6274 248.083C47.6274 248.099 47.6274 248.115 47.6274 248.131C47.6274 248.147 47.6274 248.163 47.6274 248.178C47.6274 248.194 47.6274 248.209 47.6274 248.225C47.6274 248.24 47.6274 248.255 47.6274 248.27C47.6274 248.285 47.6274 248.3 47.6274 248.315C47.6274 248.329 47.6274 248.344 47.6274 248.358C47.6274 248.373 47.6274 248.387 47.6274 248.401C47.6274 248.415 47.6274 248.429 47.6274 248.443C47.6274 248.457 47.6274 248.471 47.6274 248.484C47.6274 248.498 47.6274 248.511 47.6274 248.524C47.6274 248.538 47.6274 248.551 47.6274 248.564C47.6274 248.577 47.6274 248.589 47.6274 248.602C47.6274 248.615 47.6274 248.627 47.6274 248.64C47.6274 248.652 47.6274 248.664 47.6274 248.676C47.6274 248.688 47.6274 248.7 47.6274 248.712C47.6274 248.724 47.6274 248.736 47.6274 248.747C47.6274 248.759 47.6274 248.77 47.6274 248.782C47.6274 248.793 47.6274 248.804 47.6274 248.815C47.6274 248.826 47.6274 248.837 47.6274 248.847C47.6274 248.858 47.6274 248.869 47.6274 248.879C47.6274 248.89 47.6274 248.9 47.6274 248.91C47.6274 248.92 47.6274 248.93 47.6274 248.94C47.6274 248.95 47.6274 248.96 47.6274 248.969C47.6274 248.979 47.6274 248.988 47.6274 248.998C47.6274 249.007 47.6274 249.016 47.6274 249.025C47.6274 249.034 47.6274 249.043 47.6274 249.052C47.6274 249.061 47.6274 249.069 47.6274 249.078C47.6274 249.086 47.6274 249.095 47.6274 249.103C47.6274 249.111 47.6274 249.119 47.6274 249.127C47.6274 249.135 47.6274 249.143 47.6274 249.151C47.6274 249.159 47.6274 249.166 47.6274 249.174C47.6274 249.181 47.6274 249.189 47.6274 249.196C47.6274 249.203 47.6274 249.21 47.6274 249.217C47.6274 249.224 47.6274 249.231 47.6274 249.237C47.6274 249.244 47.6274 249.251 47.6274 249.257C47.6274 249.263 47.6274 249.27 47.6274 249.276C47.6274 249.282 47.6274 249.288 47.6274 249.294C47.6274 249.3 47.6274 249.306 47.6274 249.311C47.6274 249.317 47.6274 249.322 47.6274 249.328C47.6274 249.333 47.6274 249.338 47.6274 249.344C47.6274 249.349 47.6274 249.354 47.6274 249.359C47.6274 249.363 47.6274 249.368 47.6274 249.373C47.6274 249.377 47.6274 249.382 47.6274 249.386C47.6274 249.391 47.6274 249.395 47.6274 249.399C47.6274 249.403 47.6274 249.407 47.6274 249.411C47.6274 249.415 47.6274 249.419 47.6274 249.422C47.6274 249.426 47.6274 249.429 47.6274 249.433C47.6274 249.436 47.6274 249.44 47.6274 249.443C47.6274 249.446 47.6274 249.449 47.6274 249.452C47.6274 249.455 47.6274 249.457 47.6274 249.46C47.6274 249.463 47.6274 249.465 47.6274 249.468C47.6274 249.47 47.6274 249.472 47.6274 249.475C47.6274 249.477 47.6274 249.479 47.6274 249.481C47.6274 249.483 47.6274 249.484 47.6274 249.486C47.6274 249.488 47.6274 249.489 47.6274 249.491C47.6274 249.492 47.6274 249.494 47.6274 249.495C47.6274 249.496 47.6274 249.497 47.6274 249.498C47.6274 249.499 47.6274 249.5 47.6274 249.501C47.6274 249.502 47.6274 249.502 47.6274 249.503C47.6274 249.503 47.6274 249.504 47.6274 249.504C47.6274 249.504 47.6274 249.505 47.6274 249.505C52.6274 249.505 57.6274 249.505 57.6274 249.504C57.6274 249.504 57.6274 249.504 57.6274 249.504C57.6274 249.503 57.6274 249.503 57.6274 249.502C57.6274 249.502 57.6274 249.501 57.6274 249.5C57.6274 249.499 57.6274 249.498 57.6274 249.497C57.6274 249.496 57.6274 249.495 57.6274 249.494C57.6274 249.492 57.6274 249.491 57.6274 249.489C57.6274 249.488 57.6274 249.486 57.6274 249.484C57.6274 249.483 57.6274 249.481 57.6274 249.479C57.6274 249.477 57.6274 249.475 57.6274 249.473C57.6274 249.471 57.6274 249.468 57.6274 249.466C57.6274 249.464 57.6274 249.461 57.6274 249.458C57.6274 249.456 57.6274 249.453 57.6274 249.45C57.6274 249.448 57.6274 249.445 57.6274 249.442C57.6274 249.439 57.6274 249.435 57.6274 249.432C57.6274 249.429 57.6274 249.426 57.6274 249.422C57.6274 249.419 57.6274 249.415 57.6274 249.411C57.6274 249.408 57.6274 249.404 57.6274 249.4C57.6274 249.396 57.6274 249.392 57.6274 249.388C57.6274 249.384 57.6274 249.38 57.6274 249.376C57.6274 249.371 57.6274 249.367 57.6274 249.362C57.6274 249.358 57.6274 249.353 57.6274 249.349C57.6274 249.344 57.6274 249.339 57.6274 249.334C57.6274 249.329 57.6274 249.324 57.6274 249.319C57.6274 249.314 57.6274 249.309 57.6274 249.304C57.6274 249.298 57.6274 249.293 57.6274 249.287C57.6274 249.282 57.6274 249.276 57.6274 249.271C57.6274 249.265 57.6274 249.259 57.6274 249.253C57.6274 249.247 57.6274 249.241 57.6274 249.235C57.6274 249.229 57.6274 249.223 57.6274 249.217C57.6274 249.21 57.6274 249.204 57.6274 249.198C57.6274 249.191 57.6274 249.184 57.6274 249.178C57.6274 249.171 57.6274 249.164 57.6274 249.157C57.6274 249.151 57.6274 249.144 57.6274 249.137C57.6274 249.129 57.6274 249.122 57.6274 249.115C57.6274 249.108 57.6274 249.1 57.6274 249.093C57.6274 249.086 57.6274 249.078 57.6274 249.07C57.6274 249.063 57.6274 249.055 57.6274 249.047C57.6274 249.039 57.6274 249.032 57.6274 249.024C57.6274 249.016 57.6274 249.007 57.6274 248.999C57.6274 248.991 57.6274 248.983 57.6274 248.974C57.6274 248.966 57.6274 248.958 57.6274 248.949C57.6274 248.941 57.6274 248.932 57.6274 248.923C57.6274 248.914 57.6274 248.906 57.6274 248.897C57.6274 248.888 57.6274 248.879 57.6274 248.87C57.6274 248.861 57.6274 248.852 57.6274 248.842C57.6274 248.833 57.6274 248.824 57.6274 248.814C57.6274 248.805 57.6274 248.795 57.6274 248.786C57.6274 248.776 57.6274 248.766 57.6274 248.757C57.6274 248.747 57.6274 248.737 57.6274 248.727C57.6274 248.717 57.6274 248.707 57.6274 248.697C57.6274 248.687 57.6274 248.676 57.6274 248.666C57.6274 248.656 57.6274 248.645 57.6274 248.635C57.6274 248.625 57.6274 248.614 57.6274 248.603C57.6274 248.593 57.6274 248.582 57.6274 248.571C57.6274 248.56 57.6274 248.55 57.6274 248.539C57.6274 248.528 57.6274 248.517 57.6274 248.505C57.6274 248.494 57.6274 248.483 57.6274 248.472C57.6274 248.46 57.6274 248.449 57.6274 248.438C57.6274 248.426 57.6274 248.415 57.6274 248.403C57.6274 248.391 57.6274 248.38 57.6274 248.368C57.6274 248.356 57.6274 248.344 57.6274 248.332C57.6274 248.32 57.6274 248.308 57.6274 248.296C57.6274 248.284 57.6274 248.272 57.6274 248.26C57.6274 248.248 57.6274 248.235 57.6274 248.223C57.6274 248.21 57.6274 248.198 57.6274 248.185C57.6274 248.173 57.6274 248.16 57.6274 248.147C57.6274 248.135 57.6274 248.122 57.6274 248.109C57.6274 248.096 57.6274 248.083 57.6274 248.07C57.6274 248.057 57.6274 248.044 57.6274 248.031C57.6274 248.018 57.6274 248.005 57.6274 247.991C57.6274 247.978 57.6274 247.965 57.6274 247.951C57.6274 247.938 57.6274 247.924 57.6274 247.911C57.6274 247.897 57.6274 247.883 57.6274 247.87C57.6274 247.856 57.6274 247.842 57.6274 247.828C57.6274 247.814 57.6274 247.8 57.6274 247.786C57.6274 247.772 57.6274 247.758 57.6274 247.744C57.6274 247.73 57.6274 247.715 57.6274 247.701C57.6274 247.687 57.6274 247.672 57.6274 247.658C57.6274 247.644 57.6274 247.629 57.6274 247.614C57.6274 247.6 57.6274 247.585 57.6274 247.57C57.6274 247.556 57.6274 247.541 57.6274 247.526C57.6274 247.511 57.6274 247.496 57.6274 247.481C57.6274 247.466 57.6274 247.451 57.6274 247.436C57.6274 247.421 57.6274 247.406 57.6274 247.39C57.6274 247.375 57.6274 247.36 57.6274 247.344C57.6274 247.329 57.6274 247.314 57.6274 247.298C57.6274 247.283 57.6274 247.267 57.6274 247.251C57.6274 247.236 57.6274 247.22 57.6274 247.204C57.6274 247.188 57.6274 247.172 57.6274 247.157C57.6274 247.141 57.6274 247.125 57.6274 247.109C57.6274 247.093 57.6274 247.077 57.6274 247.06C57.6274 247.044 57.6274 247.028 57.6274 247.012C57.6274 246.995 57.6274 246.979 57.6274 246.963C57.6274 246.946 57.6274 246.93 57.6274 246.913C57.6274 246.897 57.6274 246.88 57.6274 246.864C57.6274 246.847 57.6274 246.83 57.6274 246.813C57.6274 246.797 57.6274 246.78 57.6274 246.763C57.6274 246.746 57.6274 246.729 57.6274 246.712C57.6274 246.695 57.6274 246.678 57.6274 246.661C57.6274 246.644 57.6274 246.627 57.6274 246.609C57.6274 246.592 57.6274 246.575 57.6274 246.558C57.6274 246.54 57.6274 246.523 57.6274 246.505C57.6274 246.488 57.6274 246.471 57.6274 246.453C57.6274 246.435 57.6274 246.418 57.6274 246.4C57.6274 246.382 57.6274 246.365 57.6274 246.347C57.6274 246.329 57.6274 246.311 57.6274 246.293C57.6274 246.276 57.6274 246.258 57.6274 246.24C57.6274 246.222 57.6274 246.204 57.6274 246.186C57.6274 246.167 57.6274 246.149 57.6274 246.131C57.6274 246.113 57.6274 246.095 57.6274 246.076C57.6274 246.058 57.6274 246.04 57.6274 246.021C57.6274 246.003 57.6274 245.984 57.6274 245.966C57.6274 245.947 57.6274 245.929 57.6274 245.91C57.6274 245.892 57.6274 245.873 57.6274 245.854C57.6274 245.836 57.6274 245.817 57.6274 245.798C57.6274 245.779 57.6274 245.76 57.6274 245.742C57.6274 245.723 57.6274 245.704 57.6274 245.685C57.6274 245.666 57.6274 245.647 57.6274 245.628C57.6274 245.609 57.6274 245.589 57.6274 245.57C57.6274 245.551 57.6274 245.532 57.6274 245.513C57.6274 245.493 57.6274 245.474 57.6274 245.455C57.6274 245.435 57.6274 245.416 57.6274 245.397C57.6274 245.377 57.6274 245.358 57.6274 245.338C57.6274 245.319 57.6274 245.299 57.6274 245.279C57.6274 245.26 57.6274 245.24 57.6274 245.22C57.6274 245.201 57.6274 245.181 57.6274 245.161C57.6274 245.141 57.6274 245.122 57.6274 245.102C57.6274 245.082 57.6274 245.062 57.6274 245.042C57.6274 245.022 57.6274 245.002 57.6274 244.982C57.6274 244.962 57.6274 244.942 57.6274 244.922C57.6274 244.902 57.6274 244.882 57.6274 244.861C57.6274 244.841 57.6274 244.821 57.6274 244.801C57.6274 244.781 57.6274 244.76 57.6274 244.74C57.6274 244.72 57.6274 244.699 57.6274 244.679C57.6274 244.658 57.6274 244.638 57.6274 244.617C57.6274 244.597 57.6274 244.576 57.6274 244.556C57.6274 244.535 57.6274 244.515 57.6274 244.494C57.6274 244.474 57.6274 244.453 57.6274 244.432C57.6274 244.411 57.6274 244.391 57.6274 244.37C57.6274 244.349 57.6274 244.328 57.6274 244.308C57.6274 244.287 57.6274 244.266 57.6274 244.245C57.6274 244.224 57.6274 244.203 57.6274 244.182C57.6274 244.161 57.6274 244.14 57.6274 244.119C57.6274 244.098 57.6274 244.077 57.6274 244.056C57.6274 244.035 57.6274 244.014 57.6274 243.993C57.6274 243.971 57.6274 243.95 57.6274 243.929C57.6274 243.908 57.6274 243.887 57.6274 243.865C57.6274 243.844 57.6274 243.823 57.6274 243.801C57.6274 243.78 57.6274 243.759 57.6274 243.737C57.6274 243.716 57.6274 243.694 57.6274 243.673C57.6274 243.652 57.6274 243.63 57.6274 243.609C57.6274 243.587 57.6274 243.565 57.6274 243.544C57.6274 243.522 57.6274 243.501 57.6274 243.479C57.6274 243.458 57.6274 243.436 57.6274 243.414C57.6274 243.393 57.6274 243.371 57.6274 243.349C57.6274 243.327 57.6274 243.306 57.6274 243.284C57.6274 243.262 57.6274 243.24 57.6274 243.219C57.6274 243.197 57.6274 243.175 57.6274 243.153C57.6274 243.131 57.6274 243.109 57.6274 243.087C57.6274 243.066 57.6274 243.044 57.6274 243.022C57.6274 243 57.6274 242.978 57.6274 242.956C57.6274 242.934 57.6274 242.912 57.6274 242.89C57.6274 242.868 57.6274 242.846 57.6274 242.823C57.6274 242.801 57.6274 242.779 57.6274 242.757C57.6274 242.735 57.6274 242.713 57.6274 242.691C57.6274 242.669 57.6274 242.646 57.6274 242.624C57.6274 242.602 57.6274 242.58 57.6274 242.558C57.6274 242.535 57.6274 242.513 57.6274 242.491C57.6274 242.469 57.6274 242.446 57.6274 242.424C57.6274 242.402 57.6274 242.379 57.6274 242.357C57.6274 242.335 57.6274 242.312 57.6274 242.29C57.6274 242.268 57.6274 242.245 57.6274 242.223C57.6274 242.2 57.6274 242.178 57.6274 242.156C57.6274 242.133 57.6274 242.111 57.6274 242.088C57.6274 242.066 57.6274 242.043 57.6274 242.021C57.6274 241.998 57.6274 241.976 57.6274 241.953C57.6274 241.931 57.6274 241.908 57.6274 241.886C57.6274 241.863 57.6274 241.841 57.6274 241.818C57.6274 241.795 57.6274 241.773 57.6274 241.75C57.6274 241.728 57.6274 241.705 57.6274 241.682C57.6274 241.66 57.6274 241.637 57.6274 241.615C57.6274 241.592 57.6274 241.569 57.6274 241.547C57.6274 241.524 57.6274 241.501 57.6274 241.479C57.6274 241.456 57.6274 241.433 57.6274 241.411C57.6274 241.388 57.6274 241.365 57.6274 241.343C57.6274 241.32 57.6274 241.297 57.6274 241.274C57.6274 241.252 57.6274 241.229 57.6274 241.206C57.6274 241.184 57.6274 241.161 57.6274 241.138C57.6274 241.115 57.6274 241.093 57.6274 241.07C57.6274 241.047 57.6274 241.024 57.6274 241.002C57.6274 240.979 57.6274 240.956 57.6274 240.933C57.6274 240.91 57.6274 240.888 57.6274 240.865C57.6274 240.842 57.6274 240.819 57.6274 240.797C57.6274 240.774 57.6274 240.751 57.6274 240.728C57.6274 240.705 57.6274 240.683 57.6274 240.66C57.6274 240.637 57.6274 240.614 57.6274 240.591C57.6274 240.569 57.6274 240.546 57.6274 240.523C57.6274 240.5 57.6274 240.477 57.6274 240.455C57.6274 240.432 57.6274 240.409 57.6274 240.386C57.6274 240.363 57.6274 240.34 57.6274 240.318C57.6274 240.295 57.6274 240.272 57.6274 240.249C57.6274 240.226 57.6274 240.204 57.6274 240.181C57.6274 240.158 57.6274 240.135 57.6274 240.112C57.6274 240.09 57.6274 240.067 57.6274 240.044C57.6274 240.021 57.6274 239.998 57.6274 239.976C57.6274 239.953 57.6274 239.93 57.6274 239.907C57.6274 239.885 57.6274 239.862 57.6274 239.839C57.6274 239.816 57.6274 239.793 57.6274 239.771C57.6274 239.748 57.6274 239.725 57.6274 239.702C57.6274 239.68 57.6274 239.657 57.6274 239.634C57.6274 239.612 57.6274 239.589 57.6274 239.566C57.6274 239.543 57.6274 239.521 57.6274 239.498C57.6274 239.475 57.6274 239.453 57.6274 239.43C57.6274 239.407 57.6274 239.384 57.6274 239.362C57.6274 239.339 57.6274 239.316 57.6274 239.294C57.6274 239.271 57.6274 239.248 57.6274 239.226C57.6274 239.203 57.6274 239.181 57.6274 239.158C57.6274 239.135 57.6274 239.113 57.6274 239.09C57.6274 239.068 57.6274 239.045 57.6274 239.022C57.6274 239 57.6274 238.977 57.6274 238.955C57.6274 238.932 57.6274 238.91 57.6274 238.887C57.6274 238.865 57.6274 238.842 57.6274 238.82C57.6274 238.797 57.6274 238.775 57.6274 238.752C57.6274 238.73 57.6274 238.707 57.6274 238.685C57.6274 238.662 57.6274 238.64 57.6274 238.618C57.6274 238.595 57.6274 238.573 57.6274 238.55C57.6274 238.528 57.6274 238.506 57.6274 238.483C57.6274 238.461 57.6274 238.439 57.6274 238.416C57.6274 238.394 57.6274 238.372 57.6274 238.349C57.6274 238.327 57.6274 238.305 57.6274 238.283C57.6274 238.26 57.6274 238.238 57.6274 238.216C57.6274 238.194 57.6274 238.171 57.6274 238.149C57.6274 238.127 57.6274 238.105 57.6274 238.083C57.6274 238.061 57.6274 238.039 57.6274 238.017C57.6274 237.994 57.6274 237.972 57.6274 237.95C57.6274 237.928 57.6274 237.906 57.6274 237.884C57.6274 237.862 57.6274 237.84 57.6274 237.818C57.6274 237.796 57.6274 237.774 57.6274 237.752C57.6274 237.731 57.6274 237.709 57.6274 237.687C57.6274 237.665 57.6274 237.643 57.6274 237.621C57.6274 237.599 57.6274 237.578 57.6274 237.556C57.6274 237.534 57.6274 237.512 57.6274 237.491C57.6274 237.469 57.6274 237.447 57.6274 237.425C57.6274 237.404 57.6274 237.382 57.6274 237.36C57.6274 237.339 57.6274 237.317 57.6274 237.296C57.6274 237.274 57.6274 237.252 57.6274 237.231C57.6274 237.209 57.6274 237.188 57.6274 237.166C57.6274 237.145 57.6274 237.124 57.6274 237.102C57.6274 237.081 57.6274 237.059 57.6274 237.038C57.6274 237.017 57.6274 236.995 57.6274 236.974C57.6274 236.953 57.6274 236.931 57.6274 236.91C57.6274 236.889 57.6274 236.868 57.6274 236.847C57.6274 236.825 57.6274 236.804 57.6274 236.783C57.6274 236.762 57.6274 236.741 57.6274 236.72C57.6274 236.699 57.6274 236.678 57.6274 236.657C57.6274 236.636 57.6274 236.615 57.6274 236.594C57.6274 236.573 57.6274 236.552 57.6274 236.531C57.6274 236.511 57.6274 236.49 57.6274 236.469C57.6274 236.448 57.6274 236.427 57.6274 236.407C57.6274 236.386 57.6274 236.365 57.6274 236.345C57.6274 236.324 57.6274 236.303 57.6274 236.283C57.6274 236.262 57.6274 236.242 57.6274 236.221C57.6274 236.201 57.6274 236.18 57.6274 236.16C57.6274 236.139 57.6274 236.119 57.6274 236.099C57.6274 236.078 57.6274 236.058 57.6274 236.038C57.6274 236.017 57.6274 235.997 57.6274 235.977C57.6274 235.957 57.6274 235.936 57.6274 235.916C57.6274 235.896 57.6274 235.876 57.6274 235.856C57.6274 235.836 57.6274 235.816 57.6274 235.796C57.6274 235.776 57.6274 235.756 57.6274 235.736C57.6274 235.716 57.6274 235.697 57.6274 235.677C57.6274 235.657 57.6274 235.637 57.6274 235.617C57.6274 235.598 57.6274 235.578 57.6274 235.558C57.6274 235.539 57.6274 235.519 57.6274 235.5C57.6274 235.48 57.6274 235.461 57.6274 235.441C57.6274 235.422 57.6274 235.402 57.6274 235.383C57.6274 235.363 57.6274 235.344 57.6274 235.325C57.6274 235.306 57.6274 235.286 57.6274 235.267C57.6274 235.248 57.6274 235.229 57.6274 235.21C57.6274 235.191 57.6274 235.172 57.6274 235.153C57.6274 235.134 57.6274 235.115 57.6274 235.096C57.6274 235.077 57.6274 235.058 57.6274 235.039C57.6274 235.02 57.6274 235.001 57.6274 234.983C57.6274 234.964 57.6274 234.945 57.6274 234.927C57.6274 234.908 57.6274 234.889 57.6274 234.871C57.6274 234.852 57.6274 234.834 57.6274 234.816C57.6274 234.797 57.6274 234.779 57.6274 234.76C57.6274 234.742 57.6274 234.724 57.6274 234.706C57.6274 234.687 57.6274 234.669 57.6274 234.651C57.6274 234.633 57.6274 234.615 57.6274 234.597C57.6274 234.579 57.6274 234.561 57.6274 234.543C57.6274 234.525 57.6274 234.507 57.6274 234.489C57.6274 234.472 57.6274 234.454 57.6274 234.436C57.6274 234.418 57.6274 234.401 57.6274 234.383C57.6274 234.366 57.6274 234.348 57.6274 234.331C57.6274 234.313 57.6274 234.296 57.6274 234.278C57.6274 234.261 57.6274 234.244 57.6274 234.226C57.6274 234.209 57.6274 234.192 57.6274 234.175C57.6274 234.158 57.6274 234.14 57.6274 234.123C57.6274 234.106 57.6274 234.089 57.6274 234.073C57.6274 234.056 57.6274 234.039 57.6274 234.022C57.6274 234.005 57.6274 233.988 57.6274 233.972C57.6274 233.955 57.6274 233.938 57.6274 233.922C57.6274 233.905 57.6274 233.889 57.6274 233.872C57.6274 233.856 57.6274 233.84 57.6274 233.823C57.6274 233.807 57.6274 233.791 57.6274 233.775C57.6274 233.758 57.6274 233.742 57.6274 233.726C57.6274 233.71 57.6274 233.694 57.6274 233.678C57.6274 233.662 57.6274 233.646 57.6274 233.63C57.6274 233.615 57.6274 233.599 57.6274 233.583C57.6274 233.567 57.6274 233.552 57.6274 233.536C57.6274 233.521 57.6274 233.505 57.6274 233.49C57.6274 233.474 57.6274 233.459 57.6274 233.444C57.6274 233.428 57.6274 233.413 57.6274 233.398C57.6274 233.383 57.6274 233.368 57.6274 233.353C57.6274 233.338 57.6274 233.323 57.6274 233.308C57.6274 233.293 57.6274 233.278 57.6274 233.263C57.6274 233.248 57.6274 233.234 57.6274 233.219C57.6274 233.204 57.6274 233.19 57.6274 233.175C57.6274 233.161 57.6274 233.147 57.6274 233.132C57.6274 233.118 57.6274 233.104 57.6274 233.089C57.6274 233.075 57.6274 233.061 57.6274 233.047C57.6274 233.033 57.6274 233.019 57.6274 233.005C57.6274 232.991 57.6274 232.977 57.6274 232.963C57.6274 232.949 57.6274 232.936 57.6274 232.922C57.6274 232.908 57.6274 232.895 57.6274 232.881C57.6274 232.868 57.6274 232.854 57.6274 232.841C57.6274 232.828 57.6274 232.814 57.6274 232.801C57.6274 232.788 57.6274 232.775 57.6274 232.762C57.6274 232.749 57.6274 232.736 57.6274 232.723C57.6274 232.71 57.6274 232.697 57.6274 232.684C57.6274 232.672 57.6274 232.659 57.6274 232.646C57.6274 232.634 57.6274 232.621 57.6274 232.609C57.6274 232.596 57.6274 232.584 57.6274 232.572C57.6274 232.559 57.6274 232.547 57.6274 232.535C57.6274 232.523 57.6274 232.511 57.6274 232.499C57.6274 232.487 57.6274 232.475 57.6274 232.463C57.6274 232.451 57.6274 232.44 57.6274 232.428C57.6274 232.416 57.6274 232.405 57.6274 232.393C57.6274 232.382 57.6274 232.37 57.6274 232.359C57.6274 232.348 57.6274 232.336 57.6274 232.325C57.6274 232.314 57.6274 232.303 57.6274 232.292C57.6274 232.281 57.6274 232.27 57.6274 232.259C57.6274 232.248 57.6274 232.237 57.6274 232.227C57.6274 232.216 57.6274 232.205 57.6274 232.195C57.6274 232.184 57.6274 232.174 57.6274 232.164C57.6274 232.153 57.6274 232.143 57.6274 232.133C57.6274 232.123 57.6274 232.113 57.6274 232.103C57.6274 232.093 57.6274 232.083 57.6274 232.073C57.6274 232.063 57.6274 232.053 57.6274 232.044C57.6274 232.034 57.6274 232.024 57.6274 232.015C57.6274 232.005 57.6274 231.996 57.6274 231.987C57.6274 231.977 57.6274 231.968 57.6274 231.959C57.6274 231.95 57.6274 231.941 57.6274 231.932C57.6274 231.923 57.6274 231.914 57.6274 231.905C57.6274 231.896 57.6274 231.888 57.6274 231.879C57.6274 231.871 57.6274 231.862 57.6274 231.854C57.6274 231.845 57.6274 231.837 57.6274 231.829C57.6274 231.82 57.6274 231.812 57.6274 231.804C57.6274 231.796 57.6274 231.788 57.6274 231.78C57.6274 231.772 57.6274 231.765 57.6274 231.757C57.6274 231.749 57.6274 231.742 57.6274 231.734C57.6274 231.727 57.6274 231.719 57.6274 231.712C57.6274 231.705 57.6274 231.698 57.6274 231.69C57.6274 231.683 57.6274 231.676 57.6274 231.669C57.6274 231.662 57.6274 231.656 57.6274 231.649C57.6274 231.642 57.6274 231.636 57.6274 231.629C57.6274 231.622 57.6274 231.616 57.6274 231.61C57.6274 231.603 57.6274 231.597 57.6274 231.591C57.6274 231.585 57.6274 231.579 57.6274 231.573C57.6274 231.567 57.6274 231.561 57.6274 231.555C57.6274 231.549 57.6274 231.544 57.6274 231.538C57.6274 231.533 57.6274 231.527 57.6274 231.522C57.6274 231.516 57.6274 231.511 57.6274 231.506C57.6274 231.501 57.6274 231.496 57.6274 231.491C57.6274 231.486 57.6274 231.481 57.6274 231.476C57.6274 231.471 57.6274 231.467 57.6274 231.462C57.6274 231.458 57.6274 231.453 57.6274 231.449C57.6274 231.445 57.6274 231.44 57.6274 231.436C57.6274 231.432 57.6274 231.428 57.6274 231.424C57.6274 231.42 57.6274 231.416 57.6274 231.413C57.6274 231.409 57.6274 231.405 57.6274 231.402C57.6274 231.398 57.6274 231.395 57.6274 231.392C57.6274 231.388 57.6274 231.385 57.6274 231.382C57.6274 231.379 57.6274 231.376 57.6274 231.373C57.6274 231.37 57.6274 231.367 57.6274 231.365C57.6274 231.362 57.6274 231.359 57.6274 231.357C57.6274 231.355 57.6274 231.352 57.6274 231.35C57.6274 231.348 57.6274 231.346 57.6274 231.344C57.6274 231.342 57.6274 231.34 57.6274 231.338C57.6274 231.336 57.6274 231.334 57.6274 231.333C57.6274 231.331 57.6274 231.33 57.6274 231.328C57.6274 231.327 57.6274 231.326 57.6274 231.325C57.6274 231.324 57.6274 231.323 57.6274 231.322C57.6274 231.321 57.6274 231.32 57.6274 231.319C57.6274 231.319 57.6274 231.318 57.6274 231.318C57.6274 231.317 57.6274 231.317 57.6274 231.317C57.6274 231.316 57.6274 231.316 52.6274 231.316ZM56.9094 233.898C60.1088 228.591 62.0897 226.934 63.5455 226.45C64.8125 226.03 67.0701 226.074 72.2876 228.829L76.9565 219.986C71.3185 217.009 65.8002 215.165 60.3945 216.96C55.1774 218.692 51.5888 223.355 48.3454 228.735L56.9094 233.898ZM27.2587 207.604C26.2829 209.353 25.3252 210.41 24.2588 211.22C23.1253 212.081 21.6584 212.826 19.3926 213.708L23.0205 223.027C25.6076 222.02 28.0808 220.875 30.3086 219.183C32.6036 217.439 34.4287 215.277 35.9913 212.476L27.2587 207.604ZM19.3926 213.708C17.5901 214.41 14.5361 214.526 11.3228 214.247C9.8332 214.118 8.49914 213.924 7.5383 213.761C7.06041 213.68 6.68133 213.608 6.42906 213.558C6.30308 213.533 6.2092 213.513 6.15094 213.501C6.12183 213.495 6.10166 213.49 6.09087 213.488C6.08548 213.487 6.08244 213.486 6.08181 213.486C6.08149 213.486 6.08178 213.486 6.08267 213.486C6.08312 213.486 6.08372 213.486 6.08448 213.487C6.08485 213.487 6.08553 213.487 6.08572 213.487C6.08644 213.487 6.08719 213.487 5 218.368C3.91281 223.248 3.91364 223.248 3.91452 223.248C3.91486 223.248 3.91578 223.249 3.91647 223.249C3.91785 223.249 3.91939 223.249 3.92109 223.25C3.92448 223.25 3.92852 223.251 3.93318 223.252C3.9425 223.254 3.95433 223.257 3.96863 223.26C3.99721 223.266 4.03565 223.275 4.08347 223.285C4.17909 223.305 4.31243 223.333 4.47984 223.366C4.81434 223.432 5.28667 223.522 5.86734 223.62C7.02361 223.816 8.63525 224.052 10.46 224.21C13.8754 224.506 18.9247 224.621 23.0205 223.027L19.3926 213.708ZM5 192.47C6.85612 197.113 6.85518 197.113 6.85431 197.114C6.85413 197.114 6.85334 197.114 6.85298 197.114C6.85224 197.114 6.85182 197.115 6.8517 197.115C6.85148 197.115 6.8525 197.114 6.85475 197.113C6.85924 197.112 6.86863 197.108 6.88278 197.102C6.9111 197.091 6.95843 197.073 7.02367 197.048C7.15423 196.998 7.3561 196.922 7.62053 196.826C8.15018 196.634 8.92626 196.363 9.8793 196.061C11.8017 195.454 14.3671 194.746 17.0422 194.294C19.7723 193.834 22.314 193.693 24.304 194.014C26.2801 194.332 27.0639 194.979 27.4134 195.525L35.8367 190.136C33.3827 186.3 29.4366 184.712 25.8948 184.141C22.367 183.572 18.6029 183.889 15.3776 184.434C12.0973 184.988 9.05778 185.833 6.86405 186.527C5.75904 186.876 4.84928 187.193 4.20761 187.426C3.88638 187.543 3.63121 187.639 3.45115 187.708C3.36108 187.742 3.28971 187.77 3.23815 187.79C3.21236 187.8 3.19152 187.809 3.17576 187.815C3.16789 187.818 3.16128 187.821 3.15596 187.823C3.1533 187.824 3.15096 187.825 3.14894 187.825C3.14794 187.826 3.14667 187.826 3.14617 187.827C3.14498 187.827 3.14388 187.827 5 192.47ZM27.4134 195.525C28.7497 197.614 29.2386 199.497 29.2116 201.281C29.1837 203.116 28.6031 205.195 27.2587 207.604L35.9913 212.476C37.9213 209.018 39.1514 205.322 39.2104 201.433C39.2702 197.495 38.122 193.707 35.8367 190.136L27.4134 195.525Z" fill="#DC0000"/>
<path d="M132.585 229.528C113.987 258.056 141.096 293.412 111.78 276.466M93.6551 229.528C82.0574 234.009 78.5365 236.393 75.6874 240.501C72.4824 251.923 76.4913 254.91 93.6551 254.399C103.878 253.971 107.8 251.771 111.78 244.158C112.604 228.849 109.041 225.153 93.6551 229.528Z" stroke="#DC0000" stroke-width="10"/>
<path d="M155.712 242.076C142.964 252.397 178.012 248.621 179.58 242.076C181.147 235.53 176.432 226.676 164.391 227.935C150.439 230.849 150.695 240.098 149.082 254.645C147.958 268.811 166.32 273.236 171.624 264.988" stroke="#DC0000" stroke-width="10"/>
<path d="M222.359 223.048C205.605 224.181 202.486 226.385 201.629 244.02C200.773 261.654 206.303 267.461 222.359 267.056" stroke="#DC0000" stroke-width="10"/>
<path d="M241.891 211.609C259.366 250.533 228.321 285.886 252.17 285.167" stroke="#DC0000" stroke-width="10"/>
<path d="M264.506 244.02L233.667 248.945" stroke="#DC0000" stroke-width="10"/>
<path d="M306.673 248.027C294.386 234.263 273.908 259.842 275.956 266.42C278.004 272.998 304.966 275.921 306.673 277.382C308.379 278.844 316.423 286.22 282.099 291.999" stroke="#DC0000" stroke-width="10"/>
</svg>
