<svg width="16" height="17" viewBox="0 0 18 17" fill="none" xmlns="http://www.w3.org/2000/svg">
<path d="M8.00001 14.9377C8.72071 14.9377 9.41501 14.8492 10.083 14.6721C10.751 14.495 11.3779 14.246 11.9639 13.925C12.5498 13.604 13.083 13.2139 13.5635 12.7546C14.0439 12.2953 14.4541 11.7945 14.7939 11.2522C15.1338 10.7098 15.4004 10.1177 15.5938 9.47584C15.7871 8.8339 15.8809 8.17537 15.875 7.50024C15.875 6.81958 15.7813 6.16381 15.5938 5.53295C15.4062 4.9021 15.1426 4.30997 14.8027 3.75659C14.4629 3.2032 14.0498 2.69962 13.5635 2.24585C13.0771 1.79207 12.5469 1.4047 11.9727 1.08374C11.3984 0.762774 10.7715 0.510984 10.0918 0.328364C9.41211 0.145754 8.71485 0.0572138 8.00001 0.0627438C7.27931 0.0627438 6.58497 0.151284 5.917 0.328364C5.24903 0.505454 4.62208 0.754474 4.03614 1.07544C3.45021 1.3964 2.917 1.78654 2.43653 2.24585C1.95606 2.70516 1.54591 3.20597 1.20606 3.74829C0.866224 4.2906 0.599624 4.88273 0.406264 5.52465C0.212904 6.16658 0.119154 6.82511 0.125014 7.50024C0.125014 8.1809 0.218764 8.83667 0.406264 9.46754C0.593764 10.0983 0.857434 10.6905 1.19728 11.2439C1.53712 11.7972 1.95021 12.3008 2.43653 12.7546C2.92286 13.2084 3.45313 13.5957 4.02735 13.9167C4.60157 14.2377 5.22853 14.4895 5.90821 14.6721C6.5879 14.8547 7.28517 14.9432 8.00001 14.9377ZM13.2471 7.63305L13.6689 6.43774H14.3281L13.5811 8.56274H12.9219L12.5 7.36743L12.0781 8.56274H11.4189L10.6719 6.43774H11.3311L11.7529 7.63305L12.1748 6.43774H12.8252L13.2471 7.63305ZM9.16891 6.43774H9.82811L9.08111 8.56274H8.42189L8.00001 7.36743L7.57813 8.56274H6.91896L6.17189 6.43774H6.83106L7.25294 7.63305L7.67481 6.43774H8.32521L8.74708 7.63305L9.16891 6.43774ZM4.66896 6.43774H5.32813L4.58106 8.56274H3.92189L3.50001 7.36743L3.07813 8.56274H2.41896L1.67189 6.43774H2.33106L2.75294 7.63305L3.17481 6.43774H3.82521L4.24708 7.63305L4.66896 6.43774Z" fill="black"/>
</svg>
