<svg width="18" height="17" viewBox="0 0 18 17" fill="none" xmlns="http://www.w3.org/2000/svg">
<path d="M9 0C9.82617 0 10.623 0.0996094 11.3906 0.298828C12.1582 0.498047 12.876 0.78304 13.5439 1.15381C14.2119 1.52458 14.8184 1.96729 15.3633 2.48193C15.9082 2.99658 16.377 3.5721 16.7695 4.2085C17.1621 4.84489 17.4639 5.52279 17.6748 6.24219C17.8857 6.96159 17.9941 7.71419 18 8.5C18 9.28027 17.8945 10.0329 17.6836 10.7578C17.4727 11.4827 17.1709 12.1606 16.7783 12.7915C16.3857 13.4224 15.917 13.9951 15.3721 14.5098C14.8271 15.0244 14.2178 15.4671 13.5439 15.8379C12.8701 16.2087 12.1523 16.4937 11.3906 16.6929C10.6289 16.8921 9.83203 16.9945 9 17C8.17383 17 7.37695 16.9004 6.60938 16.7012C5.8418 16.502 5.12402 16.217 4.45605 15.8462C3.78809 15.4754 3.18164 15.0327 2.63672 14.5181C2.0918 14.0034 1.62305 13.4279 1.23047 12.7915C0.837891 12.1551 0.536133 11.48 0.325195 10.7661C0.114258 10.0522 0.00585938 9.29688 0 8.5C0 7.71973 0.105469 6.96712 0.316406 6.24219C0.527344 5.51725 0.829102 4.83936 1.22168 4.2085C1.61426 3.57764 2.08301 3.00488 2.62793 2.49023C3.17285 1.97559 3.78223 1.53288 4.45605 1.16211C5.12988 0.791341 5.84473 0.506348 6.60059 0.307129C7.35645 0.10791 8.15625 0.00553385 9 0ZM9 15.9375C9.7207 15.9375 10.415 15.849 11.083 15.6719C11.751 15.4948 12.3779 15.2458 12.9639 14.9248C13.5498 14.6038 14.083 14.2137 14.5635 13.7544C15.0439 13.2951 15.4541 12.7943 15.7939 12.252C16.1338 11.7096 16.4004 11.1175 16.5938 10.4756C16.7871 9.83366 16.8809 9.17513 16.875 8.5C16.875 7.81934 16.7813 7.16357 16.5938 6.53271C16.4062 5.90186 16.1426 5.30973 15.8027 4.75635C15.4629 4.20296 15.0498 3.69938 14.5635 3.24561C14.0771 2.79183 13.5469 2.40446 12.9727 2.0835C12.3984 1.76253 11.7715 1.51074 11.0918 1.32812C10.4121 1.14551 9.71484 1.05697 9 1.0625C8.2793 1.0625 7.58496 1.15104 6.91699 1.32812C6.24902 1.50521 5.62207 1.75423 5.03613 2.0752C4.4502 2.39616 3.91699 2.7863 3.43652 3.24561C2.95605 3.70492 2.5459 4.20573 2.20605 4.74805C1.86621 5.29036 1.59961 5.88249 1.40625 6.52441C1.21289 7.16634 1.11914 7.82487 1.125 8.5C1.125 9.18066 1.21875 9.83643 1.40625 10.4673C1.59375 11.0981 1.85742 11.6903 2.19727 12.2437C2.53711 12.797 2.9502 13.3006 3.43652 13.7544C3.92285 14.2082 4.45312 14.5955 5.02734 14.9165C5.60156 15.2375 6.22852 15.4893 6.9082 15.6719C7.58789 15.8545 8.28516 15.943 9 15.9375ZM14.2471 8.63281L14.6689 7.4375H15.3281L14.5811 9.5625H13.9219L13.5 8.36719L13.0781 9.5625H12.4189L11.6719 7.4375H12.3311L12.7529 8.63281L13.1748 7.4375H13.8252L14.2471 8.63281ZM10.1689 7.4375H10.8281L10.0811 9.5625H9.42188L9 8.36719L8.57812 9.5625H7.91895L7.17188 7.4375H7.83105L8.25293 8.63281L8.6748 7.4375H9.3252L9.74707 8.63281L10.1689 7.4375ZM5.66895 7.4375H6.32812L5.58105 9.5625H4.92188L4.5 8.36719L4.07812 9.5625H3.41895L2.67188 7.4375H3.33105L3.75293 8.63281L4.1748 7.4375H4.8252L5.24707 8.63281L5.66895 7.4375Z" fill="#292929"/>
</svg>
